<svg width="18" height="17" viewBox="0 0 18 17" fill="none" xmlns="http://www.w3.org/2000/svg">
<path d="M15.3846 1H2.57691C1.6923 1 1 1.7 1 2.59445V10.1778C1 11.0722 1.6923 11.7722 2.57691 11.7722H6.69231L9 15L11.3077 11.7722H15.4231C16.3077 11.7722 17 11.0722 17 10.1778V2.59445C16.9615 1.73889 16.2692 1 15.3846 1Z" stroke="white" stroke-width="1.4"/>
<path d="M8.99977 7.65001C9.59454 7.65001 10.0767 7.1625 10.0767 6.56113C10.0767 5.95975 9.59454 5.47223 8.99977 5.47223C8.405 5.47223 7.92285 5.95975 7.92285 6.56113C7.92285 7.1625 8.405 7.65001 8.99977 7.65001Z" fill="white"/>
<path d="M6.61575 6.56113C6.61575 7.14446 6.11576 7.65001 5.53883 7.65001C4.96191 7.65001 4.46191 7.14446 4.46191 6.56113C4.46191 5.97779 4.96191 5.47223 5.53883 5.47223C6.11576 5.47223 6.61575 5.97779 6.61575 6.56113Z" fill="white"/>
<path d="M13.5386 6.56113C13.5386 7.14446 13.0386 7.65001 12.4617 7.65001C11.8848 7.65001 11.3848 7.14446 11.3848 6.56113C11.3848 5.97779 11.8848 5.47223 12.4617 5.47223C13.0771 5.47223 13.5386 5.97779 13.5386 6.56113Z" fill="white"/>
</svg>
