<svg width="16" height="17" viewBox="0 0 16 17" fill="none" xmlns="http://www.w3.org/2000/svg">
<path fill-rule="evenodd" clip-rule="evenodd" d="M5 0.75C5.41421 0.75 5.75 1.08579 5.75 1.5V1.875H10.25V1.5C10.25 1.08579 10.5858 0.75 11 0.75C11.4142 0.75 11.75 1.08579 11.75 1.5V1.875H14.375C15.2034 1.875 15.875 2.54658 15.875 3.375V15C15.875 15.8284 15.2034 16.5 14.375 16.5H1.625C0.79658 16.5 0.125 15.8284 0.125 15V3.375C0.125 2.54657 0.796573 1.875 1.625 1.875H4.25V1.5C4.25 1.08579 4.58579 0.75 5 0.75ZM4.25 3.375H1.625V6.375H14.375V3.375H11.75V4.5C11.75 4.91421 11.4142 5.25 11 5.25C10.5858 5.25 10.25 4.91421 10.25 4.5V3.375H5.75V4.5C5.75 4.91421 5.41421 5.25 5 5.25C4.58579 5.25 4.25 4.91421 4.25 4.5V3.375ZM14.375 7.875H1.625V15H14.375V7.875ZM3.5 9.75C3.5 9.33579 3.83579 9 4.25 9H6.5C6.91421 9 7.25 9.33579 7.25 9.75C7.25 10.1642 6.91421 10.5 6.5 10.5H4.25C3.83579 10.5 3.5 10.1642 3.5 9.75ZM8.75 9.75C8.75 9.33579 9.08579 9 9.5 9H11.75C12.1642 9 12.5 9.33579 12.5 9.75C12.5 10.1642 12.1642 10.5 11.75 10.5H9.5C9.08579 10.5 8.75 10.1642 8.75 9.75ZM3.5 12.75C3.5 12.3358 3.83579 12 4.25 12H6.5C6.91421 12 7.25 12.3358 7.25 12.75C7.25 13.1642 6.91421 13.5 6.5 13.5H4.25C3.83579 13.5 3.5 13.1642 3.5 12.75ZM8.75 12.75C8.75 12.3358 9.08579 12 9.5 12H11.75C12.1642 12 12.5 12.3358 12.5 12.75C12.5 13.1642 12.1642 13.5 11.75 13.5H9.5C9.08579 13.5 8.75 13.1642 8.75 12.75Z" fill="white" fill-opacity="0.85"/>
</svg>
