<svg width="15" height="16" viewBox="0 0 15 16" fill="none" xmlns="http://www.w3.org/2000/svg">
<path d="M7.24044 12.3257C7.31255 12.3988 7.40627 12.4353 7.5 12.4353C7.59373 12.4353 7.68745 12.3988 7.75956 12.3257L10.8924 9.15001C10.9969 9.04403 11.0294 8.88324 10.9717 8.74437C10.914 8.6055 10.7806 8.51414 10.6328 8.51414H8.72932V6.75635C8.72932 6.55171 8.5635 6.38361 8.36162 6.38361H6.63838C6.4365 6.38361 6.27068 6.55171 6.27068 6.75635V8.51414H4.36718C4.21938 8.51414 4.08238 8.6055 4.02831 8.74437C3.97062 8.88324 4.00308 9.04403 4.10763 9.15001L7.24044 12.3257Z" fill="#EEEEEE"/>
<path d="M10.2402 14.9569H12.6084C13.3776 14.9569 14 14.4026 14 13.7247V4.72273C14 4.62137 13.9535 4.53268 13.882 4.46617L9.90395 0.943906C9.82883 0.877388 9.72867 0.836212 9.61419 0.836212H2.39156C1.62244 0.836212 1 1.39053 1 2.06837V13.7216C1 14.4026 1.62602 14.9537 2.39156 14.9537H10.1293H10.2402V14.9569ZM10.1293 14.2315H2.39156C2.07318 14.2315 1.81562 14.0035 1.81562 13.7216V2.06837C1.81562 1.78646 2.07318 1.5584 2.39156 1.5584H9.20639V4.38381C9.20639 4.76707 9.56053 5.08065 9.99339 5.08065H13.1844V13.7216C13.1844 14.0035 12.9268 14.2315 12.6084 14.2315H10.2474H10.1293ZM10.022 4.35846V2.07153L12.6049 4.35846H10.022Z" fill="#EEEEEE" stroke="#EEEEEE" stroke-width="0.5" stroke-miterlimit="10"/>
</svg>
