<svg width="20" height="19" viewBox="0 0 20 19" fill="none" xmlns="http://www.w3.org/2000/svg">
<path d="M10.022 14C6.81318 14 4.3956 10.9094 4.3956 6.78867L4 1.63773C4 1.58867 4 1.53962 4 1.49057C4 1.24528 4.21978 1 4.43956 1H15.5604C15.7802 1 16 1.19623 16 1.49057C16 1.53962 16 1.53961 16 1.58867L15.6484 6.83773C15.6484 10.9094 13.2308 14 10.022 14ZM4.92307 1.98113L5.27472 6.73961C5.27472 10.3207 7.2967 13.0189 10.022 13.0189C12.7472 13.0189 14.7692 10.3207 14.7692 6.78867L15.0769 1.98113H4.92307Z" fill="white" stroke="white" stroke-width="0.4"/>
<path d="M7.18907 17.7701C7.14184 17.7701 7.09461 17.7701 7.04738 17.7241C6.8112 17.6322 6.6695 17.4023 6.76397 17.1264L8.03931 13.4483C8.13378 13.2184 8.36994 13.0804 8.65335 13.1724C8.88952 13.2644 9.03123 13.4943 8.93676 13.7701L7.66142 17.4483C7.56695 17.6322 7.37801 17.7701 7.18907 17.7701Z" fill="white" stroke="white" stroke-width="0.4"/>
<path d="M12.7632 17.7701C12.5743 17.7701 12.3854 17.6322 12.3381 17.4483L11.0628 13.7701C10.9683 13.5402 11.11 13.2644 11.3462 13.1724C11.5824 13.0804 11.8658 13.2184 11.9602 13.4483L13.2356 17.1264C13.3301 17.3563 13.1884 17.6322 12.9522 17.7241C12.8577 17.7701 12.8105 17.7701 12.7632 17.7701Z" fill="white" stroke="white" stroke-width="0.4"/>
<path d="M13.9912 18H5.86688C5.58347 18 5.39453 17.8161 5.39453 17.5402C5.39453 17.2644 5.58347 17.0805 5.86688 17.0805H13.9912C14.2746 17.0805 14.4636 17.2644 14.4636 17.5402C14.4636 17.8161 14.2274 18 13.9912 18Z" fill="white" stroke="white" stroke-width="0.4"/>
<path d="M15.9275 9.95402C15.8331 9.95402 15.7858 9.95402 15.6914 9.95402C15.5497 9.90804 15.3607 9.86207 15.1718 9.77012C14.9356 9.67816 14.8411 9.40231 14.9356 9.17242C15.0301 8.94254 15.3135 8.85058 15.5497 8.94254C15.6441 8.98851 15.7386 9.03448 15.7858 9.03448C16.3999 9.12643 17.5808 8.29885 17.9586 6.78161C18.1476 5.95402 18.0531 5.17241 17.6752 4.62068C17.4391 4.25287 17.1084 4.02298 16.7778 3.97701C16.6361 3.93103 16.4471 3.93103 16.3054 3.97701C16.0693 4.02298 15.7858 3.88506 15.7386 3.65518C15.6914 3.42529 15.8331 3.14942 16.0693 3.10345C16.3527 3.01149 16.6833 3.01149 16.9667 3.05747C17.5808 3.14942 18.1003 3.56322 18.4782 4.11495C18.9978 4.89656 19.1395 5.95402 18.8561 7.01149C18.4782 8.85058 17.0139 9.95402 15.9275 9.95402Z" fill="white" stroke="white" stroke-width="0.4"/>
<path d="M4.16652 9.95402C3.03289 9.95402 1.61585 8.8046 1.14351 7.01149C0.860097 5.95402 1.0018 4.89656 1.52138 4.11495C1.89925 3.56322 2.41884 3.1954 3.03289 3.05747C3.3163 3.01149 3.64694 3.01149 3.93035 3.10345C4.16652 3.14942 4.35546 3.42529 4.261 3.65518C4.21376 3.88506 3.93035 4.06896 3.69417 3.97701C3.55247 3.93103 3.36353 3.93103 3.22183 3.97701C2.84395 4.02298 2.56054 4.25287 2.32437 4.62068C1.94649 5.17241 1.85202 6 2.04096 6.78161C2.41884 8.25287 3.59971 9.12643 4.21376 9.03448C4.30823 9.03448 4.35546 8.98851 4.44993 8.94254C4.6861 8.85058 4.96951 8.94254 5.06398 9.17242C5.15844 9.40231 5.06398 9.67816 4.8278 9.77012C4.63886 9.86207 4.49716 9.90804 4.30822 9.95402C4.30822 9.95402 4.21375 9.95402 4.16652 9.95402Z" fill="white" stroke="white" stroke-width="0.4"/>
<path d="M10.024 4.25282L10.9687 6.0919L13.0942 6.41375L11.5355 7.83902L11.9134 9.90799L10.024 8.94248L8.13461 9.90799L8.51249 7.83902L7.00098 6.41375L9.0793 6.0919L10.024 4.25282Z" fill="white"/>
</svg>
