<svg width="17" height="17" viewBox="0 0 17 17" fill="none" xmlns="http://www.w3.org/2000/svg">
<path d="M6.06644 10.9336C3.80728 8.67449 3.80728 4.95352 6.06644 2.69437C8.32559 0.435211 12.0466 0.435211 14.3057 2.69437C16.5649 4.95352 16.5649 8.67449 14.3057 10.9336C12.0466 13.1928 8.36989 13.1928 6.06644 10.9336Z" stroke="white" stroke-width="1.5" stroke-linecap="round" stroke-linejoin="round"/>
<path d="M13.6411 6.81392C13.6411 5.92798 13.2867 5.04204 12.6223 4.37758C11.9578 3.71312 11.0719 3.35873 10.1859 3.35873C9.83156 3.35873 9.52148 3.66881 9.52148 4.02319C9.52148 4.37757 9.83156 4.68765 10.1859 4.68765C10.7175 4.68765 11.2491 4.90915 11.692 5.30782C12.0907 5.7065 12.3122 6.28236 12.3122 6.81392C12.3122 7.1683 12.6223 7.47838 12.9767 7.47838C13.3753 7.47838 13.6411 7.1683 13.6411 6.81392Z" fill="white"/>
<path d="M3.1427 16.3821C2.38965 17.1352 1.19363 17.2237 0.484873 16.515C-0.223882 15.8062 -0.135293 14.6545 0.617759 13.8572L2.47825 11.9967C3.2313 11.2436 4.42732 11.155 5.13608 11.8638C5.84483 12.5725 5.75624 13.7243 5.00319 14.5216L3.1427 16.3821Z" fill="white"/>
</svg>
