<svg width="17" height="15" viewBox="0 0 17 15" fill="none" xmlns="http://www.w3.org/2000/svg">
<path d="M8.89067 0.0728703C8.75224 0.010594 8.6004 -0.0123726 8.45065 0.00631432C8.30089 0.0250012 8.15859 0.0846724 8.03826 0.179238L3.96372 3.52981H0.852413C0.626339 3.52981 0.409524 3.6232 0.249666 3.78943C0.0898075 3.95566 0 4.18112 0 4.41621V9.73458C0 9.96967 0.0898075 10.1951 0.249666 10.3614C0.409524 10.5276 0.626339 10.621 0.852413 10.621H3.96372L7.99564 13.9716C8.14561 14.0967 8.33186 14.1654 8.52413 14.1666C8.65146 14.1687 8.77734 14.1383 8.89067 14.0779C9.03573 14.0061 9.1583 13.8931 9.24427 13.7519C9.33024 13.6108 9.37609 13.4472 9.37654 13.2802V0.870626C9.37609 0.703553 9.33024 0.540015 9.24427 0.398868C9.1583 0.25772 9.03573 0.144711 8.89067 0.0728703V0.0728703ZM7.67172 11.4365L4.79056 9.04319C4.64059 8.91807 4.45434 8.84934 4.26207 8.84819H1.70483V5.3026H4.26207C4.45434 5.30144 4.64059 5.23272 4.79056 5.1076L7.67172 2.71433V11.4365ZM11.2007 0.0640066C11.0888 0.0477101 10.9748 0.0545006 10.8654 0.0839902C10.756 0.11348 10.6532 0.165091 10.563 0.235877C10.4728 0.306663 10.3968 0.395238 10.3395 0.496544C10.2822 0.59785 10.2446 0.709903 10.229 0.826306C10.2133 0.942709 10.2198 1.06118 10.2482 1.17496C10.2765 1.28874 10.3262 1.3956 10.3942 1.48943C10.5317 1.67893 10.736 1.80389 10.962 1.8368C12.1692 2.03025 13.27 2.66658 14.0652 3.63067C14.8604 4.59477 15.2975 5.82298 15.2975 7.09312C15.2975 8.36327 14.8604 9.59147 14.0652 10.5556C13.27 11.5197 12.1692 12.156 10.962 12.3494C10.736 12.3659 10.5254 12.4751 10.3768 12.6529C10.2281 12.8308 10.1535 13.0628 10.1693 13.2979C10.1851 13.533 10.2901 13.7519 10.4611 13.9065C10.6322 14.0611 10.8553 14.1387 11.0814 14.1222H11.2007C12.8142 13.8684 14.2866 13.0214 15.3507 11.7349C16.4148 10.4484 17 8.80774 17 7.11085C17 5.41396 16.4148 3.77332 15.3507 2.48683C14.2866 1.20033 12.8142 0.353279 11.2007 0.0994624V0.0640066ZM10.8086 8.73295C10.5825 8.77057 10.3801 8.90003 10.2458 9.09286C10.1115 9.28569 10.0564 9.52609 10.0926 9.76117C10.1287 9.99626 10.2532 10.2068 10.4387 10.3464C10.6241 10.486 10.8553 10.5434 11.0814 10.5057C11.1739 10.5047 11.2657 10.4897 11.3541 10.4614C12.0182 10.2166 12.593 9.76382 12.9995 9.16542C13.406 8.56702 13.6243 7.85236 13.6243 7.11971C13.6243 6.38707 13.406 5.67241 12.9995 5.07401C12.593 4.47561 12.0182 4.02286 11.3541 3.778C11.1394 3.70278 10.9047 3.71935 10.7016 3.82407C10.4986 3.9288 10.3439 4.1131 10.2716 4.33643C10.1992 4.55976 10.2152 4.80383 10.3159 5.01495C10.4166 5.22606 10.5938 5.38693 10.8086 5.46215C11.1321 5.58973 11.4105 5.81662 11.6071 6.11269C11.8036 6.40875 11.9088 6.75998 11.9088 7.11971C11.9088 7.47945 11.8036 7.83068 11.6071 8.12674C11.4105 8.4228 11.1321 8.64969 10.8086 8.77727V8.73295Z" fill="white"/>
</svg>
