<svg width="14" height="16" viewBox="0 0 14 16" fill="none" xmlns="http://www.w3.org/2000/svg">
<path fill-rule="evenodd" clip-rule="evenodd" d="M8.5 3.125C8.5 1.67525 9.67526 0.5 11.125 0.5C12.5747 0.5 13.75 1.67525 13.75 3.125C13.75 4.57474 12.5747 5.75 11.125 5.75C10.3921 5.75 9.72943 5.44967 9.25321 4.96538L5.4048 7.29699C5.46684 7.52074 5.5 7.7565 5.5 8C5.5 8.21875 5.47324 8.43125 5.42282 8.6344L9.34079 10.9496C9.80909 10.5154 10.4361 10.25 11.125 10.25C12.5747 10.25 13.75 11.4253 13.75 12.875C13.75 14.3247 12.5747 15.5 11.125 15.5C9.67526 15.5 8.5 14.3247 8.5 12.875C8.5 12.6563 8.52675 12.4438 8.57716 12.2407L4.65917 9.92546C4.19087 10.3596 3.56393 10.625 2.875 10.625C1.42526 10.625 0.25 9.44974 0.25 8C0.25 6.55026 1.42526 5.375 2.875 5.375C3.53836 5.375 4.14425 5.62107 4.60638 6.0269L8.55002 3.63759C8.51721 3.47181 8.5 3.30041 8.5 3.125ZM11.125 2C10.5037 2 10 2.50368 10 3.125C10 3.74631 10.5037 4.25 11.125 4.25C11.7463 4.25 12.25 3.74631 12.25 3.125C12.25 2.50368 11.7463 2 11.125 2ZM2.875 6.875C2.25369 6.875 1.75 7.37869 1.75 8C1.75 8.62131 2.25369 9.125 2.875 9.125C3.49631 9.125 4 8.62131 4 8C4 7.37869 3.49631 6.875 2.875 6.875ZM11.125 11.75C10.5037 11.75 10 12.2537 10 12.875C10 13.4963 10.5037 14 11.125 14C11.7463 14 12.25 13.4963 12.25 12.875C12.25 12.2537 11.7463 11.75 11.125 11.75Z" fill="#EEEEEE"/>
</svg>
