<svg width="19" height="15" viewBox="0 0 19 15" fill="none" xmlns="http://www.w3.org/2000/svg">
<path d="M5.89062 5.83511C5.89062 5.05655 6.41178 4.72873 7.0933 5.1385L9.49865 6.57269C10.1401 6.94148 10.1401 7.59711 9.49865 7.9659L7.0933 9.40009C6.45187 9.76888 5.89062 9.48205 5.89062 8.70349V5.83511Z" fill="white"/>
<path d="M14 4.23074L17.0698 3.07694C17.5969 2.84618 18 3.15386 18 3.73077V10.269C18 10.8459 17.5659 11.1536 17.0698 10.9228L14 9.76901" stroke="white" stroke-width="1.4"/>
<path d="M2.72383 0.999878H11.784C12.7461 0.999878 13.5078 1.77844 13.5078 2.76189V11.6129C13.5078 12.5963 12.7461 13.3749 11.784 13.3749H2.72383C1.76169 13.3749 1 12.5963 1 11.6129V2.76189C1 1.81942 1.80178 0.999878 2.72383 0.999878Z" stroke="white" stroke-width="1.4"/>
</svg>
