<svg width="330" height="498" viewBox="0 0 330 498" fill="none" xmlns="http://www.w3.org/2000/svg">
<path d="M53.7403 467.662C52.7755 468.048 52.0177 468.415 51.5097 468.675C50.8181 469.031 50.5407 469.214 49.4798 469.79C48.3656 470.396 47.8085 470.699 47.5524 470.803C45.6484 471.579 44.8074 470.406 42.0753 470.703C40.8266 470.837 39.5672 470.974 38.6259 471.918C37.6291 472.921 37.9685 473.853 36.6985 475.162C36.1243 475.755 35.9578 475.665 34.771 476.58C33.5522 477.523 33.0976 478.107 32.3377 478.811C29.691 481.259 28.3654 480.515 27.0613 482.358C25.9257 483.966 26.0111 485.838 26.0474 486.614C26.1392 488.566 26.9396 489.903 27.9748 491.581C29.4562 493.981 30.4466 495.586 32.5405 496.446C34.4487 497.229 36.7305 497.171 38.5256 496.344C40.3698 495.495 40.167 494.544 41.8725 493.912C43.2684 493.396 44.2631 493.714 47.7573 494.318C49.975 494.699 51.4948 494.962 53.1319 495.128C56.784 495.497 59.2985 495.721 61.7553 494.418C63.3327 493.584 62.8972 493.172 64.4938 492.392C67.4352 490.952 68.9442 492.332 71.5953 490.974C73.5633 489.963 73.0659 489.031 75.0446 488.135C77.3883 487.073 78.5644 488.169 80.8269 487.325C82.1717 486.821 83.1108 485.67 84.9849 483.371C87.1557 480.709 88.7929 478.702 89.4481 475.567C89.7811 473.981 90.0992 472.458 89.4481 470.803C89.1066 469.935 88.3083 468.551 82.5516 465.634C79.0553 463.866 77.3093 462.981 75.7533 462.695C71.3434 461.886 67.3391 463.742 65.1021 464.723C62.5151 465.855 61.6101 466.77 58.9143 467.357C56.8075 467.817 54.9825 467.775 53.7403 467.662Z" fill="#FCC710" stroke="white"/>
<path d="M92.8973 466.546C92.1716 466.484 91.5056 467.358 91.2751 468.066C90.8866 469.248 91.4224 470.845 92.289 471.005C93.0638 471.15 94.0371 470.135 94.2164 469.079C94.4021 467.977 93.7554 466.62 92.8973 466.546Z" fill="#FCC710" stroke="white"/>
<path d="M175.724 350.446C175.788 350.369 175.844 350.273 176.002 350.1C176.16 349.928 176.247 349.872 176.382 349.734C176.488 349.621 176.616 349.471 176.789 349.23C177.588 348.111 177.528 347.58 178.311 346.646C178.582 346.321 179.357 345.398 179.833 345.581C180.145 345.701 180.094 346.206 180.29 347.558C180.593 349.667 180.907 349.766 180.745 350.597C180.561 351.559 180.13 351.51 179.833 352.726C179.69 353.31 179.724 353.583 179.679 354.854C179.603 357.076 179.351 357.059 179.528 357.439C180.089 358.639 181.822 358.335 182.266 359.567C182.377 359.874 182.245 359.827 182.266 361.088C182.288 362.314 182.298 362.928 182.572 363.37C182.713 363.598 183.02 363.967 184.55 364.434C186.279 364.958 187.144 365.223 187.897 365.042C189.902 364.56 189.72 362.092 192.766 360.024C193.408 359.588 194.446 358.9 195.048 359.264C195.402 359.478 195.487 359.977 195.81 362.913C195.955 364.233 195.985 364.56 196.267 364.737C196.911 365.144 198.382 364.459 199.157 363.37C199.976 362.216 200.23 360.695 199.919 358.808C199.919 358.808 201.838 357.953 202.506 358.503C203.135 359.025 202.57 360.736 202.352 361.393C201.746 363.227 200.922 363.638 201.135 364.585C201.302 365.33 202.004 365.927 202.657 366.106C202.877 366.166 203.155 366.195 204.787 365.801C206.235 365.451 206.54 365.302 206.766 365.498C207.157 365.837 206.559 366.566 206.918 367.626C206.952 367.729 207.308 368.735 208.134 368.993C209.148 369.311 210.455 368.379 210.873 367.321C211.229 366.424 210.777 365.863 210.265 363.977C210.049 363.184 210.198 363.534 209.505 358.2C209.15 355.475 209.044 354.863 209.505 354.4C210.241 353.658 211.289 354.445 212.7 353.638C213.678 353.08 214.371 352.02 214.525 350.902C214.685 349.742 214.32 348.094 213.308 347.71C212.536 347.418 211.693 347.976 210.265 348.925C208.593 350.036 208.501 350.578 207.221 351.207C206.881 351.374 204.702 352.444 203.874 351.661C203.12 350.951 203.53 348.746 204.787 347.558C206.346 346.082 207.951 347.358 209.961 345.733C210.858 345.01 210.918 344.449 212.395 343.302C213.328 342.576 213.795 342.214 214.373 342.084C216.139 341.689 217.94 343.263 219.547 344.669C221.725 346.573 221.944 347.584 223.503 348.015C224.82 348.377 226.538 348.17 226.85 347.405C227.197 346.562 225.554 345.722 223.654 343.148C222.184 341.156 222.743 341.081 220.156 336.155C218.726 333.432 218.049 332.493 218.482 331.898C218.978 331.216 220.681 331.325 221.829 332.05C223.285 332.973 222.788 334.216 224.265 336.306C225.095 337.486 225.328 337.194 228.525 340.109C230.598 341.998 230.354 341.988 230.958 342.389C233.033 343.764 234.726 343.105 238.871 343.148C245.134 343.214 247.364 344.777 248.914 343.148C250.124 341.877 249.729 341.209 251.349 339.955C253.287 338.454 256.519 337.848 258.88 339.045C260.803 340.017 261.125 341.668 262.303 341.476C263.217 341.329 263.413 340.275 265.339 338.942C265.894 338.561 266.385 338.296 266.718 338.132C269.185 336.91 273.512 334.487 274.476 331.747C275.857 327.825 270.041 323.747 271.435 321.864C272.483 320.448 276.075 322.355 280.412 320.42C280.598 320.337 282.931 319.271 282.846 318.141C282.822 317.825 282.615 317.576 282.543 316.848C282.487 316.311 282.57 316.166 282.562 315.671C282.549 314.827 282.263 314.551 282.092 313.639C281.998 313.146 281.93 312.53 281.932 311.679C281.939 309.943 281.941 308.495 282.846 307.117C283.377 306.309 283.811 306.147 283.911 305.445C284.045 304.513 283.403 303.969 282.389 302.252C281.695 301.08 280.637 299.286 281.021 298.909C281.373 298.561 283.142 299.207 284.216 300.581C285.975 302.83 284.716 305.554 286.346 306.509C286.818 306.787 287.488 306.889 288.02 306.661C289.407 306.066 289.16 303.489 289.542 299.973C290.163 294.227 291.604 293.897 291.367 290.395C291.367 290.395 291.123 286.782 288.78 283.249C281.702 272.573 246.308 289.09 229.893 274.432C223.797 268.985 227.56 265.703 220.764 259.229C203.761 243.025 170.685 254.501 168.117 255.428C158.973 258.725 151.647 261.37 146.966 268.655C141.444 277.245 145.91 282.474 141.641 305.294C139.508 316.688 137.775 318.695 138.748 325.057C139.564 330.384 142.742 335.703 149.096 346.341C151.481 350.333 154.776 353.83 158.986 356.831C159.462 357.17 160.702 358.008 162.486 358.352C163.553 358.556 165.045 358.844 166.29 358.049C167.79 357.089 168.093 355.097 168.268 353.943C168.599 351.757 168.038 350.271 168.42 350.143C168.764 350.028 169.494 351.13 170.55 352.726C171.472 354.118 171.507 354.37 171.921 354.551C173.257 355.133 175.784 354.071 175.724 353.336C175.699 353.011 175.193 353.052 174.762 352.372C174.518 351.992 174.237 351.288 174.508 350.953C174.77 350.629 175.357 350.887 175.724 350.446Z" fill="#FCC710" stroke="white"/>
<path d="M170.55 362C170.73 364.127 167.876 364.771 167.66 367.17C167.519 368.725 168.559 370.235 169.639 370.97C170.535 371.582 171.428 371.636 172.986 371.73C174.642 371.83 175.197 371.55 177.549 371.578C178.979 371.595 179.701 371.608 179.985 371.883C180.994 372.853 179.319 374.762 179.528 378.268C179.684 380.887 180.725 381.587 180.136 382.525C179.116 384.148 174.623 384.229 172.377 381.917C170.678 380.166 170.258 377.04 170.785 376.055C170.821 375.988 170.926 375.807 170.856 375.683C170.631 375.287 168.672 375.5 168.117 376.443C167.387 377.682 169.541 379.401 168.877 380.548C168.36 381.442 166.294 381.7 165.073 380.853C163.699 379.898 164.433 378.266 163.4 374.468C162.412 370.838 161.208 370.373 161.573 368.386C161.822 367.038 162.362 367.321 163.857 364.28C165.018 361.915 165.037 361.034 166.138 360.328C166.937 359.817 168.29 359.405 169.334 360.023C169.985 360.41 170.482 361.179 170.55 362Z" fill="#FCC710" stroke="white"/>
<path d="M195.81 370.819C195.368 369.228 193.835 367.97 192.158 367.778C190.834 367.626 189.315 368.127 189.268 368.69C189.204 369.424 191.709 369.639 192.158 371.273C192.41 372.194 191.773 372.706 192.158 373.25C192.719 374.045 194.86 374.071 195.658 372.947C196.192 372.194 195.921 371.218 195.81 370.819Z" fill="#FCC710" stroke="white"/>
<path d="M199.614 376.747C198.884 376.995 198.262 377.856 198.548 378.571C198.826 379.259 199.823 379.513 200.527 379.178C201.259 378.833 201.682 377.848 201.287 377.204C200.956 376.66 200.164 376.559 199.614 376.747Z" fill="#FCC710" stroke="white"/>
<path d="M191.398 382.676C191.218 382.506 190.228 381.563 189.571 381.917C189.007 382.22 189.097 383.261 189.114 383.435C189.133 383.61 189.261 384.813 190.179 385.11C191.005 385.374 192.047 384.771 192.158 384.045C192.243 383.482 191.748 383.011 191.398 382.676Z" fill="#FCC710" stroke="white"/>
<path d="M198.245 389.669C197.404 388.531 195.778 388.725 195.505 388.759C194.44 388.885 193.182 389.539 193.223 390.126C193.24 390.367 193.47 390.531 195.961 391.495C197.818 392.211 198.139 392.295 198.397 392.103C198.92 391.71 198.82 390.45 198.245 389.669Z" fill="#FCC710" stroke="white"/>
<path d="M204.788 388.148C204.309 388.195 203.34 388.287 203.114 388.91C202.892 389.515 203.509 390.249 204.026 390.582C204.621 390.963 205.599 391.143 206.309 390.582C206.841 390.164 207.208 389.343 206.918 388.758C206.534 387.984 205.242 388.106 204.788 388.148Z" fill="#FCC710" stroke="white"/>
<path d="M177.703 363.369C178.053 363.809 175.75 365.884 176.181 366.408C176.516 366.818 178.301 366.048 179.225 365.649C180.589 365.06 180.877 364.721 181.201 364.888C181.959 365.28 182.04 367.965 180.593 369.144C179.261 370.232 177.291 369.503 176.333 369.144C175.714 368.916 173.188 367.978 173.137 366.408C173.071 364.359 177.293 362.853 177.703 363.369Z" fill="#FCC710" stroke="white"/>
<path d="M210.416 371.122C208.847 368.859 203.921 369.929 203.722 370.97C203.586 371.68 205.744 371.913 206.918 374.163C207.795 375.843 207.336 377.144 207.983 377.355C208.768 377.613 210.282 375.965 210.721 374.163C210.832 373.706 211.191 372.237 210.416 371.122Z" fill="#FCC710" stroke="white"/>
<path d="M214.374 374.011C213.697 374.011 213.044 374.53 213.003 375.227C212.963 375.969 213.635 376.596 214.374 376.596C215.11 376.596 215.784 375.969 215.744 375.227C215.703 374.53 215.05 374.011 214.374 374.011Z" fill="#FCC710" stroke="white"/>
<path d="M216.198 379.94C216.284 379.989 216.856 380.33 217.263 380.091C217.784 379.786 217.9 378.62 217.263 378.114C216.7 377.666 215.695 377.858 215.438 378.419C215.195 378.95 215.701 379.643 216.198 379.94Z" fill="#FCC710" stroke="white"/>
<path d="M212.852 383.436C213.582 383.374 214.13 382.31 213.917 381.461C213.748 380.787 213.065 380.109 212.395 380.243C211.693 380.386 211.355 381.35 211.481 382.069C211.605 382.762 212.211 383.493 212.852 383.436Z" fill="#FCC710" stroke="white"/>
<path d="M225.481 364.585C225.01 364.848 224.376 363.598 222.743 362.913C220.459 361.954 218.126 362.894 217.72 363.065C216.89 363.417 214.602 364.385 214.222 366.562C213.912 368.334 214.958 370.407 216.198 370.665C216.826 370.798 217.682 370.348 219.394 369.45C220.329 368.959 220.796 368.627 221.524 368.691C221.626 368.699 222.45 368.782 223.046 369.45C223.816 370.311 223.793 371.691 223.2 372.642C222.502 373.758 221.044 374.248 220.224 373.935C220.085 373.879 219.966 373.805 219.851 373.858C219.404 374.069 219.477 376.003 220.307 376.443C221.067 376.846 221.93 375.722 222.743 376.14C223.36 376.456 223.541 377.456 223.503 378.115C223.417 379.635 222.137 380.053 222.286 381.307C222.352 381.873 222.706 382.587 223.2 382.677C224.051 382.832 224.502 380.973 226.09 380.092C227.84 379.124 229.872 380.363 230.045 379.94C230.275 379.384 226.604 378.055 226.698 376.291C226.736 375.585 227.368 375.029 228.525 374.012C229.451 373.195 229.915 372.785 230.502 372.794C231.823 372.813 232.237 374.724 233.242 374.619C234.098 374.53 234.963 373.018 234.611 372.035C234.199 370.883 232.333 371.06 232.177 370.209C231.983 369.162 234.749 368.561 234.916 366.714C234.986 365.927 234.583 364.937 233.851 364.585C233.317 364.329 232.711 364.464 232.638 364.481C231.966 364.637 231.652 365.106 231.567 365.042C231.375 364.895 233.605 362.92 233.394 360.785C233.283 359.665 232.619 359.708 231.872 357.439C231.289 355.675 231.473 354.982 231.567 354.703C231.863 353.841 232.376 353.852 232.632 353.031C232.975 351.939 232.572 350.316 231.567 349.99C230.92 349.781 229.996 350.098 229.59 350.751C228.937 351.796 230.164 352.813 229.893 354.854C229.816 355.436 229.661 356.618 228.828 357.287C227.148 358.642 224.506 356.46 223.046 357.744C222.267 358.431 222.085 359.876 222.589 360.631C223.163 361.493 224.339 361.026 225.176 362.001C225.921 362.869 225.934 364.334 225.481 364.585Z" fill="#FCC710" stroke="white"/>
<path d="M225.33 352.118C224.499 351.992 223.526 352.457 223.351 353.182C223.127 354.11 224.237 355.329 225.33 355.159C226.192 355.024 226.935 354.035 226.698 353.182C226.519 352.534 225.838 352.197 225.33 352.118Z" fill="#FCC710" stroke="white"/>
<path d="M280.412 320.42C281.851 320.022 283.001 318.774 282.846 318.141C282.82 318.034 282.733 317.791 282.626 317.351C282.592 317.213 282.562 317.049 282.543 316.848C282.487 316.311 282.57 316.166 282.562 315.671C282.549 314.826 282.263 314.551 282.092 313.639C281.998 313.146 281.93 312.53 281.932 311.679C281.938 309.943 281.941 308.495 282.846 307.117C283.377 306.309 283.81 306.147 283.911 305.445C284.045 304.513 283.403 303.969 282.389 302.252C281.695 301.079 280.636 299.286 281.021 298.908C281.373 298.561 283.142 299.207 284.216 300.58C285.975 302.83 284.715 305.554 286.346 306.509C286.818 306.786 287.488 306.889 288.02 306.661C289.407 306.066 289.159 303.489 289.542 299.973C290.163 294.227 291.603 293.897 291.367 290.395C291.215 288.158 290.342 284.888 288.78 283.248C286.498 280.851 282.82 281.922 277.217 282.033C268.054 282.212 265.661 277.876 262.152 279.981C259.693 281.455 258.756 284.449 257.586 288.19C256.877 290.461 256.271 292.5 257.131 294.575C257.725 296.01 258.589 296.42 258.5 297.311C258.293 299.382 252.564 298.838 252.109 300.732C251.738 302.278 254.85 305.048 257.131 304.609C258.636 304.319 259.473 302.69 260.098 303.014C260.717 303.334 259.945 304.967 260.781 305.75C261.622 306.533 262.984 305.436 264.205 306.206C265.106 306.771 264.677 307.556 265.575 308.942C267.042 311.203 270.139 312.135 270.141 312.135C269.381 311.621 272.111 313.048 272.195 313.958C272.286 314.956 270.267 315.515 270.37 316.24C270.476 317.012 272.536 317.413 274.02 317.379C275.719 317.341 276.414 316.309 276.989 316.695C277.783 317.232 276.696 319.119 277.672 320.115C278.491 320.953 280.118 320.501 280.412 320.42Z" fill="#FCC710" stroke="white"/>
<path d="M244.45 337.422C244.237 337.481 244.137 337.46 243.872 337.543C243.537 337.648 243.287 337.81 243.131 337.929C242.922 338.213 242.585 338.569 242.117 338.639C241.612 338.712 241.394 338.386 240.596 338.232C240.314 338.179 239.276 337.98 238.973 338.435C238.683 338.868 239.215 339.659 239.276 339.753C239.688 340.369 240.314 340.655 240.798 340.868C241.77 341.297 242.26 341.194 242.423 341.578C242.596 341.992 242.126 342.367 242.32 342.794C242.497 343.186 243.14 343.009 243.234 343.301C243.33 343.598 242.803 344.071 242.423 344.314C241.902 344.645 241.567 344.602 241.509 344.822C241.432 345.103 241.904 345.513 242.32 345.732C242.578 345.869 245.577 346.067 244.553 346.037C244.546 346.035 245.964 346.758 246.581 346.34C247.005 346.055 246.715 345.453 247.189 344.009C247.311 343.642 247.531 342.975 247.697 342.996C247.932 343.028 248.105 344.449 247.9 345.835C247.808 346.451 247.667 346.884 247.797 346.95C248.066 347.085 248.781 345.308 249.827 345.327C250.517 345.34 251.349 346.138 251.349 346.138C251.349 346.138 251.957 346.899 252.261 347.658C252.694 348.735 252.288 349.243 252.769 349.686C253.097 349.987 253.665 350.098 253.985 349.889C254.423 349.603 254.263 348.814 254.493 348.774C254.726 348.733 254.837 349.543 255.507 349.889C255.911 350.096 256.478 350.115 256.623 349.889C256.807 349.601 256.141 349.175 255.913 348.166C255.74 347.4 255.885 346.592 256.115 346.543C256.34 346.496 256.468 347.191 257.232 347.761C257.279 347.795 258.122 348.411 258.448 348.166C258.675 347.997 258.427 347.594 258.448 346.645C258.47 345.803 258.687 345.199 258.754 345.024C258.794 344.918 258.888 344.687 259.464 343.807C260.12 342.806 260.453 342.303 260.781 342.084C261.531 341.587 262.498 341.548 262.609 341.781C262.726 342.028 261.795 342.457 261.898 342.996C261.964 343.344 262.335 343.647 263.014 343.909C263.014 343.909 263.785 343.549 264.231 343.807C264.5 343.962 264.568 344.291 264.579 344.34C264.681 344.854 264.231 345.201 264.333 345.327C264.47 345.496 265.462 345.082 266.261 344.314C266.69 343.901 267.189 343.421 267.275 342.693C267.341 342.141 267.138 341.683 266.869 341.071C266.438 340.092 266.026 339.84 266.158 339.45C266.32 338.981 267.085 338.855 267.174 338.842C267.723 338.757 267.919 339.013 268.491 339.045C269.219 339.083 269.371 338.699 270.116 338.537C271.469 338.243 272.175 339.247 272.752 338.842C273.343 338.424 272.656 337.336 273.362 336.511C273.93 335.843 274.653 336.229 275.187 335.496C275.554 334.993 275.627 334.244 275.492 333.672C275.337 333.009 274.944 332.751 275.087 332.457C275.238 332.139 275.742 332.322 276.303 332.049C277.253 331.589 277.834 330.077 277.42 329.213C277.159 328.671 276.662 328.703 276.506 328.098C276.402 327.697 276.487 327.166 276.809 326.882C277.159 326.577 277.475 326.827 277.825 326.577C277.985 326.462 278.212 326.202 278.231 324.349C278.244 323.171 278.154 322.981 278.331 322.523C278.528 322.015 278.997 321.307 279.55 321.307C280.017 321.305 280.094 321.817 280.664 321.915C281.26 322.018 282.101 321.625 282.186 321.002C282.259 320.474 281.761 319.94 281.273 319.787C280.739 319.618 280.427 319.974 280.158 319.787C279.761 319.51 280.269 318.616 280.158 317.456C280.077 316.62 279.64 315.257 278.737 314.922C277.576 314.489 276.636 316.138 275.29 315.733C274.212 315.409 273.851 314.067 273.462 314.212C273.127 314.34 273.507 315.308 272.954 316.443C272.816 316.731 272.453 317.477 271.738 317.759C270.948 318.072 270.429 317.535 268.491 317.051C268.37 317.019 266.113 316.464 265.955 316.848C265.836 317.14 267.129 317.52 267.275 318.469C267.398 319.275 266.542 319.52 265.855 321.105C265.304 322.372 265.61 322.775 265.044 323.333C264.412 323.956 263.915 323.574 262.709 324.144C261.283 324.82 261.424 325.613 260.276 325.969C258.937 326.383 258.222 325.468 257.537 325.969C256.741 326.552 257.597 327.861 256.726 329.516C256.602 329.753 255.992 330.851 254.798 331.341C253.943 331.691 252.909 331.574 250.841 331.341C249.699 331.211 248.841 331.045 248.406 331.544C248.122 331.87 248.248 332.22 247.9 332.457C247.458 332.755 247.042 332.337 246.378 332.557C245.949 332.698 245.477 333.086 245.364 333.57C245.447 333.647 246.406 334.56 246.175 335.598C246.062 336.099 245.712 336.46 245.413 336.763C245.165 337.016 244.89 337.3 244.45 337.422Z" fill="#FCC710" stroke="white"/>
<path d="M263.825 348.368C264.186 347.588 263.321 346.622 262.709 345.935C262.181 345.344 261.767 344.879 261.086 344.822C260.408 344.762 259.569 345.118 259.464 345.632C259.37 346.086 259.936 346.27 260.986 347.558C261.801 348.558 261.893 348.982 262.406 349.078C262.943 349.179 263.601 348.855 263.825 348.368Z" fill="#FCC710" stroke="white"/>
<path d="M243.498 348.626C242.632 347.428 240.745 346.918 240 347.562C239.842 347.697 239.537 348.055 240.151 351.363C240.608 353.822 240.847 355.054 241.368 355.163C242.194 355.338 243.415 353.48 243.804 351.819C243.983 351.053 244.292 349.723 243.498 348.626Z" fill="#FCC710" stroke="white"/>
<path d="M85.7211 181.009C84.9377 181.564 83.6378 181.939 83.2088 181.466C82.6752 180.873 84.133 179.661 84.3507 177.36C84.5514 175.242 83.4436 174.933 83.2088 172.342C82.9249 169.214 84.3315 167.339 83.6656 166.87C82.8993 166.328 80.3336 169.211 80.0135 168.921C79.736 168.67 81.9281 166.78 81.6122 164.59C81.4329 163.351 80.4532 162.02 79.3304 161.852C78.0903 161.666 77.5823 163.029 76.3635 162.764C76.3614 162.764 75.9238 162.671 74.0796 160.713C73.9963 161.387 73.7317 162.715 72.7114 163.905C71.832 164.929 69.849 166.484 68.6025 165.729C67.7636 165.223 68.8885 163.694 67.9173 161.852C67.4114 160.894 66.9034 160.875 65.8639 159.572C64.7796 158.213 65.183 157.608 64.2652 156.836C63.5907 156.268 63.1318 156.294 62.4786 155.505C62.1627 155.125 62.1136 154.931 61.6398 154.402C61.2321 153.948 60.9247 153.611 60.4231 153.415C60.0069 153.251 59.2876 153.119 59.0912 153.415C58.8735 153.743 59.4092 154.436 59.4733 154.518C59.8959 155.066 60.2737 155.072 60.6899 155.505C61.0464 155.876 61.1446 156.328 61.3367 156.987C61.5352 157.672 61.484 157.9 61.755 158.279C61.8319 158.386 62.0752 158.721 62.5149 158.926C63.0699 159.184 63.3431 158.964 63.6569 159.231C63.9151 159.45 63.9514 159.787 63.9984 160.218C64.0518 160.689 64.1072 161.216 63.77 161.51C63.5011 161.747 63.0443 161.777 62.7049 161.626C62.2268 161.41 62.2929 160.971 61.6398 160.18C61.2961 159.762 61.0741 159.501 60.6899 159.42C60.2822 159.333 59.8255 159.472 59.5096 159.762C59.3409 159.919 59.1595 160.086 59.168 160.295C59.1851 160.762 60.1179 160.796 61.0699 161.587C61.4327 161.888 61.3004 161.886 62.2502 163.031C63.3089 164.311 63.3879 164.21 63.6569 164.703C63.7486 164.871 64.3036 165.923 64.1136 167.249C64.0368 167.78 63.7807 168.787 63.3901 168.808C63.0165 168.828 62.6793 167.932 62.3634 167.098C61.7401 165.449 61.8746 164.752 61.1851 164.208C61.1104 164.151 60.4935 163.667 60.0432 163.867C59.4263 164.142 59.6632 165.469 59.5864 167.554C59.501 169.892 59.422 172.058 58.0645 173.142C57.4455 173.637 56.4402 173.999 55.8596 173.634C55.2641 173.261 55.6952 172.489 55.4028 169.568C55.2875 168.422 55.1381 167.729 55.5928 167.136C55.9471 166.674 56.2843 166.774 56.6963 166.262C57.215 165.616 57.4476 164.5 56.961 163.829C56.5597 163.274 55.7806 163.178 55.2128 163.108C54.1456 162.973 53.6141 163.321 53.2726 162.954C53.0207 162.688 53.0122 162.187 53.1957 161.89C53.311 161.705 53.5394 161.602 53.994 161.397C54.4892 161.173 54.5682 161.214 54.756 161.054C54.7859 161.028 55.1765 160.687 55.1744 160.218C55.1723 159.994 55.0826 159.774 54.5277 159.192C54.0709 158.715 53.723 158.433 53.2726 158.051C52.1861 157.132 52.2886 157.132 52.0175 156.987C51.343 156.627 50.2608 156.381 49.9236 156.797C49.6674 157.115 49.8723 157.783 50.152 158.697C50.3291 159.278 50.4593 159.47 50.3419 159.649C50.1285 159.977 49.2491 159.994 48.7453 159.572C48.2224 159.135 48.4678 158.529 47.9833 158.241C47.5628 157.992 46.899 158.169 46.4998 158.546C46.2373 158.798 45.915 159.305 46.0815 159.687C46.2522 160.075 46.8542 160.169 47.9086 160.333C48.7411 160.461 49.0164 160.404 49.3537 160.674C49.6781 160.932 49.9684 161.419 49.8104 161.739C49.6525 162.056 49.1146 162.076 48.9737 162.08C48.4849 162.097 48.3654 161.879 47.7186 161.777C47.3195 161.715 46.8755 161.645 46.6535 161.89C46.4251 162.144 46.5532 162.592 46.6151 162.803C46.6578 162.954 46.8243 163.453 47.3003 163.754C47.6076 163.948 47.8488 163.933 48.7837 163.944C50.0111 163.957 50.5063 163.991 50.7987 164.018C51.6632 164.099 52.1007 164.144 52.3206 164.4C52.613 164.735 52.4423 165.1 52.359 166.3C52.2352 168.083 52.5191 168.595 52.0922 168.96C51.7613 169.243 51.5116 169.002 50.5703 169.339C50.0111 169.542 49.454 169.74 49.3921 170.101C49.2982 170.655 50.4849 170.992 50.4572 171.734C50.4444 172.046 50.2267 172.253 49.8104 172.647C49.4518 172.984 48.7645 173.637 47.8702 173.596C47.4668 173.579 47.1743 173.428 46.6151 173.142C45.7634 172.703 45.5436 172.331 45.17 172.419C44.8392 172.496 44.5596 172.886 44.5233 173.255C44.4678 173.805 44.9801 174.315 46.0068 175.306C46.4764 175.761 46.5297 175.759 46.6919 175.991C46.7795 176.119 47.5351 177.209 47.0335 178.045C46.8755 178.305 46.5361 178.64 46.1199 178.653C45.4753 178.672 44.867 177.913 44.4849 177.435C44.2202 177.106 44.1263 176.908 43.8381 176.789C43.5564 176.674 43.1295 176.65 42.8114 176.865C42.3013 177.211 42.4443 177.921 42.0878 178.006C41.8552 178.062 41.6076 177.802 41.4411 177.627C41.2469 177.422 40.8584 176.904 41.0227 176.599C41.2255 176.226 42.0259 176.603 42.3931 176.181C42.6087 175.931 42.4507 175.658 42.3547 174.66C42.3547 174.66 42.2607 173.684 42.4294 172.342C42.5147 171.677 42.6023 171.478 42.773 171.355C43.0462 171.156 43.3066 171.316 43.915 171.165C44.2842 171.071 44.5703 171.001 44.7517 170.785C45.106 170.359 44.8627 169.604 44.4849 168.429C44.3653 168.058 44.3248 168.002 43.9897 167.021C43.8061 166.486 43.7143 166.219 43.6866 166.111C43.4731 165.319 43.6353 164.901 43.6866 163.867C43.7506 162.528 43.7912 161.696 43.2682 161.208C42.8947 160.858 42.2522 160.7 41.8979 160.941C41.6567 161.105 41.6033 161.417 41.5564 161.852C41.3984 163.3 41.4795 164.172 41.4795 164.172C41.5265 164.671 41.4496 164.055 41.5179 167.554C41.5243 167.864 41.5435 168.902 41.2127 170.101C41.1017 170.506 40.9694 170.858 40.6428 171.05C40.265 171.276 39.8146 171.176 39.4261 171.088C38.9694 170.988 38.5382 170.892 38.2458 170.557C37.6993 169.932 38.3077 169.248 37.7506 168.124C37.4432 167.503 37.044 167.277 36.9138 167.211C36.7196 167.113 36.3738 166.936 36.0771 167.06C35.5777 167.269 35.8765 168.064 35.3172 168.921C34.8711 169.606 34.4442 169.465 33.9469 170.252C33.7313 170.598 33.3428 171.365 33.6054 171.658C33.8722 171.956 34.5467 171.461 35.5072 171.811C35.6267 171.854 36.0451 172.005 36.0387 172.191C36.0323 172.444 35.234 172.408 34.6705 173.027C34.5979 173.106 34.3525 173.391 34.2521 173.824C34.1027 174.468 34.3226 175.228 34.822 175.65C35.2511 176.01 35.5456 175.833 35.9256 176.219C36.2372 176.537 36.4955 177.117 36.3055 177.512C35.9725 178.207 34.3546 178.081 33.8722 178.045C33.1465 177.987 32.9586 177.834 32.2735 177.891C31.9255 177.921 31.4367 177.968 30.9031 178.271C30.743 178.365 30.1603 178.719 29.8017 179.412C29.5477 179.902 29.5861 180.214 29.5349 181.312C29.4559 183.01 29.2958 183.679 29.4965 184.961C29.6032 185.648 29.7227 185.923 29.9533 186.025C30.3546 186.206 31.0653 185.848 31.2468 185.341C31.4709 184.707 30.7089 184.293 30.8668 183.402C30.8775 183.334 30.9949 182.724 31.4752 182.415C32.0131 182.069 32.6812 182.312 33.9469 182.794C35.2404 183.287 35.8871 183.534 36.154 184.087C36.4805 184.765 36.3952 185.782 35.8487 186.215C35.2852 186.665 34.6833 186.132 33.187 186.405C32.504 186.531 31.7783 186.663 31.5136 187.166C31.0803 187.985 31.9447 189.625 33.187 190.092C34.5253 190.595 36.1369 189.672 36.9907 188.761C38.2479 187.424 37.9661 186.019 39.3109 185.379C39.7378 185.176 40.4848 184.976 40.8328 185.304C41.3152 185.759 40.4742 186.718 40.6044 188.458C40.6471 189.039 40.8861 189.706 41.3643 191.043C42.0494 192.952 42.2373 192.867 42.2394 193.474C42.2458 194.447 41.7655 194.709 41.5564 196.4C41.4197 197.497 41.582 197.693 41.6695 197.77C42.1348 198.179 43.4198 197.761 43.9513 196.934C44.3611 196.296 44.2373 195.552 44.1796 195.185C44.1476 194.976 43.5222 190.73 44.408 187.469C44.5468 186.959 44.9353 185.692 46.0452 184.733C46.4315 184.398 46.8264 184.057 47.2618 184.125C48.1733 184.27 48.7709 186.138 48.8584 187.659C49.0015 190.09 47.8189 191.265 48.4017 193.474C48.534 193.971 48.7218 194.398 49.074 194.513C49.6952 194.718 50.4871 193.852 50.9012 193.4C51.8531 192.357 52.2736 191.278 52.4231 190.864C52.946 189.405 52.6984 188.981 53.2342 186.507C53.6333 184.656 53.9001 184.306 54.1477 184.074C54.9844 183.291 56.5085 183.037 57.2918 183.669C57.7337 184.025 57.7379 184.5 57.7977 187.115C58.0304 196.951 57.9877 190.964 58.0026 192.182C58.0175 193.705 57.9855 194.093 58.3057 194.615C58.961 195.684 60.0731 195.66 60.3356 196.641C60.4871 197.215 60.3185 198.011 59.8276 198.365C59.0421 198.934 58.0965 197.902 56.581 198.365C56.3377 198.439 55.5287 198.689 55.1616 199.38C54.7838 200.092 55.1146 200.826 55.4647 202.013C55.7977 203.14 55.3772 202.058 56.2779 206.17C56.961 209.292 57.104 209.461 56.9866 210.224C56.8094 211.378 56.3398 211.909 56.6835 212.555C57.0528 213.25 58.0645 213.513 58.8137 213.466C59.7486 213.408 60.3954 212.858 61.5523 211.845C63.0571 210.527 63.1851 209.936 64.088 209.717C65.055 209.482 66.2588 209.834 66.421 210.427C66.6025 211.084 65.4627 211.913 65.0016 212.25C62.5213 214.059 60.6216 213.182 58.914 214.886C58.7134 215.087 57.6184 216.178 57.9001 217.115C58.199 218.109 59.9108 218.505 61.3495 218.838C63.3772 219.309 64.2823 219.062 64.6964 219.751C65.0571 220.35 64.8031 221.252 64.3933 221.777C64.2118 222.007 63.8981 222.297 62.4658 222.689C60.4573 223.24 59.9471 222.977 59.422 223.5C58.6878 224.231 58.66 225.756 59.2193 226.136C59.8511 226.567 60.8009 225.236 62.5661 225.426C63.3644 225.513 64.3271 225.91 64.3933 226.441C64.4488 226.891 63.8084 227.1 63.0742 227.859C62.1691 228.793 62.4466 229.192 61.247 231.608C60.3954 233.327 59.9749 233.687 60.1328 234.447C60.2652 235.091 60.7625 235.78 61.4498 236.067C62.6174 236.56 63.5331 235.562 64.4936 236.17C64.8821 236.415 65.1595 236.846 65.2044 237.285C65.2983 238.204 64.342 238.872 64.2908 238.906C63.4178 239.497 62.8628 238.912 61.4498 239.211C59.9621 239.522 58.9461 240.514 58.3057 241.137C57.454 241.964 56.7561 242.457 56.8863 242.96C57.0314 243.532 58.0859 243.715 58.4082 243.771C61.136 244.248 62.4914 242.139 64.3933 242.758C65.2556 243.039 65.7252 243.719 66.3207 244.583C67.4925 246.285 67.1937 247.522 67.8405 249.548C67.8405 249.548 68.6558 252.101 70.5812 254.007C72.7199 256.129 75.5887 256.562 77.4777 256.746C88.0925 257.765 97.9837 253.698 105.881 255.833C115.425 258.411 113.755 267.801 123.126 272.455C137.049 279.366 162.471 269.43 167.052 254.312C170.766 242.045 160.736 226.449 155.384 218.13C150.217 210.092 144.994 205.279 144.43 196.136C144.17 191.918 145.041 189.058 143.517 183.771C141.995 178.491 139.28 174.944 136.415 171.203C128.381 160.706 126.215 159.815 125.053 159.749C122.592 159.61 122.255 161.092 118.765 161.169C114.039 161.272 113.414 158.576 109.736 158.938C108.14 159.096 108.59 159.572 100.201 164.311C98.7991 165.104 97.8621 165.612 96.4469 166.539C93.4031 168.54 93.5952 168.906 91.8834 169.783C88.8054 171.359 86.6795 170.943 86.3038 172.216C86.0797 172.975 86.8161 173.187 87.2174 175.155C87.3518 175.823 87.6208 177.228 87.1149 178.804C86.9015 179.467 86.6091 180.378 85.7211 181.009Z" fill="#FCC710" stroke="white"/>
<path d="M47.4518 197.757C45.9043 198.184 45.1295 198.397 44.6108 198.973C44.4806 199.118 43.8937 199.8 43.7997 200.798C43.7336 201.487 43.9577 201.756 44.4081 203.23C44.8136 204.558 45.0164 205.222 45.0164 205.765C45.0185 207.312 44.1818 208.113 44.6108 208.602C44.9524 208.99 45.582 208.6 46.1327 209.109C46.4401 209.393 46.6642 209.903 46.5383 210.325C46.3803 210.858 45.8104 210.777 45.3216 211.44C45.2683 211.511 44.6087 212.432 45.0164 213.061C45.3387 213.558 46.1904 213.671 46.6407 213.366C47.1061 213.05 46.931 212.426 47.3494 212.251C47.7059 212.104 48.2267 212.387 48.4657 212.758C48.8265 213.319 48.5618 214.113 48.1626 214.481C47.9535 214.673 47.6482 214.842 47.2491 214.987C47.2918 215.787 47.4753 216.04 47.6546 216.102C48.1093 216.258 48.5426 215.192 49.3793 215.189C49.9834 215.189 50.5853 215.742 50.7987 216.305C51.0698 217.024 50.6045 217.476 50.9012 217.825C51.2555 218.246 52.3633 218.111 53.0314 217.52C53.565 217.051 53.9194 216.198 53.6397 215.595C53.3537 214.981 52.6878 215.243 52.0175 214.582C50.9631 213.55 51.104 211.44 51.104 211.44C50.7326 211.432 49.2619 211.372 48.9737 210.63C48.8884 210.41 49.0186 209.909 49.2768 208.907C49.3878 208.482 49.5821 207.791 49.5821 207.791C49.1701 207.533 48.6493 207.194 48.0602 206.778C47.2448 206.203 47.0122 205.983 47.0463 205.765C47.0826 205.539 47.3707 205.507 47.9599 205.155C48.4871 204.842 48.9417 204.569 49.1765 204.142C49.4946 203.56 49.4113 202.675 48.9737 202.116C48.3868 201.368 47.5479 201.694 47.1466 201.001C46.82 200.432 46.9801 199.517 47.4518 199.176C47.9257 198.834 48.4721 199.248 48.8713 198.873C49.1936 198.57 49.2406 197.928 48.9737 197.657C48.8201 197.501 48.5532 197.454 47.4518 197.757Z" fill="#FCC710" stroke="white"/>
<path d="M42.8117 346.569C43.2001 347.202 43.5523 347.07 44.5257 348.049C45.0145 348.543 45.3496 349.006 45.5502 349.307C45.5502 349.307 46.9334 351.297 46.5043 352.197C46.4851 352.235 46.4638 352.271 46.4638 352.271C46.3378 352.467 46.1415 352.551 46.0561 352.587C45.7039 352.73 45.0785 352.928 44.1799 353.182C42.69 353.346 41.4392 354.225 40.9845 355.464C40.2289 357.524 41.9258 359.93 43.2684 360.023C43.8405 360.064 43.9878 359.657 46.4638 357.287C47.452 356.34 48.5172 355.353 49.6591 354.323C50.2674 355.31 50.8758 356.3 51.4841 357.287C51.1383 357.835 50.658 358.614 50.1138 359.567C49.3389 360.932 48.9462 361.629 48.7455 362.305C48.5726 362.888 48.197 364.195 48.5171 365.726C48.7882 367.029 49.3069 367.262 49.2023 368.006C49.1169 368.612 48.6324 369.45 46.6922 370.286C46.0433 370.744 45.7444 371.422 45.9301 371.883C46.197 372.54 47.356 372.499 47.6036 372.491C48.3421 372.465 48.5513 372.177 49.7338 371.729C50.9825 371.258 51.6079 371.021 52.1693 371.273C53.117 371.702 53.228 373.143 53.2344 373.25C53.2941 374.216 52.8032 374.911 52.4724 375.378C52.1415 375.848 51.8128 376.315 51.2557 376.443C50.8267 376.543 50.5833 376.366 49.5823 375.986C48.3016 375.502 47.6505 375.261 47.1468 375.378C46.2866 375.581 45.8127 376.417 45.627 376.748C45.213 377.477 44.8864 378.693 45.3218 379.027C45.7466 379.354 46.6409 377.654 47.9088 377.812C48.5236 377.888 48.562 378.304 49.4307 378.571C49.9814 378.742 50.1564 378.633 51.5609 378.571C51.5609 378.571 51.7957 378.562 54.7563 378.571C55.9985 379.213 56.6602 379.966 57.038 380.548C57.4991 381.26 57.4265 381.552 57.9516 382.22C58.7029 383.18 59.1875 383.005 60.0818 383.892C61.0936 384.896 60.6346 385.278 61.7553 386.477C62.671 387.458 63.7339 388.149 63.7339 388.149C63.7958 388.324 64.2654 389.686 63.7339 390.126C63.2131 390.556 61.926 389.942 61.1469 389.213C60.0242 388.166 60.005 386.937 59.4735 386.933C58.8673 386.929 58.8502 388.515 57.7979 388.91C57.1277 389.162 56.4382 388.773 55.0594 387.997C53.5225 387.133 52.7541 386.701 52.3208 385.869C51.5929 384.472 52.3806 383.384 51.5609 382.676C51.0124 382.203 50.2077 382.299 49.5823 382.371C49.1255 382.427 47.8042 382.582 46.9953 383.74C46.6046 384.299 46.0454 385.506 46.5385 386.325C47.2087 387.434 48.9931 386.479 50.9526 387.846C51.1255 387.965 52.3592 388.852 52.7776 390.431C52.895 390.87 53.1789 391.945 52.626 392.559C52.4531 392.751 52.0497 393.06 50.1906 392.862C47.9963 392.629 46.5961 392.48 45.4734 391.341C44.7669 390.625 44.4872 389.838 44.1052 388.759C43.9963 388.449 43.6185 387.342 43.4947 385.717C43.309 383.237 43.9621 382.862 43.4947 381.461C43.3666 381.075 43.2599 380.93 41.6697 378.876C39.6804 376.306 39.3538 375.892 39.0827 375.986C38.5896 376.159 39.2022 377.709 38.6259 380.243C38.231 381.979 37.7721 382.005 37.7145 383.284C37.6931 383.711 37.6633 385.498 38.7796 387.084C39.6462 388.319 40.5662 388.52 40.6046 389.518C40.6089 389.62 40.5064 390.179 40.2994 391.19C40.0368 391.271 39.6697 391.371 39.2257 391.458C38.5683 391.606 38.5085 391.576 38.4744 391.646C38.3057 391.981 39.4135 393.143 40.7561 393.623C42.1329 394.114 43.0166 393.032 43.7999 393.623C44.2738 393.979 44.0027 394.361 44.5598 394.99C45.0892 395.587 45.7914 395.758 46.9953 396.054C47.6783 396.223 48.1564 396.34 48.8224 396.359C49.9558 396.391 50.8096 396.11 52.3208 395.598C53.5503 395.182 53.625 395.048 54.451 394.839C55.5097 394.57 56.419 394.527 57.038 394.534C57.6442 394.335 58.2974 394.61 58.5599 395.144C58.7755 395.581 57.9921 395.909 57.9516 396.816C57.9153 397.594 58.402 398.473 58.4084 398.488C58.3145 399.846 57.8876 400.384 57.4948 400.616C57.07 400.868 56.6965 400.757 54.9078 400.616C53.0017 400.467 52.6794 400.535 52.4724 400.767C51.9814 401.322 52.4275 402.48 52.4724 402.593C52.7861 403.374 53.1917 403.318 53.3859 403.96C53.5823 404.606 53.2258 404.843 53.0828 406.242C52.9868 407.157 52.9355 407.664 53.2344 407.914C53.6762 408.283 54.2888 407.579 55.213 407.914C55.213 407.914 55.4116 407.986 56.5813 408.978C57.1853 410.501 57.1277 411.07 56.8865 411.258C56.5386 411.529 55.9174 410.936 55.213 411.258C54.7221 411.482 54.498 412.006 54.2995 412.473C54.2483 412.591 54.0732 413.019 53.9943 413.994C53.8961 415.22 53.8448 415.835 54.1479 416.122C54.688 416.639 55.5524 415.805 56.5813 416.274C57.64 416.76 57.9089 418.183 57.9516 418.404C58.1458 419.439 57.7936 420.328 57.6464 420.684C57.2451 421.659 56.7541 421.883 56.8865 422.205C57.0978 422.721 58.6624 422.868 59.7766 422.205C60.5087 421.768 60.3956 421.371 61.2985 420.379C62.5792 418.974 63.2216 419.317 63.8855 418.251C64.4234 417.385 64.0199 417.131 64.6454 415.21C64.9591 414.25 65.1747 413.593 65.7105 412.93C66.402 412.079 66.8417 412.183 68.1459 411.258C68.7607 410.823 70.1118 409.846 71.036 408.217C71.5056 407.394 71.2986 406.79 71.9496 405.632C72.4384 404.762 72.8012 404.525 73.0147 404.416C73.781 404.026 74.2655 404.455 74.6881 404.114C75.2346 403.674 74.718 402.736 74.8418 401.072C74.9016 400.253 75.0296 400.416 75.6017 398.183C76.0499 396.432 76.2741 395.555 76.3637 394.687C76.543 392.926 76.2677 392.243 76.8184 391.798C77.1876 391.501 77.7234 391.499 78.797 391.495C79.6636 391.49 80.0948 391.488 80.3189 391.646C81.1642 392.243 80.257 394.244 79.8621 397.575C79.6103 399.708 79.4182 401.505 80.1674 403.504C80.4427 404.244 81.0126 405.449 82.1439 406.545C83.6316 407.986 86.2165 409.364 87.4695 408.522C87.9497 408.2 87.732 407.89 88.5346 406.545C89.3606 405.161 89.7747 405.18 90.3617 404.114C91.1152 402.742 90.5879 402.429 91.2753 400.919C91.8644 399.626 92.2763 399.799 93.4055 398.031C94.0843 396.967 94.6862 396.022 94.9274 394.687C95.2091 393.113 94.6798 392.712 95.0789 391.798C95.5528 390.712 96.5432 390.731 98.5774 389.669C100.422 388.71 99.7001 388.646 104.36 385.11C105.29 384.404 105.956 383.922 106.338 382.981C106.831 381.77 106.445 380.8 106.947 380.548C107.482 380.279 108.458 381.109 109.231 381.763C110.46 382.811 110.573 383.372 111.207 383.435C112.253 383.542 113.184 382.147 113.337 381.917C114.031 380.876 113.762 380.326 114.402 378.42C114.887 376.98 115.224 375.976 115.924 375.835C116.733 375.673 117.854 376.696 118.206 377.812C118.644 379.189 117.705 380.062 118.36 381.004C118.797 381.636 119.643 381.855 119.882 381.917C120.761 382.143 121.088 381.802 121.707 382.068C122.582 382.444 122.874 383.536 122.923 383.74C123.226 384.975 122.616 386.353 121.555 387.084C120.669 387.697 119.218 388.038 118.36 387.389C117.179 386.496 118.125 384.485 116.989 383.74C116.193 383.218 114.742 383.559 114.251 384.348C113.796 385.078 114.247 386.112 115.164 388.149C116.219 390.49 116.825 390.919 116.686 391.951C116.496 393.352 115.154 394.197 114.859 394.382C112.842 395.651 109.818 395.206 109.382 394.079C109.004 393.105 110.829 392.312 111.056 389.823C111.128 389.029 111.079 387.626 110.447 387.389C109.871 387.172 108.955 387.982 108.469 388.759C107.83 389.778 108.191 390.332 107.709 392.71C107.41 394.175 107.25 394.92 106.644 395.447C105.986 396.016 105.438 395.865 104.968 396.511C104.539 397.106 104.4 398.068 104.816 398.639C105.35 399.371 106.609 399.213 107.555 399.095C109.147 398.897 109.579 398.362 111.815 397.726C113.233 397.325 113.952 397.131 114.556 397.423C115.15 397.711 115.517 398.481 116.23 400.008C117.083 401.838 116.93 402.019 117.446 402.593C118.356 403.6 119.017 403.243 119.728 404.265C120.268 405.039 120.407 405.986 120.49 406.545C120.582 407.174 120.642 408.217 120.642 408.217C121.788 408.993 122.255 408.982 122.467 408.825C123.346 408.178 121.054 404.199 122.012 403.504C122.343 403.265 122.712 403.676 124.294 403.809C125.391 403.9 125.937 403.945 126.424 403.657C127.103 403.252 126.917 402.702 127.946 401.224C128.447 400.503 128.548 400.552 128.859 400.008C129.158 399.481 129.865 398.24 129.468 397.575C129.039 396.86 127.743 397.487 124.902 396.967C123.186 396.654 122.56 396.223 122.163 395.751C122.059 395.628 121.233 394.645 121.555 393.926C121.973 392.988 123.781 393.785 125.664 392.559C126.815 391.808 126.998 390.949 127.641 391.038C128.371 391.139 128.315 392.267 129.468 393.318C130.354 394.126 131.357 394.348 132.206 394.534C133.476 394.815 135.203 395.193 136.01 394.231C136.659 393.457 136.695 392.002 136.01 391.19C134.979 389.966 132.949 390.947 132.206 389.823C131.628 388.944 132.648 388.027 132.055 386.782C131.722 386.088 131.227 385.997 129.771 385.11C127.613 383.79 126.533 383.131 126.119 382.068C125.48 380.426 126.371 378.388 126.424 378.268C126.844 377.33 127.369 376.905 127.184 376.596C126.864 376.054 125.16 377.163 123.534 376.443C122.392 375.937 121.583 374.662 121.858 374.163C122.172 373.598 123.914 373.958 124.902 374.163C127.101 374.619 127.845 375.357 128.554 374.922C129.15 374.559 129.472 373.521 129.162 372.794C128.582 371.427 126.17 372.103 125.207 370.514C124.714 369.703 124.746 368.541 125.207 368.234C125.734 367.88 126.599 368.793 128.403 369.45C130.46 370.2 131.301 370.113 131.598 370.057C131.888 370.004 132.755 369.84 133.423 369.145C133.811 368.742 133.871 368.43 134.488 366.562C135.043 364.884 135.184 364.56 135.553 364.28C136.025 363.924 136.849 363.655 137.38 363.977C137.833 364.25 138.004 364.911 137.835 368.08C137.656 371.503 137.395 371.919 137.835 372.642C138.578 373.86 139.713 373.34 141.184 374.922C141.579 375.349 142.706 376.562 142.552 377.963C142.448 378.938 141.822 379.074 140.879 380.699C140.349 381.614 139.773 382.606 139.662 383.892C139.521 385.523 140.125 387.626 141.487 388.302C142.031 388.571 142.202 388.366 143.009 388.759C144.07 389.27 144.213 389.833 144.988 389.974C145.511 390.068 146.238 389.955 146.661 389.518C147.244 388.914 146.853 388.097 146.661 385.869C146.428 383.177 146.926 383.542 146.661 381.156C146.559 380.222 146.42 379.605 146.813 379.179C147.265 378.693 148.112 378.784 148.943 378.876C150.076 379 150.411 379.3 151.987 379.635C153.005 379.853 153.521 379.957 153.814 379.789C154.537 379.366 154.149 378.345 154.879 376.291C155.086 375.705 155.355 374.965 155.944 374.163C156.746 373.064 157.227 373.105 157.617 372.339C158.106 371.375 158.059 369.923 157.312 368.993C156.179 367.579 153.683 367.694 152.292 368.537C151.461 369.04 151.365 369.597 150.162 370.209C149.737 370.426 148.943 370.832 148.031 370.819C146.785 370.8 145.922 370.011 144.682 368.842C143.668 367.884 142.213 366.479 141.335 364.129C140.872 362.885 140.415 361.604 141.032 360.48C141.414 359.78 142.226 359.115 142.857 359.264C143.647 359.45 144.217 360.923 144.228 360.936C144.36 361.378 144.757 362.48 145.747 362.913C146.828 363.382 147.959 362.774 149.4 362C150.99 361.145 151.965 360.623 152.292 359.567C152.676 358.324 151.771 357.596 152.292 355.918C152.437 355.451 152.674 354.683 153.203 354.551C154.326 354.272 156.081 357.008 155.944 357.136C155.852 357.221 154.766 356.268 154.879 356.072C155.013 355.837 156.627 357.085 157.769 356.528C158.64 356.101 159.043 354.72 158.834 353.638C158.599 352.421 157.713 352.265 156.855 350.902C155.794 349.215 156.469 348.371 155.79 346.645C155.018 344.675 153.575 344.338 150.77 342.084C149.128 340.766 150.266 341.482 146.053 337.371C144.917 336.264 144.181 335.564 143.771 334.331C143.414 333.261 143.557 332.546 143.617 330.834C143.643 330.141 143.583 328.699 143.466 325.818C143.44 325.163 143.267 320.924 142.706 318.823C141.726 315.155 138.132 312.662 133.423 310.463C118.298 303.393 98.6947 302.623 96.6008 302.557C88.0842 302.282 75.0339 301.86 67.8407 305.901C65.8556 307.017 63.6678 308.838 59.9281 309.245C56.7157 309.597 54.0796 308.714 51.7125 310.538C51.2429 310.9 50.2995 311.647 50.1138 312.82C49.8875 314.257 50.8779 315.865 51.102 316.23C51.1532 316.313 51.1895 316.366 51.2557 316.466C52.5513 318.428 53.4243 318.774 53.3112 319.205C53.1767 319.704 51.7829 320.021 50.5705 319.661C48.912 319.166 48.5449 317.688 47.832 317.836C47.0806 317.991 46.9291 319.751 46.4638 322.397C45.8063 326.11 45.9942 326.667 45.3218 327.641C44.3357 329.072 43.2834 329.028 43.04 330.149C42.8479 331.03 43.3602 331.664 44.865 333.798C48.1564 338.471 47.8042 338.43 49.2023 339.955C51.0102 341.93 51.4222 341.804 51.9409 342.92C53.2707 345.782 51.975 349.625 50.7989 349.761C50.0348 349.851 49.7722 348.322 47.832 346.569C45.9494 344.867 44.579 345.472 43.9515 344.289C42.9077 342.314 45.4542 339.234 44.865 338.816C44.3784 338.471 42.8906 340.736 41.2129 340.412C39.9173 340.162 39.7721 338.612 38.7028 338.588C37.4989 338.561 36.0965 340.486 36.421 341.781C36.4423 341.87 36.4701 341.945 36.5064 342.013C36.5875 342.169 37.2385 343.749 38.246 343.832C38.7262 343.873 38.8863 343.54 39.1595 343.681C39.5438 343.879 39.6313 344.747 39.3879 345.43C39.1105 346.2 38.5704 346.281 38.5512 346.874C38.5363 347.296 38.7967 347.722 39.1595 347.938C39.6441 348.226 40.3378 348.147 40.6814 347.786C41.0336 347.413 40.818 346.948 40.833 345.202C40.8458 343.805 40.9867 343.587 41.1382 343.53C41.4797 343.393 42.0198 344.024 42.0496 344.061C42.7711 344.92 42.2311 345.624 42.8117 346.569Z" fill="#FCC710" stroke="#FDFEFF"/>
<path d="M40.756 295.716C40.2949 296.288 39.3024 297.147 38.7026 296.855C38.0473 296.537 37.9107 294.876 38.7026 293.891C39.439 292.974 40.9587 292.671 41.4411 293.208C41.9193 293.739 41.3173 295.021 40.756 295.716Z" fill="#FCC710" stroke="#FDFEFF"/>
<path d="M28.4315 338.817C28.6961 339.209 26.4891 340.25 26.1497 342.694C25.9298 344.278 26.7004 344.989 26.1497 345.886C25.4709 346.991 23.3236 347.492 22.2692 346.569C21.0717 345.524 21.9319 343.214 22.0408 342.92C23.3258 339.469 28.0665 338.273 28.4315 338.817Z" fill="#FCC710" stroke="#FDFEFF"/>
<path d="M30.9417 341.781C29.4091 343.619 29.3195 344.506 29.5735 344.973C29.8168 345.426 30.3141 345.364 32.0836 346.112C33.3985 346.671 34.0602 346.961 34.3654 347.481C34.8905 348.379 34.3056 349.128 34.8222 349.761C35.3558 350.418 36.5554 350.71 37.104 350.218C37.6312 349.748 37.4497 348.661 37.0677 348.015C36.645 347.3 36.1349 347.377 35.5074 346.456C35.3217 346.183 35.0356 345.762 34.9374 345.163C34.7923 344.291 35.2171 344.056 35.1274 343.186C35.1061 342.979 35.0122 342.079 34.327 341.553C33.5329 340.941 32.4358 341.216 32.0068 341.324C31.5287 341.446 31.1658 341.64 30.9417 341.781Z" fill="#FCC710" stroke="#FDFEFF"/>
<path d="M29.6118 347.215C29.2532 347.394 29.0825 347.819 29.0782 348.166C29.0718 348.748 29.5307 349.109 29.6481 349.192C30.3568 349.7 31.567 349.506 31.7783 348.964C31.9619 348.497 31.3621 347.861 31.0184 347.597C30.8114 347.435 30.1689 346.938 29.6118 347.215Z" fill="#FCC710" stroke="#FDFEFF"/>
<path d="M27.3665 350.864C26.5938 350.922 26.1263 350.956 25.9598 351.282C25.7741 351.642 26.0495 352.174 26.3398 352.461C27.074 353.189 28.6664 353.12 29.1914 352.308C29.3942 351.997 29.4903 351.497 29.2683 351.169C28.9844 350.745 28.3056 350.796 27.3665 350.864Z" fill="#FCC710" stroke="#FDFEFF"/>
<path d="M28.4315 354.436C28.2053 354.564 27.407 355.012 27.138 355.957C26.9588 356.588 26.9822 357.56 27.4433 357.782C28.0239 358.062 29.0164 357 29.4198 356.565C29.5522 356.424 31.0591 354.812 30.6386 354.21C30.3377 353.779 29.1615 354.029 28.4315 354.436Z" fill="#FCC710" stroke="#FDFEFF"/>
<path d="M34.7091 357.857C33.9044 358.292 33.74 359.691 34.3654 360.367C34.7496 360.781 35.3046 360.785 35.3921 360.785C36.2587 360.778 37.1253 359.974 37.0677 359.149C36.9972 358.145 35.5757 357.39 34.7091 357.857Z" fill="#FCC710" stroke="#FDFEFF"/>
<path d="M39.9193 362.039C40.3056 361.512 40.9545 361.184 41.5927 361.165C42.1456 361.148 43.0036 361.35 43.153 361.849C43.3259 362.423 42.3718 362.779 42.2032 363.978C42.1626 364.264 42.073 364.891 42.4295 365.27C42.8564 365.722 43.4433 365.317 44.2182 365.763C44.3163 365.82 45.0463 366.255 45.1701 367.094C45.2512 367.652 45.072 368.433 44.5597 368.691C44.0325 368.955 43.5607 368.454 41.2896 367.588C40.3248 367.219 40.0666 367.179 39.7677 367.209C38.8969 367.294 38.7176 367.872 37.7891 368.158C36.9908 368.403 35.7272 368.403 35.3173 367.74C34.9011 367.066 35.4113 365.784 36.2672 365.27C37.4412 364.562 38.6984 365.637 39.3878 364.965C40.0431 364.325 39.1167 363.14 39.9193 362.039Z" fill="#FCC710" stroke="#FDFEFF"/>
<path d="M20.1389 360.062C17.3107 360.531 14.3523 362.941 14.7749 364.47C15.1207 365.722 17.6906 366.255 19.5305 365.952C20.0983 365.861 21.7333 365.592 22.6875 364.167C23.362 363.159 23.7931 361.425 22.9543 360.518C22.2136 359.719 20.839 359.947 20.1389 360.062Z" fill="#FCC710" stroke="#FDFEFF"/>
<path d="M26.5298 363.065C25.93 363.225 26.6557 365.052 25.4647 366.485C24.4209 367.741 22.9993 367.379 22.5746 368.501C22.2971 369.228 22.5682 370.247 23.296 370.78C24.12 371.384 25.3473 371.226 25.883 370.629C26.5405 369.893 25.7272 368.974 26.3782 367.855C26.9652 366.837 27.945 367.057 28.2801 366.219C28.7838 364.958 27.1979 362.888 26.5298 363.065Z" fill="#FCC710" stroke="#FDFEFF"/>
<path d="M27.8999 371.958C26.9906 372.209 26.6726 373.32 26.9095 374.086C26.9266 374.144 27.1742 374.905 27.8231 375.076C28.7238 375.312 29.9938 374.299 29.838 373.25C29.7228 372.455 28.7985 371.708 27.8999 371.958Z" fill="#FCC710" stroke="#FDFEFF"/>
<path d="M23.2575 375.112C22.8349 375.487 23.0184 376.763 23.6396 377.469C24.0857 377.98 24.5574 377.965 24.741 378.497C24.931 379.038 24.5361 379.339 24.741 379.902C24.8968 380.322 25.328 380.732 25.7314 380.738C26.5596 380.753 27.6204 379.068 27.3664 377.66C26.9993 375.626 23.947 374.502 23.2575 375.112Z" fill="#FCC710" stroke="#FDFEFF"/>
<path d="M30.105 376.822C29.6803 376.805 29.3195 377.81 29.1552 378.268C28.914 378.936 28.5362 379.987 29.0783 380.548C29.4945 380.979 30.3718 381.038 30.8286 380.661C31.8339 379.834 30.8286 376.854 30.105 376.822Z" fill="#FCC710" stroke="#FDFEFF"/>
<path d="M12.9116 371.845C12.1112 372.253 12.3524 373.012 11.6565 373.556C10.5103 374.451 9.02043 373.052 7.77602 373.859C6.78561 374.501 6.67462 376.068 6.82403 376.976C6.86885 377.239 7.1186 378.74 8.04283 378.951C8.94145 379.158 9.82086 377.989 9.86782 377.926C10.4975 377.068 10.0983 376.565 10.5914 376.064C11.3513 375.29 12.5573 376.232 14.3566 375.569C14.7515 375.424 16.0301 374.955 16.1816 373.974C16.3118 373.142 15.5669 372.349 14.9266 371.997C14.8348 371.946 13.7974 371.393 12.9116 371.845Z" fill="#FCC710" stroke="#FDFEFF"/>
<path d="M1.49851 388.112C1.08442 388.392 0.913658 389.042 1.04173 389.556C1.16553 390.047 1.53266 390.294 2.07055 390.659C2.67035 391.066 3.20397 391.427 3.66716 391.228C4.19864 391 4.39715 390.138 4.23706 389.518C3.94037 388.36 2.27974 387.586 1.49851 388.112Z" fill="#FCC710" stroke="#FDFEFF"/>
<path d="M17.9319 389.366C17.3172 389.439 16.9672 390.738 16.9053 391.533C16.8092 392.768 17.2895 394.372 18.0472 394.459C18.6833 394.532 19.4261 393.525 19.6054 392.597C19.9128 391.026 18.6876 389.277 17.9319 389.366Z" fill="#FCC710" stroke="#FDFEFF"/>
<path d="M21.3939 388.834C20.8134 389.175 21.078 391.388 22.3822 392.711C22.9799 393.314 24.0791 394.022 24.5124 393.698C25.1144 393.252 24.4399 390.84 22.8774 389.518C22.5765 389.262 21.7931 388.599 21.3939 388.834Z" fill="#FCC710" stroke="#FDFEFF"/>
<path d="M26.073 385.756C24.4678 386.645 24.4678 389.831 25.8062 390.62C26.8883 391.258 29.0655 390.458 29.5735 388.833C29.8339 387.997 29.676 386.865 28.8499 386.135C28.0431 385.423 26.8585 385.319 26.073 385.756Z" fill="#FCC710" stroke="#FDFEFF"/>
<path d="M21.6225 395.106C20.0942 395.279 18.7858 397.364 19.2639 398.183C19.5969 398.757 20.8605 398.817 21.6994 398.337C22.8392 397.682 23.2554 395.984 22.6876 395.372C22.3632 395.02 21.7762 395.089 21.6225 395.106Z" fill="#FCC710" stroke="#FDFEFF"/>
<path d="M19.6439 401.185C18.566 401.454 17.7228 403.44 18.5788 404.493C19.0612 405.084 20.0409 405.336 20.6706 404.986C21.7613 404.384 21.6716 402.07 20.6343 401.375C20.5788 401.339 20.1476 401.06 19.6439 401.185Z" fill="#FCC710" stroke="#FDFEFF"/>
<path d="M40.6815 396.929C37.8063 396.095 36.2887 393.378 36.0774 393.547C35.8468 393.73 38.4189 396.387 37.6377 398.108C37.3196 398.808 36.5662 399.087 36.1542 399.247C35.3986 399.541 33.3559 400.71 29.2683 403.05C27.4156 404.11 23.533 406.33 22.8008 409.853C22.6002 410.819 22.6386 411.877 22.9545 411.981C23.3729 412.118 23.8681 410.42 25.1232 410.232C25.8873 410.117 26.707 410.599 27.1381 411.145C27.6547 411.796 27.4177 412.288 27.8617 413.045C27.8617 413.045 28.3526 413.871 29.6483 414.412C31.215 415.069 33.4413 414.073 40.0731 409.776C43.6868 407.432 44.594 406.713 45.1703 405.291C45.3133 404.937 46.1714 402.723 45.2066 400.35C45.0166 399.878 44.3997 398.418 42.9248 397.575C42.071 397.089 41.6249 397.204 40.6815 396.929Z" fill="#FCC710" stroke="#FDFEFF"/>
<path d="M17.1719 417.149C15.983 417.422 14.1538 417.838 14.1666 418.366C14.1879 419.164 18.427 420.459 19.6821 418.936C20.0962 418.435 20.2243 417.577 19.8721 417.149C19.4452 416.63 18.4163 416.865 17.1719 417.149Z" fill="#FCC710" stroke="#FDFEFF"/>
<path d="M21.5457 420.418C20.0985 419.784 18.122 420.582 17.8573 421.787C17.678 422.595 18.3098 423.403 18.8072 423.8C20.1433 424.864 22.6151 424.625 23.1444 423.42C23.5628 422.471 22.7602 420.949 21.5457 420.418Z" fill="#FCC710" stroke="#FDFEFF"/>
<path d="M14.5849 423.115C13.9403 422.992 12.9755 423.086 12.8346 423.533C12.6938 423.981 13.3917 424.732 14.1665 424.864C14.9862 425.005 15.9211 424.463 15.9168 423.99C15.9126 423.553 15.1036 423.216 14.5849 423.115Z" fill="#FCC710" stroke="#FDFEFF"/>
<path d="M64.4554 430.757C64.2355 429.049 62.3038 427.509 61.26 427.944C60.2718 428.355 59.8427 430.635 60.8801 431.934C61.5546 432.779 62.9633 433.35 63.8086 432.77C64.6261 432.211 64.4724 430.887 64.4554 430.757Z" fill="#FCC710" stroke="#FDFEFF"/>
<path d="M63.3154 435.014C62.4787 435.101 61.5331 435.144 60.5 435.088C58.6344 434.992 57.881 434.655 56.8863 435.127C56.771 435.182 55.4797 435.811 55.4775 436.799C55.4775 437.684 56.5085 438.287 56.8863 438.509C57.2983 438.752 57.7337 439.006 58.2545 438.927C58.9845 438.816 59.0315 438.179 59.9664 437.56C60.6515 437.108 61.3239 436.988 62.1734 436.837C63.5886 436.588 64.3143 436.814 64.4552 436.496C64.5427 436.3 64.4061 435.903 63.3154 435.014Z" fill="#FCC710" stroke="#FDFEFF"/>
<path d="M67.9942 432.162C66.3528 432.386 65.0699 437.799 66.547 438.852C67.2471 439.349 68.3784 438.741 68.5257 438.663C70.1073 437.812 70.6602 435.436 69.8192 433.76C69.7615 433.644 68.9334 432.034 67.9942 432.162Z" fill="#FCC710" stroke="#FDFEFF"/>
<path d="M75.717 431.175C74.9208 431.333 73.9838 433.35 74.9934 434.442C75.8002 435.317 77.4267 435.142 77.8472 434.481C78.4705 433.498 76.7116 430.977 75.717 431.175Z" fill="#FCC710" stroke="#FDFEFF"/>
<path d="M84.7692 431.326C83.7019 431.816 83.2537 433.548 83.7809 434.595C84.2227 435.474 85.0253 435.212 86.7094 436.38C88.2719 437.464 88.6177 438.406 89.1812 438.242C89.83 438.054 90.0307 436.626 89.9432 435.659C89.7062 433.073 87.2004 431.778 87.0509 431.706C86.4191 431.392 85.5547 430.963 84.7692 431.326Z" fill="#FCC710" stroke="#FDFEFF"/>
<path d="M72.7116 422.433C73.7874 422.386 74.8695 420.439 74.8418 418.669C74.8204 417.396 74.2292 416.496 73.5099 415.402C72.575 413.979 71.9645 413.052 70.846 412.892C69.6016 412.715 68.259 413.564 67.6891 414.756C67.0445 416.104 67.4735 417.724 68.3359 418.556C69.3924 419.573 70.7521 419.074 71.2644 420.113C71.6102 420.812 71.226 421.499 71.798 422.051C71.8279 422.081 72.2228 422.455 72.7116 422.433Z" fill="#FCC710" stroke="#FDFEFF"/>
<path d="M77.6551 416.274C78.4107 416.284 78.2762 414.199 79.8237 413.12C81.495 411.957 83.5121 413.09 84.0479 412.132C84.4022 411.497 83.8259 410.439 83.209 409.889C81.9048 408.724 79.5697 409.087 78.1503 410.194C76.9336 411.143 76.2762 412.729 76.4768 414.184C76.5985 415.062 77.0852 416.267 77.6551 416.274Z" fill="#FCC710" stroke="#FDFEFF"/>
<path d="M89.4866 413.576C88.24 413.06 87.9668 412.107 87.4695 412.246C86.8996 412.406 86.8633 413.773 86.8612 413.843C86.8569 414.06 86.827 415.741 88.1547 416.466C89.0191 416.935 90.3617 416.952 91.0085 416.123C91.4567 415.549 91.5421 414.606 91.1216 414.109C90.7716 413.694 90.3639 413.939 89.4866 413.576Z" fill="#FCC710" stroke="#FDFEFF"/>
<path d="M83.5909 417.148C81.2429 416.813 78.5513 417.528 78.4937 418.366C78.4489 418.989 79.8619 419.658 80.6602 420.038C81.8619 420.607 82.4276 420.52 83.0573 421.215C83.5354 421.744 83.5418 422.16 83.9708 422.279C84.6453 422.469 85.4009 421.659 85.5674 421.482C86.1395 420.872 86.9185 419.558 86.4041 418.479C85.9324 417.483 84.6496 417.3 83.5909 417.148Z" fill="#FCC710" stroke="#FDFEFF"/>
<path d="M94.4705 417.492C93.0724 417.946 92.2336 420.701 93.3286 421.71C94.0564 422.38 95.6466 422.29 96.4471 421.369C97.4908 420.168 96.7374 418.093 95.5741 417.566C95.4631 417.517 94.9935 417.321 94.4705 417.492Z" fill="#FCC710" stroke="#FDFEFF"/>
<path d="M100.481 416.428C99.3244 415.735 99.0063 415.261 98.7694 415.402C98.3083 415.675 98.5068 418.061 100.024 418.823C101.476 419.55 103.435 418.435 103.41 417.872C103.391 417.458 102.308 417.522 100.481 416.428Z" fill="#FCC710" stroke="#FDFEFF"/>
<path d="M103.143 412.702C103.004 412.695 102.396 412.67 102.116 413.081C101.852 413.474 102.014 414.064 102.306 414.374C102.977 415.088 104.667 414.666 104.817 414.071C104.942 413.572 104.042 412.742 103.143 412.702Z" fill="#FCC710" stroke="#FDFEFF"/>
<path d="M99.7961 407.496C99.224 407.686 99.0917 408.658 99.1878 409.281C99.207 409.411 99.3692 410.469 100.024 410.612C100.609 410.74 101.299 410.07 101.431 409.358C101.553 408.707 101.196 408.114 100.784 407.799C100.648 407.694 100.208 407.357 99.7961 407.496Z" fill="#FCC710" stroke="#FDFEFF"/>
<path d="M104.778 400.844C104.43 400.974 104.097 401.341 104.131 401.757C104.176 402.271 104.776 402.648 105.312 402.555C105.833 402.463 106.253 401.932 106.148 401.452C106.031 400.917 105.303 400.646 104.778 400.844Z" fill="#FCC710" stroke="#FDFEFF"/>
<path d="M110.142 403.771C109.743 404.067 109.749 404.346 109.495 404.568C109.102 404.916 108.618 404.662 107.67 404.645C107.013 404.634 105.779 404.613 105.273 405.291C105.01 405.643 105.047 406.134 105.121 407.115C105.192 408.055 105.226 408.524 105.463 408.863C105.649 409.13 106.069 409.533 109.077 409.625C111.077 409.684 112.088 409.706 112.729 409.243C113.465 408.712 113.747 407.942 114.174 406.773C114.535 405.792 114.778 405.121 114.517 404.34C114.31 403.726 113.758 402.956 112.996 402.822C112.5 402.734 112.481 403.016 110.827 403.468C110.641 403.517 110.4 403.581 110.142 403.771Z" fill="#FCC710" stroke="#FDFEFF"/>
<path d="M117.066 411.714C116.83 411.676 116.1 411.559 115.811 411.943C115.31 412.608 116.159 414.76 117.485 414.83C118.172 414.869 118.958 414.342 119.081 413.691C119.259 412.772 118.074 411.877 117.066 411.714Z" fill="#FCC710" stroke="#FDFEFF"/>
<path d="M115.963 427.449C115.388 427.332 114.488 428.801 114.174 430.147C113.873 431.448 113.973 433.25 114.518 433.378C115.258 433.555 117.062 430.672 116.494 428.362C116.426 428.078 116.289 427.515 115.963 427.449Z" fill="#FCC710" stroke="#FDFEFF"/>
<path d="M124.979 423.649C124.063 423.516 122.772 424.979 123.152 425.854C123.38 426.376 124.208 426.679 124.825 426.461C125.816 426.114 126.029 424.525 125.472 423.915C125.427 423.866 125.256 423.689 124.979 423.649Z" fill="#FCC710" stroke="#FDFEFF"/>
<path d="M129.314 422.736C128.622 422.74 127.944 423.301 127.907 424.028C127.877 424.642 128.311 425.171 128.821 425.359C129.596 425.643 130.622 425.159 130.761 424.333C130.891 423.54 130.155 422.732 129.314 422.736Z" fill="#FCC710" stroke="#FDFEFF"/>
<path d="M120.185 449.456C119.924 448.381 119.538 447.223 119.045 447.212C118.371 447.199 117.35 449.3 118.016 450.597C118.958 452.426 122.883 451.898 123.039 451.243C123.098 450.985 122.631 450.492 120.185 449.456Z" fill="#FCC710" stroke="#FDFEFF"/>
<path d="M153.129 363.444C152.236 363.399 151.355 364.216 151.455 365.041C151.555 365.886 152.655 366.451 153.508 366.18C154.068 366.003 154.625 365.436 154.574 364.737C154.518 363.984 153.786 363.478 153.129 363.444Z" fill="#FCC710" stroke="#FDFEFF"/>
<path d="M159.139 386.856C159.173 386.479 159.212 385.929 159.214 385.261C159.218 383.916 159.214 383.227 158.834 382.525C158.672 382.222 158.187 381.324 157.389 381.307C156.853 381.297 156.258 381.685 156.172 382.145C156.095 382.549 156.478 382.677 156.781 383.513C157.013 384.159 157.011 384.711 157.009 384.956C157.005 385.312 156.996 385.893 156.704 386.477C156.488 386.91 156.1 387.228 155.336 387.846C154.279 388.699 153.999 388.752 153.814 389.213C153.53 389.917 153.839 390.623 153.888 390.734C154.202 391.422 154.83 391.736 155.41 392.026C156.497 392.57 156.849 392.293 157.312 392.787C157.829 393.338 157.566 393.866 158.149 394.306C158.456 394.538 158.96 394.715 159.368 394.534C159.771 394.355 159.908 393.898 160.051 393.395C160.16 393.018 160.266 392.47 160.204 391.267C160.166 390.514 160.13 389.825 159.899 388.91C159.76 388.354 159.53 387.641 159.139 386.856Z" fill="#FCC710" stroke="#FDFEFF"/>
<path d="M149.019 395.827C148.313 396.059 147.946 396.882 148.183 397.575C148.392 398.185 149.041 398.612 149.705 398.488C150.435 398.352 150.904 397.599 150.77 396.891C150.622 396.112 149.779 395.579 149.019 395.827Z" fill="#FCC710" stroke="#FDFEFF"/>
<path d="M140.042 391.951C139.587 392.073 139.117 392.517 139.128 393.09C139.141 393.621 139.559 394.024 139.967 394.154C140.725 394.4 141.702 393.781 141.715 393.09C141.73 392.412 140.814 391.744 140.042 391.951Z" fill="#FCC710" stroke="#FDFEFF"/>
<path d="M134.031 401.072C133.278 400.245 133.196 399.893 132.891 399.855C132.3 399.784 131.715 400.985 131.672 401.072C131.192 402.081 130.917 403.915 131.901 404.721C133.363 405.918 136.483 403.934 136.39 403.124C136.353 402.802 135.822 402.785 134.716 401.757C134.317 401.384 134.031 401.072 134.031 401.072Z" fill="#FCC710" stroke="#FDFEFF"/>
<path d="M137.683 407.153C136.622 406.605 136.616 405.995 135.933 405.86C135.1 405.698 134.082 406.409 133.651 407.23C132.878 408.705 133.909 410.716 135.173 411.715C135.478 411.956 136.785 412.986 138.368 412.551C138.492 412.516 140.298 411.987 140.575 410.345C140.753 409.29 140.215 408.255 139.51 407.761C138.893 407.332 138.595 407.626 137.683 407.153Z" fill="#FCC710" stroke="#FDFEFF"/>
<path d="M156.855 398.639C155.019 397.919 152.832 399.096 152.823 399.855C152.817 400.531 154.528 400.437 155.79 402.06C156.864 403.44 156.605 404.769 157.237 404.873C157.882 404.98 158.819 403.7 158.985 402.44C159.18 400.994 158.398 399.247 156.855 398.639Z" fill="#FCC710" stroke="#FDFEFF"/>
<path d="M159.596 408.217C158.262 409.2 157.677 411.26 158.226 411.715C158.791 412.182 160.51 410.896 160.736 410.727C161.24 410.35 161.641 410.04 161.775 409.484C161.925 408.87 161.733 408.017 161.167 407.761C160.576 407.494 159.869 408.014 159.596 408.217Z" fill="#FCC710" stroke="#FDFEFF"/>
<path d="M93.2516 334.711C91.8108 333.19 93.1171 331.224 91.655 329.921C90.4703 328.865 88.227 328.927 86.8609 329.921C86.0925 330.482 85.8171 331.207 85.2643 332.659C84.4489 334.798 83.6762 336.829 84.5791 338.36C85.3988 339.748 86.9356 339.601 87.0893 340.64C87.2921 342 84.7627 342.983 85.0359 343.832C85.2728 344.574 87.2494 343.962 90.0562 344.745C92.9741 345.558 93.5226 346.967 94.8503 346.568C96.2185 346.159 96.7649 344.323 97.5889 341.552C98.3637 338.946 98.782 337.543 98.0456 336.534C96.9634 335.054 94.7414 336.281 93.2516 334.711Z" fill="#FCC710" stroke="white"/>
<path d="M164.708 266.511C164.708 266.511 163.397 268.898 161.513 269.932C161.365 270.011 161.218 270.086 161.066 270.152C160.507 270.386 160.057 270.406 157.86 271.299C156.926 271.681 155.86 272.137 154.665 272.668C154.264 274.696 153.483 275.976 152.838 276.774C152.193 277.571 151.939 277.569 150.785 278.825C149.22 280.527 148.415 281.357 148.274 281.79C147.873 283.012 148.721 283.216 148.274 284.526C147.993 285.347 147.585 285.488 146.919 286.959C146.806 287.213 146.622 287.62 146.447 288.175C146.279 288.71 146.084 289.482 145.991 290.683C145.85 292.506 146.155 292.551 145.991 293.421C145.677 295.106 144.477 295.221 143.937 296.614C142.932 299.2 145.647 302.483 145.534 302.542C145.438 302.593 143.715 299.966 143.937 299.806C144.168 299.638 147.086 301.755 147.361 304.594C147.555 306.603 146.306 307.744 147.133 309.156C147.57 309.902 148.038 309.785 148.958 310.979C149.6 311.811 150.178 312.561 150.099 313.487C149.98 314.877 148.456 315.777 148.046 315.997C146.772 316.677 146.089 316.244 145.534 316.908C145.007 317.543 145.476 318.119 145.305 319.874C145.222 320.749 145.068 322.34 143.937 323.521C143.583 323.892 142.853 324.656 141.884 324.662C140.966 324.668 140.479 323.997 138.232 321.698C136.131 319.55 135.662 319.22 135.036 318.961C134.616 318.787 133.094 318.157 131.613 318.733C130.558 319.143 130.466 319.795 129.1 321.013C128.778 321.301 127.485 322.457 125.905 323.067C124.535 323.596 124.112 323.265 120.2 323.293C116.584 323.321 116.601 323.606 115.408 323.293C113.57 322.813 113.111 322.03 111.299 321.926C110.349 321.87 109.677 322.041 108.332 322.382C105.57 323.082 105.282 323.766 103.538 323.977C101.809 324.186 99.4971 323.826 99.2026 322.839C98.9016 321.841 100.959 321.209 101.256 319.19C101.546 317.213 99.9496 315.283 99.8856 315.313C99.8322 315.336 100.455 316.942 100.571 316.908C100.686 316.876 100.103 315.306 99.8856 313.033C99.6657 310.725 100.046 310.053 99.4288 309.384C98.622 308.505 96.8247 308.416 96.0051 309.156C95.4544 309.652 95.7553 310.156 95.0937 311.664C94.7564 312.429 94.4384 313.154 93.7233 313.715C93.068 314.231 91.7639 314.856 90.7564 314.4C89.6806 313.911 90.0563 312.694 88.703 310.523C87.7211 308.949 86.5706 308.064 86.1907 307.786C85.4735 307.264 84.1992 306.332 82.3123 306.191C81.8641 306.157 79.9281 306.012 78.4318 307.102C75.4884 309.245 76.0305 314.867 75.9217 314.856C75.8427 314.85 75.9409 312.122 75.9217 312.12C75.8982 312.118 76.3934 315.609 74.5513 317.592C73.9729 318.215 73.531 318.294 70.6708 319.19C66.135 320.61 63.8661 321.32 62.6836 321.926C60.4786 323.054 59.8319 323.875 59.0314 323.521C58.0133 323.073 58.4103 321.465 57.6611 318.505C57.3239 317.172 56.4295 313.641 53.7806 310.979C52.1883 309.38 51.2021 309.341 51.042 308.243C50.7261 306.072 54.2331 303.884 54.9225 303.455C57.1339 302.075 57.2022 302.988 60.1713 301.401C61.8148 300.525 63.5566 299.305 65.6505 299.48C65.9984 299.508 66.3122 299.574 66.3335 299.578C68.3229 299.987 69.7637 301.397 69.7594 301.401C69.7594 301.401 69.7594 301.401 69.7573 301.401C69.7338 301.376 71.1724 300.333 71.8128 299.35C72.7519 297.904 72.7157 295.434 71.5844 294.56C70.8181 293.969 70.1415 294.564 67.2471 294.788C64.3356 295.014 64.3805 294.464 61.9984 294.788C59.8895 295.076 59.2961 295.586 57.8895 295.244C57.4306 295.133 56.0837 294.807 55.3793 293.647C54.327 291.917 55.5287 289.685 55.6077 289.544C56.739 287.509 58.5298 287.791 61.5416 285.895C62.357 285.381 62.2865 285.321 67.0187 280.649C71.2066 276.516 72.1884 275.645 73.4094 275.861C74.5385 276.059 74.5919 276.959 77.0615 278.141C78.4852 278.821 79.4671 279.273 80.2568 278.825C81.2536 278.26 81.5653 276.484 80.942 275.404C80.8459 275.24 80.5492 274.777 78.6602 274.035C76.2056 273.073 75.3816 273.332 74.5513 272.44C73.8448 271.681 73.4435 270.423 73.8661 269.932C74.3592 269.361 75.6356 270.218 78.4318 270.16C78.4318 270.16 80.3593 270.12 80.942 269.248C80.942 269.248 80.9399 269.252 80.942 269.248C81.7872 267.981 82.2803 267.386 82.5407 266.968C83.0957 266.07 83.4521 264.586 82.9954 264.229C82.5407 263.878 81.5951 264.891 78.8886 266.055C77.7082 266.563 77.0871 266.825 76.1501 266.968C75.7893 267.021 74.3315 267.219 72.4979 266.74C71.5716 266.496 71.5652 266.347 70.214 265.827C67.2919 264.701 66.3869 265.042 65.8789 264.229C65.2065 263.159 66.0283 261.361 66.7903 260.354C67.8704 258.928 69.0614 258.783 71.5844 257.616C73.2962 256.825 72.3549 257.074 77.7467 253.969C81.149 252.009 82.8716 251.024 83.9089 250.777C85.5525 250.384 86.6368 250.465 87.1043 249.636C87.7766 248.448 86.1224 247.273 86.6475 245.53C86.9805 244.428 88.0114 243.807 90.0712 242.566C91.3049 241.824 91.941 241.451 92.8097 241.425C94.178 241.387 94.3338 242.191 96.0051 242.566C97.7724 242.961 99.4736 242.483 100.799 242.11C102.481 241.636 102.788 241.218 103.538 241.425C104.631 241.73 104.716 242.826 105.819 244.39C106.02 244.673 108.616 248.247 111.984 248.267C113.064 248.273 113.933 247.913 114.722 247.582C115.924 247.081 116.234 246.657 118.375 245.302C120.505 243.954 121.049 243.841 121.57 243.935C122.272 244.059 122.695 244.517 123.395 245.302C123.988 245.968 125.004 247.26 126.362 250.549C127.053 252.221 127.026 252.455 127.504 253.057C128.291 254.048 128.898 254.08 130.471 255.108C132.96 256.737 132.718 257.495 134.351 258.073C135.25 258.392 136.168 258.36 138.003 258.301C138.554 258.284 140.392 258.198 141.427 257.39C141.698 257.177 141.877 256.959 141.877 256.959C142.292 256.458 142.309 256.055 142.592 255.447C142.77 255.068 142.945 254.833 143.252 254.424C143.835 253.649 144.539 252.711 145.762 252.372C145.959 252.319 147.107 252.02 148.274 252.6C148.797 252.86 148.797 253.123 149.079 253.163C150.065 253.306 150.708 250.512 152.14 248.966C153.421 247.582 155.188 247.358 161.269 247.369C168.657 247.384 172.375 247.414 173.594 248.51C176.251 250.903 177.184 255.863 175.419 259C173.082 263.161 166.571 263.118 164.708 266.511Z" fill="#FCC710" stroke="white"/>
<path d="M284.856 150.345C285.147 151.181 285.204 151.827 285.313 153.083C285.522 155.561 285.221 155.962 285.159 159.771C285.147 160.635 285.168 160.266 285.159 163.42C285.153 166.037 285.125 166.152 285.159 166.613C285.238 167.639 285.454 169.434 286.225 171.782C287.808 176.6 289.405 176.653 289.877 180.144C290.111 181.876 289.951 183.597 289.877 184.401C289.8 185.224 289.653 186.736 289.117 188.506C288.073 191.944 286.844 192.123 286.225 195.043C285.836 196.879 285.99 198.383 286.073 199.148C286.214 200.428 286.517 201.545 287.746 204.621C289.65 209.379 289.738 208.728 289.877 209.637C290.156 211.454 288.041 213.949 288.041 213.949C286.654 215.335 285.106 217.828 284.551 220.735C284.327 221.91 284.261 223.375 284.218 224.352C284.18 225.205 284.135 226.216 284.218 227.393C284.387 229.773 284.861 229.732 284.978 231.498C285.166 234.318 284.005 235.158 284.675 237.578C284.886 238.346 284.954 238.086 285.465 239.436C286.195 241.368 286.878 243.168 286.53 245.213C286.235 246.945 285.319 248.154 285.008 248.557C283.413 250.615 281.77 250.588 281.661 251.75C281.539 253.053 283.484 254.313 284.703 254.791C286.079 255.328 287.298 255.173 287.746 255.094C289.407 254.804 290.472 253.84 291.247 253.119C292.641 251.82 292.434 251.293 293.986 249.47C294.833 248.472 296.675 246.307 297.789 246.732C298.043 246.83 298.366 247.101 298.703 248.709C299.123 250.709 299.636 253.151 298.551 255.855C297.853 257.595 297.247 257.563 296.421 259.807C296.152 260.534 295.787 261.526 295.659 262.848C295.599 263.477 295.599 264.108 296.267 268.169C296.639 270.417 296.777 271.072 296.421 271.969C296.099 272.773 295.779 272.767 295.051 273.946C294.295 275.168 293.988 276.233 293.68 277.29C293.411 278.224 293.245 279.293 292.92 281.396C292.605 283.452 292.654 283.475 292.464 284.437C291.964 286.975 291.71 288.267 290.79 288.694C290.25 288.943 289.458 288.662 287.898 288.086C285.194 287.086 284.733 286.418 283.486 286.565C282.474 286.682 281.716 287.248 281.204 287.629C279.652 288.785 279.567 289.973 278.617 290.061C277.9 290.127 277.296 289.512 276.639 288.845C275.618 287.806 275.669 287.149 274.814 286.109C273.947 285.053 272.933 284.556 272.378 284.283C270.436 283.332 268.636 283.441 267.509 283.524C266.098 283.626 264.865 283.718 263.706 284.588C262.79 285.277 262.284 286.179 261.727 287.173C261.057 288.371 261.097 288.779 260.359 289.909C259.917 290.583 259.505 291.212 258.837 291.733C256.999 293.164 254.427 292.833 254.423 292.797C254.421 292.771 255.772 292.746 255.793 292.494C255.827 292.072 252.045 291.526 251.381 291.43C247.913 290.929 247.283 291.302 246.967 291.581C246.224 292.242 246.619 292.942 245.75 293.709C244.826 294.526 244.1 293.98 243.012 294.774C242.006 295.505 242.318 296.192 241.338 297.056C240.489 297.802 239.522 297.932 238.143 298.12C236.702 298.314 235.219 298.512 233.729 297.815C231.983 296.996 232.126 295.831 230.534 295.381C229.912 295.207 229.005 295.367 227.187 295.686C225.509 295.981 224.954 296.2 223.229 296.446C221.37 296.712 220.896 296.616 220.491 296.446C220.414 296.414 219.095 295.834 218.666 294.471C218.42 293.695 218.58 293.031 218.817 292.037C219.248 290.235 219.895 289.741 219.579 288.996C219.353 288.467 218.758 288.086 218.209 288.086C217.436 288.084 216.907 288.836 216.687 289.15C215.703 290.549 216.346 291.747 215.622 292.189C214.941 292.607 214.296 291.588 212.883 291.886C212.284 292.012 211.825 292.325 210.905 292.95C210.117 293.486 210.002 293.686 209.537 294.014C208.386 294.821 206.39 295.499 205.122 294.774C204.452 294.39 204.661 294 203.754 292.797C203.4 292.33 202.126 290.641 200.405 290.214C199.613 290.016 199.317 290.235 196.602 290.973C192.482 292.095 191.654 292.006 190.973 291.733C190.061 291.37 189.043 290.536 188.843 289.453C188.74 288.909 188.873 288.455 190.059 286.26C191.562 283.479 192.032 282.944 191.884 282.003C191.716 280.92 190.864 280.178 190.516 279.875C189.31 278.826 188.574 279.323 187.472 278.354C187.144 278.067 186.695 277.25 185.799 275.618C184.924 274.027 184.712 273.498 184.125 273.339C183.585 273.191 183.423 273.543 182.298 273.795C181.009 274.081 179.935 273.906 179.255 273.795C178.224 273.626 177.549 273.516 176.821 273.034C175.728 272.311 175.726 271.553 174.843 271.362C174.063 271.193 173.799 271.728 173.018 271.513C172.518 271.376 172.17 270.965 171.496 270.146C170.399 268.815 170.501 268.487 169.822 268.018C168.973 267.431 168.595 267.796 167.995 267.256C167.071 266.425 167.186 264.859 167.235 264.215C167.329 262.961 167.715 262.978 167.995 261.327C168.273 259.69 168.068 258.625 167.995 258.286C167.824 257.495 167.673 256.8 167.082 256.312C166.501 255.83 166.036 255.998 165.408 255.55C164.719 255.055 164.488 254.271 164.343 253.727C157.528 228.052 156.857 222.211 156.857 222.211C154.277 199.656 144.616 196.796 148.413 186.18C149.675 182.652 151.767 180.11 164.847 170.902C176.907 162.414 185.105 156.643 194.64 151.281C200.691 147.88 205.537 145.615 207.528 144.676C225.15 136.372 233.959 132.22 243.362 132.134C243.362 132.134 260.83 131.977 276.229 142.625C276.259 142.646 279.196 144.676 279.196 144.676C281.889 146.278 282.163 146.5 282.163 146.5C282.521 146.792 284.081 148.114 284.856 150.345Z" fill="#FCC710" stroke="white"/>
<path d="M318.246 209.907C315.646 210.984 314.312 209.89 313.528 210.971C312.641 212.193 313.477 214.808 313.981 215.981C313.983 215.985 313.985 215.987 313.985 215.987C313.985 215.987 317.716 219.455 319.919 218.723C322.634 217.823 323.114 210.515 323.114 210.515C322.989 209.587 322.694 208.356 321.898 208.081C320.969 207.761 320.284 209.06 318.246 209.907Z" fill="#FCC710" stroke="white"/>
<path d="M325.296 220.447C324.773 220.603 324.497 221.27 324.585 221.765C324.745 222.656 326.115 223.166 326.615 222.778C327.057 222.434 326.933 221.294 326.31 220.752C326.248 220.696 325.793 220.302 325.296 220.447Z" fill="#FCC710" stroke="white"/>
<path d="M328.237 217.508C327.977 217.535 327.674 218.02 327.832 218.42C328.026 218.913 328.777 218.937 328.948 218.723C329.17 218.446 328.634 217.465 328.237 217.508Z" fill="#FCC710" stroke="white"/>
<path d="M221.981 259.077C221.095 259.228 220.815 258.834 218.482 258.772C216.709 258.725 216.459 258.94 216.352 259.077C215.782 259.793 217.08 260.86 216.809 262.724C216.651 263.809 216.182 263.658 215.744 265.308C215.368 266.722 215.635 267.115 215.133 267.893C214.638 268.665 214.152 268.627 213.46 269.414C212.969 269.977 212.241 270.834 212.395 271.693C212.542 272.519 213.349 272.468 214.525 273.822C214.879 274.229 214.726 274.142 216.047 276.104C217.018 277.545 217.215 277.763 217.569 277.927C218.655 278.435 219.904 277.827 220.004 277.776C221.545 276.997 221.306 275.481 222.743 274.886C223.402 274.613 223.989 274.713 225.025 274.886C226.57 275.146 227.866 275.878 228.525 276.255C229.701 276.931 229.896 277.262 230.35 277.168C231.247 276.98 231.736 275.432 231.872 274.432C232.167 272.286 231.046 271.263 231.721 270.326C232.235 269.61 232.986 270.073 234.002 269.262C235.059 268.418 235.699 266.754 235.219 265.613C234.784 264.577 233.78 264.82 233.242 263.788C232.602 262.568 233.697 261.632 233.697 259.685C233.699 258.057 232.935 255.833 231.264 254.971C228.869 253.737 225.716 255.871 225.481 256.036C223.541 257.386 223.573 258.804 221.981 259.077Z" fill="#FCC710" stroke="white"/>
<path d="M128.859 217.497C128.563 217.523 127.122 217.655 126.575 218.636C126.106 219.483 126.838 219.988 126.575 221.372C126.355 222.534 125.779 222.502 125.207 224.11C125.09 224.437 124.78 225.377 124.75 226.618C124.729 227.51 124.708 228.414 125.207 229.355C125.297 229.525 126.279 231.323 127.489 231.178C128.494 231.059 127.986 228.702 129.314 227.985C129.694 227.781 130.018 227.808 132.055 228.214C135.374 228.875 135.645 229.028 136.315 228.898C137.724 228.625 139.346 227.401 139.357 226.162C139.372 224.74 137.246 224.769 134.793 221.828C133.525 220.31 133.342 219.404 131.826 218.408C130.294 217.403 129.167 217.467 128.859 217.497Z" fill="#FCC710" stroke="white"/>
<path d="M118.663 169.227C120.524 171.178 120.87 171.507 120.87 171.507C121.425 172.036 121.653 172.217 121.935 172.648C122.447 173.43 122.315 173.772 122.923 174.625C123.134 174.919 123.352 175.158 123.76 175.612C124.123 176.013 124.308 176.216 124.522 176.371C125.032 176.744 125.429 176.751 125.89 176.904C127.041 177.284 127.696 178.278 127.794 178.425C128.138 178.947 128.206 179.82 128.326 181.541C128.473 183.639 128.343 183.88 128.174 183.974C127.702 184.234 127.141 183.225 125.739 183.061C125.455 183.029 124.351 182.938 123.608 183.594C123.053 184.083 123.058 184.676 122.772 185.797C122.62 186.392 122.202 187.864 121.478 189.067C120.396 190.867 119.416 190.758 118.816 192.411C118.614 192.965 118.289 193.861 118.663 194.691C119.122 195.706 120.104 195.473 120.87 196.593C121.401 197.369 121.017 197.614 121.63 199.329C122.059 200.523 122.343 201.319 123.077 201.686C123.783 202.037 124.131 201.607 125.053 201.988C125.961 202.364 126.439 203.119 126.575 203.358C127.096 204.255 127.026 205.164 126.955 205.942C126.808 207.599 126.185 207.811 126.424 208.527C126.723 209.427 127.754 209.216 129.696 210.502C131.175 211.483 131.327 212.099 132.283 212.251C133.414 212.43 134.012 211.103 134.868 211.415C135.38 211.6 135.613 212.172 135.704 212.402C136.119 213.422 135.455 213.974 135.704 215.369C135.773 215.744 135.931 216.625 136.39 216.736C136.955 216.872 137.95 215.836 138.063 214.759C138.136 214.093 137.826 213.799 138.063 213.392C138.356 212.89 139.22 212.643 139.739 212.935C140.016 213.091 140.102 213.351 140.422 214.835C140.701 216.121 140.84 216.77 140.804 216.964C140.682 217.604 140.345 217.768 138.902 219.32C138.121 220.159 138.477 219.832 137.152 221.297C135.702 222.897 135.517 223.018 135.25 223.577C135.058 223.976 134.637 224.882 134.793 226.01C134.902 226.802 135.254 227.412 135.325 227.531C135.747 228.241 136.082 228.295 136.315 228.898C136.488 229.35 136.456 229.723 136.39 230.419C136.249 231.894 135.796 232.212 136.01 232.775C136.338 233.641 137.769 233.831 137.835 233.839C139.451 234.036 140.125 232.73 141.64 233.078C141.818 233.121 142.347 233.249 142.78 233.688C143.404 234.315 143.444 235.191 143.465 235.816C143.544 238.152 143.549 240.442 143.694 242.276C143.792 243.504 143.912 244.025 144.151 244.558C144.236 244.75 144.373 245.019 145.673 246.761C146.392 247.729 146.394 247.704 146.812 248.282C147.632 249.412 147.617 249.493 148.106 250.107C148.479 250.574 148.731 251.052 149.299 251.453C149.545 251.628 149.764 251.585 149.856 251.779C149.959 251.992 149.813 252.199 149.933 252.31C149.993 252.368 150.085 252.363 150.435 252.293C150.936 252.193 151.002 252.15 151.197 252.131C151.495 252.101 151.724 252.157 151.92 252.206C152.012 252.229 152.279 252.302 152.823 252.615C153.182 252.82 153.267 252.905 153.685 253.178C154.132 253.468 154.356 253.613 154.65 253.756C154.941 253.895 155.455 254.11 156.127 254.225C156.196 254.236 156.375 254.266 156.627 254.287C157.15 254.33 158.262 254.445 159.367 253.982C159.636 253.871 159.978 253.654 160.661 253.223C162.048 252.344 161.908 252.274 162.258 252.159C163.382 251.786 163.895 252.822 165.833 252.918C166.26 252.941 167.022 252.971 167.888 252.615C169.107 252.114 169.743 251.169 169.942 250.866C170.371 250.21 170.255 250.035 170.778 248.51C171.391 246.725 171.713 245.821 172.452 245.24C173.368 244.526 173.897 244.963 174.431 244.33C174.964 243.696 174.708 242.944 174.431 239.996C174.206 237.599 174.29 237.192 174.582 236.955C175.284 236.388 176.358 237.465 177.703 236.881C178.727 236.433 179.137 235.358 179.225 235.132C179.739 233.782 179.169 232.532 178.691 231.483C178.192 230.385 177.713 229.333 176.866 229.203C176.002 229.069 175.692 230.033 173.822 230.875C172.842 231.316 171.999 231.696 171.158 231.406C170.401 231.146 170.413 230.604 169.105 229.278C168.162 228.32 167.662 227.815 166.975 227.757C165.747 227.659 165.239 229.76 164.388 229.583C163.903 229.48 163.643 228.751 163.4 228.062C163.231 227.586 163.182 227.105 163.094 226.162C163.005 225.185 162.962 224.695 163.094 224.49C163.557 223.784 164.657 224.353 165.453 223.654C166.185 223.01 166.185 221.715 165.987 220.918C165.604 219.38 164.426 219.419 164.159 218.028C164.087 217.648 164.159 217.561 164.768 214.912C165.064 213.628 165.212 212.986 165.225 212.859C165.481 210.519 164.454 209.732 165.073 208.679C165.549 207.866 166.277 208.133 167.052 207.007C167.286 206.661 167.741 206 167.66 205.258C167.536 204.142 166.268 203.443 164.693 202.596C162.962 201.669 162.39 201.75 161.041 200.773C160.219 200.178 159.267 199.487 159.367 198.721C159.468 197.943 160.608 197.401 161.192 197.124C161.82 196.827 161.995 196.896 162.791 196.516C163.517 196.171 163.918 195.979 164.236 195.603C164.695 195.062 164.727 194.347 164.768 192.944C164.817 191.327 164.599 190.869 164.996 190.131C165.094 189.948 165.361 189.453 165.91 189.144C167.169 188.429 168.219 189.647 169.562 189.067C170.55 188.638 171.039 187.516 171.158 187.241C171.622 186.181 171.348 185.463 171.769 185.266C172.115 185.102 172.471 185.516 173.899 186.405C174.924 187.045 175.449 187.367 176.104 187.546C177.099 187.817 177.925 187.702 178.463 187.623C179.393 187.482 180.296 187.348 180.518 186.787C180.629 186.499 180.497 186.277 179.833 184.961C178.968 183.253 178.845 182.944 178.768 182.53C178.61 181.675 178.764 180.98 178.843 180.628C178.981 180.031 179.346 178.448 180.518 177.892C181.293 177.523 181.607 177.994 183.485 177.664C184.572 177.474 184.813 177.254 184.93 177.056C185.242 176.529 184.751 176.034 185.082 175.384C185.304 174.947 185.831 174.571 186.298 174.625C186.783 174.676 186.855 175.145 187.669 175.84C188.006 176.128 188.324 176.311 188.962 176.676C190.128 177.344 190.71 177.679 191.092 177.589C191.921 177.395 192.315 176.117 192.614 175.156C193.048 173.752 192.757 173.39 193.223 172.724C193.797 171.903 195.033 171.313 196.038 171.583C196.969 171.833 197.509 172.918 198.548 175.079C199.66 177.391 199.549 177.883 200.298 178.425C201.325 179.167 202.608 179.011 204.33 178.805C205.658 178.645 206.745 178.512 207.754 177.664C208.781 176.8 209.135 175.691 209.276 175.232C209.566 174.281 209.466 173.716 209.199 171.127C208.817 167.401 208.841 166.794 209.125 166.034C209.562 164.859 210.326 164.126 210.873 163.601C212.604 161.942 213.408 162.562 215.133 161.093C217.342 159.214 218.328 156.685 218.328 156.685C218.606 155.975 218.708 155.461 219.242 155.087C220.149 154.454 221.108 155.055 222.514 154.785C222.514 154.785 223.917 154.51 225.176 153.187C227.219 151.046 224.267 143.699 221.298 139.504C214.636 130.101 202.002 128.255 187.06 126.278C166.774 123.595 156.631 122.251 146.204 128.331C141.828 130.882 136.972 137.178 127.26 149.767C127.26 149.767 115.119 165.508 118.663 169.227Z" fill="#FCC710" stroke="white"/>
<path d="M45.8552 103.249C46.1989 105.085 46.8392 105.71 47.3771 105.934C47.9641 106.179 48.5959 106.015 48.8478 106.442C49.0612 106.802 48.8499 107.324 48.645 107.608C48.2117 108.203 47.3472 108.346 46.7175 108.165C46.058 107.975 45.7378 107.457 45.2981 106.747C44.9075 106.117 43.8787 104.454 44.5361 103.654C44.63 103.539 44.9523 103.209 45.8552 103.249Z" fill="#FCC710" stroke="white"/>
<path d="M55.1382 105.683C57.0955 106.41 57.1766 106.463 57.2172 106.593C57.4114 107.238 56.214 108.541 55.341 108.317C54.3356 108.061 54.103 105.87 54.579 105.58C54.6857 105.516 54.8372 105.57 55.1382 105.683Z" fill="#FCC710" stroke="white"/>
<path d="M61.3751 116.222C62.3078 116.31 62.1051 115.231 64.342 113.416C64.8607 112.994 67.2449 112.439 67.9685 110.95C68.2567 110.358 69.1254 109.509 69.0592 109.197C68.8351 108.148 67.548 107.37 66.9183 107.72C66.6323 107.877 65.6398 105.478 63.6696 105.986C63.5074 106.026 63.4733 108.568 62.4188 108.562C60.6109 108.551 59.0634 109.191 58.0495 109.43C57.1232 109.65 56.1712 110.434 55.8766 111.531C55.6119 112.529 55.8681 113.864 56.6685 114.309C57.518 114.781 57.8425 114.196 58.9738 114.587C60.2417 115.026 60.581 116.15 61.3751 116.222Z" fill="#FCC710" stroke="white"/>
<path d="M71.7124 103.111C70.5939 103.938 69.9066 105.487 70.1393 106.954C70.2247 107.485 70.4104 107.901 70.564 108.178C70.564 108.178 70.675 108.641 70.8949 111.038C71.1702 111.844 71.4435 113.034 71.2257 114.401C71.1275 115.007 70.9973 115.246 70.3997 116.924C69.2492 120.155 69.3154 120.43 69.4093 120.624C69.9536 121.75 71.7295 120.886 73.3688 122.475C74.0667 123.149 74.1649 123.71 75.0187 124.156C75.943 124.638 76.8693 124.531 77.1639 124.493C79.3389 124.222 80.6687 122.081 80.9974 121.55C81.721 120.387 82.2205 118.892 81.9878 113.646C81.736 107.978 81.578 105.116 80.0092 103.721C78.0326 101.966 74.9141 102.3 74.0689 102.375C72.6003 102.507 71.9685 102.921 71.7124 103.111Z" fill="#FCC710" stroke="white"/>
<path d="M61.2534 120.799C59.6141 120.73 56.8969 118.698 57.2725 117.467C57.4945 116.745 58.7902 116.26 59.533 116.608C60.152 116.896 60.0922 117.621 60.8777 118.165C61.4412 118.557 61.8852 118.169 62.3846 118.596C62.4657 118.666 62.8926 119.046 62.8692 119.617C62.8478 120.108 62.5084 120.417 62.438 120.477C62.0303 120.833 61.5031 120.809 61.2534 120.799Z" fill="#FCC710" stroke="white"/>
<path d="M59.9278 83.1772C60.4636 83.8298 60.4465 84.3608 60.613 88.1953C60.7261 90.7715 60.7816 92.0618 60.8414 92.5288C61.1253 94.7511 61.4732 95.2352 61.2982 96.632C61.2555 96.969 60.9374 99.5026 59.7016 99.8246C58.8777 100.04 58.5084 99.0526 57.1893 98.914C55.9128 98.7796 55.4241 99.6177 53.9939 100.053C51.8936 100.693 49.1102 100.046 48.7452 98.914C48.2948 97.5128 51.8744 96.4252 51.9406 93.6677C51.9512 93.1793 51.6823 92.6696 51.2639 91.6459C50.8818 90.714 50.583 90.2235 50.1134 89.3363C49.1529 87.515 48.6577 86.6086 48.5168 85.9155C48.3994 85.3333 48.075 83.6101 48.9736 81.8102C49.2575 81.2387 50.0985 79.5517 51.9406 79.074C53.5115 78.6646 54.8605 79.3833 55.1359 79.5304C56.0132 79.9953 55.9897 80.3579 57.1893 81.3538C58.8222 82.7059 59.2576 82.3604 59.9278 83.1772Z" fill="#FCC710" stroke="white"/>
<path d="M45.8403 84.2224C46.8627 83.7724 47.4796 81.8872 46.7539 80.8016C46.0879 79.81 44.566 79.8739 44.2416 79.8889C43.074 79.9379 42.9737 80.4945 41.9598 80.5735C40.1156 80.7142 39.185 78.9718 38.3077 79.4325C37.4731 79.8718 37.3941 81.9405 37.3941 81.9405C37.0718 81.1557 37.7997 83.7959 38.5361 84.2224C39.4518 84.7492 40.28 83.3416 42.1882 83.3096C44.1092 83.2776 44.7901 84.683 45.8403 84.2224Z" fill="#FCC710" stroke="white"/>
<path d="M48.8329 92.6333C48.6344 91.8613 47.4796 92.1598 46.6515 91.2663C45.6888 90.2255 46.517 89.0355 45.3836 87.5661C45.1701 87.2889 44.6557 86.6235 44.1157 86.7045C43.2875 86.8282 42.9951 88.6069 42.9481 88.8841C42.835 89.5708 42.7005 90.3876 43.1509 91.0615C43.7037 91.8911 44.5084 91.567 45.0292 92.4307C45.4156 93.0747 45.121 93.5055 45.6376 94.1027C45.7422 94.2242 46.1114 94.6401 46.7027 94.7105C47.4946 94.8064 48.0752 94.2072 48.2246 94.0515C48.3569 93.915 48.9909 93.2581 48.8329 92.6333Z" fill="#FCC710" stroke="white"/>
<path d="M40.7687 93.6973C40.2244 93.4158 39.2789 93.9084 38.8904 94.61C38.5766 95.1773 38.6961 95.7638 38.7388 95.9771C38.7922 96.2436 38.9117 96.8386 39.4496 97.1948C39.5435 97.2566 40.2138 97.7024 40.7687 97.3462C40.8477 97.295 41.1081 97.0946 41.1743 96.0282C41.2426 94.8915 41.3002 93.9745 40.7687 93.6973Z" fill="#FCC710" stroke="white"/>
<path d="M98.2594 39.7542C97.3202 40.5156 96.3746 41.2812 95.8666 42.6354C95.0512 44.8086 96.0288 46.4614 95.0021 48.1142C94.6499 48.6815 94.0181 49.1677 92.8847 49.5537C91.3415 50.4942 90.334 51.5072 89.6275 52.5501C87.7406 54.7979 87.9562 56.7556 87.0149 58.5087C81.8473 61.7588 84.4876 61.9294 81.7 64.9322C69.8749 65.6829 75.907 66.6575 73.8365 75.8001C75.2602 80.3298 73.8344 84.4906 74.8867 88.436C70.6732 95.4886 72.2186 85.8406 70.9699 84.964C66.9186 83.8316 61.0872 83.9105 62.592 88.05C64.0328 93.7356 63.4394 97.4826 67.3221 98.9008C70.4619 99.771 71.0361 101.407 71.7639 103.874C74.1887 104.542 78.7032 103.158 78.6413 107.109C78.4385 119.907 84.3959 107.544 78.0457 124.207C73.86 126.154 75.2432 126.751 78.8867 126.696C79.6786 129.521 81.1962 129.609 85.51 129.402C87.6445 128.459 87.5015 135.616 85.779 133.339C80.4961 129.502 82.8035 136.233 80.0436 136.403C76.9764 136.011 73.6423 129.436 72.2164 135.053C71.8707 137.591 80.6157 137.875 71.9091 140.225C69.2218 143.228 73.8792 141.549 74.4043 143.287C74.2954 144.484 73.6892 144.381 72.6455 145.67C72.6284 147.066 76.0841 145.661 76.891 144.657C78.0671 143.486 83.002 139.626 82.6434 141.36C81.6786 146.996 89.3564 139.338 88.3382 143.142C88.2913 146.629 83.5229 144.838 81.8259 145.262C78.6455 147.152 78.1397 149.169 81.0981 150.669C82.5794 153.522 79.4353 151.647 78.3766 152.355C77.1343 155.245 82.8932 157.239 84.6669 156.715C86.9274 155.576 84.9508 149.824 88.3041 149.519C89.2646 149.613 89.2561 149.777 89.2198 150.803C88.2059 159.997 78.9636 157.525 89.5101 165.092C91.984 167.034 94.2102 166.452 95.4184 162.492C96.3981 161.605 100.46 158.51 100.441 160.206C100.761 164.1 97.2412 162.368 96.667 164.62C96.4835 168.346 104.516 165.326 105.44 163.313C108.75 161.464 111.075 163.151 112.616 164.415C123.664 174.501 119.568 164.064 124.208 164.801C130.87 163.985 124.83 158.762 130.183 159.276C131.453 158.928 131.51 158.741 132.277 158.109C133.927 156.821 133.282 154.367 134.07 153.993C142.678 152.756 145.575 157.472 146.206 145.699C146.125 144.923 146.241 144.492 146.503 144.283C147.758 143.287 150.881 146.017 153.144 144.972C154.734 144.236 155.082 141.929 155.24 141.101C156.843 132.742 167.203 128.222 170.704 118.845C172.563 113.863 171.562 109.442 169.562 100.601C166.522 87.1607 161.935 85.0366 156.552 70.9548C149.803 53.2965 154.347 49.654 148.108 43.3627C142.661 37.869 133.824 37.1908 116.153 35.8366C116.153 35.8366 104.221 34.9217 98.2594 39.7542Z" fill="#FCC710" stroke="white"/>
<path d="M96.7181 91.373C96.5132 93.9322 96.3915 95.4655 95.7683 96.4359C95.0617 97.5406 94.2699 96.9093 91.6508 98.6517C90.1353 99.6604 88.9166 100.377 88.7992 101.501C88.6369 103.066 90.7095 103.983 90.3829 104.666C90.0094 105.451 86.8781 105.069 84.3658 103.717C83.0723 103.019 82.5024 101.324 81.5141 101.501C81.2857 101.541 80.9869 101.678 80.7756 101.923C80.4768 102.264 80.4661 102.68 80.4576 103.452C80.4512 104.186 80.4469 104.553 80.6177 104.824C80.9698 105.384 81.5248 105.218 81.9368 105.719C82.3231 106.191 82.1694 106.745 82.1481 107.619C82.1225 108.605 82.0883 109.995 82.6753 110.784C83.749 112.226 86.4405 111.049 87.2154 112.42C87.5462 113 87.1236 113.324 87.48 114.529C87.5761 114.855 87.8771 115.875 88.6412 116.534C90.1631 117.848 93.2239 117.485 94.3958 116.007C95.0041 115.239 94.8889 114.444 95.6103 114.16C96.1076 113.964 96.6263 114.16 97.6167 114.529C98.0351 114.685 98.6306 114.943 99.4118 115.427C100.9 116.346 100.84 116.713 101.418 116.798C102.232 116.916 102.518 116.214 104.428 114.951C106.217 113.77 106.594 113.968 107.277 113.105C107.892 112.328 108.174 111.426 108.439 110.573C108.883 109.149 108.635 108.991 109.019 108.411C109.762 107.293 110.833 107.658 111.606 106.617C112.34 105.63 112.349 103.998 111.713 103.557C111.124 103.149 109.973 103.755 108.439 104.559C106.991 105.32 106.652 105.77 106.063 105.615C105.228 105.395 104.782 104.194 104.744 103.346C104.737 103.203 104.695 101.893 105.482 101.394C105.916 101.121 106.182 101.354 106.539 101.079C107.111 100.635 107.194 99.428 106.697 98.705C106.253 98.0588 105.715 98.3318 105.166 97.756C104.597 97.1567 104.791 96.4572 104.69 94.2201C104.609 92.3604 104.558 91.4242 104.11 91.1619C103.371 90.7268 102.648 92.0341 100.996 91.8464C100.342 91.7739 99.2475 91.4327 98.3019 90.6863C97.8024 90.2917 97.4972 89.9036 97.1941 90.0017C96.8078 90.1254 96.7544 90.9358 96.7181 91.373Z" fill="#FCC710" stroke="white"/>
<path d="M113.566 47.3744C114.334 47.8457 115.339 46.3827 117.218 46.0073C118.379 45.7749 120.197 45.8922 121.098 46.918C122.488 48.5004 120.567 50.9529 121.783 52.1643C122.678 53.0536 124.076 52.0853 128.174 52.1643C130.334 52.2048 131.414 52.2261 132.055 52.6206C135.246 54.5912 133.45 61.4689 135.704 62.1983C136.772 62.5417 137.429 61.5201 138.902 61.5137C140.242 61.5073 139.924 68.6495 144.77 67.6109L143.754 74.8577C142.723 75.6553 140.789 76.7088 140.727 78.8457C140.665 81.0039 138.966 79.8288 138.445 81.5819C137.717 84.0237 138.159 86.5168 138.902 87.5106C139.976 88.9501 139.79 88.1973 139.976 88.9501C140.144 89.6347 140.774 90.0122 139.585 92.0723C138.481 93.9853 138.646 96.9091 140.042 98.001C141.066 98.8008 141.886 97.9392 144.836 98.4574C146.704 98.7837 148.114 99.4363 148.943 99.8245C151.566 101.057 151.267 101.686 152.823 102.106C155.406 102.802 156.403 101.119 158.757 102.106C159.673 102.488 161.265 103.471 161.269 103.473C163.188 103.721 163.464 106.933 161.041 108.035C159.619 108.681 158.838 108.831 158.074 109.63C156.721 111.046 159.521 111.605 159.214 116.472C159.133 117.754 158.45 119.274 157.16 121.034C157.515 122.831 156.676 122.767 156.721 124.454C156.74 125.169 158.193 125.806 157.617 128.331C157.171 130.279 157.173 130.498 156.932 131.524C155.777 136.459 154.494 136.787 154.65 139.276C154.684 139.852 154.849 141.987 156.475 143.61C157.852 144.981 159.463 145.228 160.812 145.433C161.303 145.51 161.972 145.646 162.866 145.621C163.7 145.597 165.961 145.535 167.432 144.066C167.918 143.58 168.196 142.823 168.8 141.33C169.942 138.517 169.611 137.922 170.398 136.996C171.696 135.467 174.492 134.851 175.647 135.855C176.887 136.934 175.4 139.15 176.789 140.645C177.856 141.795 180.123 141.98 181.355 141.102C182.478 140.3 181.976 139.155 183.18 138.137C184.142 137.325 184.768 137.796 187.06 137.225C190.098 136.467 190.589 135.243 192.081 135.627C193.184 135.913 193.011 136.606 194.821 137.681C196.725 138.811 197.818 138.579 198.017 139.276C198.352 140.47 195.282 141.611 195.504 143.153C195.692 144.452 198.081 145.1 198.471 145.207C201.494 146.026 202.885 144.258 204.862 145.207C206.681 146.077 205.987 147.8 207.831 148.854C210.062 150.131 211.75 147.986 214.905 149.082C217.001 149.811 216.574 150.865 218.785 151.592C221.631 152.526 223.005 151.003 224.948 152.275C226.222 153.108 226.273 154.185 227.688 154.556C228.104 154.665 228.44 154.661 230.198 154.328C233.02 153.793 234.437 153.516 234.762 152.959C235.195 152.221 234.576 151.82 234.762 149.538C234.86 148.344 234.928 147.638 235.447 147.259C235.976 146.873 236.405 147.237 238.186 147.259C239.801 147.278 239.994 146.983 240.698 147.259C241.582 147.604 242.258 148.453 242.523 149.31C242.988 150.812 242.055 151.886 242.523 152.275C242.99 152.665 243.921 151.588 245.947 151.136C247.439 150.801 248.734 150.982 249.827 151.136C251.417 151.358 251.616 151.66 253.251 151.82C254.689 151.959 255.774 151.844 255.989 151.82C256.965 151.709 258.536 151.407 260.327 150.451C261.738 151.208 262.726 151.739 263.294 152.046C268.222 154.727 268.948 155.668 269.913 155.239C270.365 155.038 270.276 154.8 271.738 152.046C272.261 151.065 272.82 150.014 273.565 148.854C274.764 146.981 275.366 146.043 276.075 145.661C278.098 144.574 280.244 146.06 280.867 145.207C281.132 144.847 281.144 144.043 279.727 142.014C279.872 143.535 279.433 138.971 279.27 137.453C278.989 134.806 278.841 133.469 278.585 132.891C277.941 131.441 276.886 130.319 276.303 129.698C275.398 128.739 275.061 128.643 274.248 127.647C273.953 127.284 273.264 126.397 272.651 125.139C271.533 122.84 272.16 122.356 271.281 121.262C270.098 119.788 268.662 120.289 268.086 118.982C267.595 117.864 268.54 117.278 268.086 115.787C267.714 114.567 267.006 114.723 266.261 113.279C265.332 111.481 266.064 110.528 265.119 109.63C264.278 108.833 263.471 109.374 262.608 108.491C262.009 107.877 262.154 107.365 261.695 105.981C261.283 104.736 260.762 103.936 259.87 102.561C258.408 100.313 258.03 100.639 257.36 99.3681C255.9 96.6042 257.665 95.0004 256.218 92.7548C255.255 91.2619 254.427 91.8974 252.794 90.0186C250.99 87.9457 251.802 86.9412 250.056 85.2308C248.657 83.8595 247.697 84.0728 246.632 82.4946C245.885 81.3857 246.186 81.0295 245.49 79.9845C244.401 78.3531 243.108 78.3957 241.609 77.2483C240.262 76.2161 240.638 75.6659 238.414 71.5478C236.627 68.2337 234.98 65.988 234.534 65.3909C232.813 63.077 232.717 63.4352 231.338 61.5137C228.924 58.1463 229.409 57.3146 227.231 54.444C225.426 52.0662 224.933 52.4266 223.351 50.1105C222.047 48.2018 221.409 46.532 220.612 44.41C219.221 40.6992 219.761 40.6651 218.557 37.5685C217.622 35.1629 217.295 35.1863 215.133 30.4988C214.03 28.106 214.22 28.3256 213.308 26.3956C212.292 24.2395 211.921 23.6807 209.656 19.3259C207.406 14.9988 207.272 14.5893 207.146 14.0796C206.657 12.1304 206.875 11.1664 206.004 9.29183C205.201 7.56226 204.717 7.73713 204.179 6.32746C203.163 3.66166 204.326 1.56102 203.494 1.08117C203.157 0.889237 202.484 0.953211 200.984 2.22213C200.984 2.22213 198.809 2.7489 198.017 4.04554C197.684 4.58936 197.79 4.94764 197.788 6.55565C197.786 7.48762 197.752 6.15898 197.56 10.6588C197.381 14.826 197.464 14.6938 197.331 15.2206C197.063 16.2784 196.467 17.2935 195.276 19.3259C194.087 21.354 193.494 22.367 192.766 23.203C191.489 24.6681 191.071 24.5167 188.202 26.852C185.357 29.1659 185.581 29.4645 184.093 30.2706C182.392 31.194 180.825 31.4905 178.843 31.8679C176.919 32.2326 175.485 32.2902 174.507 32.3243C172.147 32.4054 170.947 32.4352 169.942 31.8679C168.887 31.2708 168.802 30.6523 167.66 30.2706C166.563 29.9059 165.575 30.1213 164.921 30.2706C162.42 30.8464 160.49 32.6314 160.584 32.7807C160.665 32.9087 162.488 32.1175 162.409 31.6397C162.337 31.1834 160.64 31.6397 158.531 30.727C156.979 30.0573 156.652 29.2725 155.335 29.1318C154.386 29.0294 153.572 29.3301 153.051 29.5881C153.051 29.5881 151.092 31.081 148.943 31.1834C147.54 31.2495 146.4 30.7078 145.976 30.4988C144.646 29.8483 144.505 29.2149 143.694 28.9036C142.838 28.5751 141.404 28.6711 138.902 30.727C138.94 30.7078 137.523 31.5203 136.618 31.8679C134.424 32.7125 132.304 31.9554 132.283 32.0961C132.262 32.2262 134.076 32.657 134.108 32.5525C134.142 32.4416 132.065 32.19 129.771 30.727C128.586 29.972 128.225 29.4559 127.26 29.36C126.842 29.3173 126.396 29.3621 124.75 30.0445C122.136 31.1236 122.103 31.4841 121.098 31.6397C119.943 31.8189 119.926 31.354 117.446 30.9552C115.627 30.6651 114.315 30.454 112.88 30.9552C111.519 31.4329 111.779 31.9468 110.37 32.5525C107.969 33.5847 106.703 32.3094 105.121 33.4653C104.257 34.0944 104.535 34.5487 103.294 35.5169C102.494 36.1417 102.184 36.1034 101.013 36.8839C99.749 37.7284 99.1172 38.1486 98.9592 38.7094C98.8013 39.2661 99.004 39.989 101.698 42.8148C104.436 45.6853 104.658 45.3867 105.807 46.918C107.326 48.9482 107.454 50.1574 108.545 50.3387C109.585 50.5115 110.707 49.6158 111.284 48.7435C111.188 48.5708 110.498 47.2976 111.055 46.1332C111.122 45.9924 111.352 45.5296 111.866 45.2204C112.238 44.9986 112.874 44.7853 113.083 45.0178C113.275 45.2289 112.917 45.5936 112.983 46.2355C113.021 46.6215 113.222 47.1632 113.566 47.3744Z" fill="#FCC710" stroke="white"/>
</svg>
