<svg width="12" height="12" viewBox="0 0 12 12" fill="none" xmlns="http://www.w3.org/2000/svg">
<path fill-rule="evenodd" clip-rule="evenodd" d="M11.3263 1.33946C11.6327 1.03304 11.6327 0.536235 11.3263 0.229815C11.0198 -0.0766051 10.523 -0.0766049 10.2166 0.229815L5.83374 4.61269L1.45099 0.229933C1.14457 -0.0764866 0.64776 -0.0764866 0.34134 0.229933C0.0349204 0.536353 0.0349206 1.03316 0.341341 1.33958L4.7241 5.72234L0.229815 10.2166C-0.0766049 10.523 -0.0766049 11.0198 0.229815 11.3263C0.536235 11.6327 1.03304 11.6327 1.33946 11.3263L5.83374 6.83198L10.3281 11.3264C10.6346 11.6328 11.1314 11.6328 11.4378 11.3264C11.7442 11.02 11.7442 10.5232 11.4378 10.2167L6.94339 5.72234L11.3263 1.33946Z" fill="#9C9DA1"/>
</svg>
