<svg width="6" height="6" viewBox="0 0 6 6" fill="none" xmlns="http://www.w3.org/2000/svg">
<path d="M3.52837 2.99968L5.88916 0.642387C5.95972 0.571817 5.99936 0.476103 5.99936 0.376302C5.99936 0.2765 5.95972 0.180787 5.88916 0.110216C5.81859 0.039646 5.72289 0 5.6231 0C5.52331 0 5.4276 0.039646 5.35704 0.110216L3 2.47126L0.642958 0.110216C0.572396 0.039646 0.476692 8.86082e-08 0.376901 8.93517e-08C0.27711 9.00953e-08 0.181407 0.039646 0.110844 0.110216C0.0402813 0.180787 0.000639602 0.2765 0.000639601 0.376302C0.0006396 0.476103 0.0402813 0.571817 0.110844 0.642387L2.47163 2.99968L0.110844 5.35697C0.0757213 5.39181 0.0478438 5.43326 0.0288193 5.47893C0.00979483 5.5246 0 5.57358 0 5.62306C0 5.67253 0.00979483 5.72152 0.0288193 5.76719C0.0478438 5.81285 0.0757213 5.8543 0.110844 5.88914C0.14568 5.92427 0.187125 5.95215 0.232789 5.97118C0.278453 5.9902 0.327433 6 0.376901 6C0.42637 6 0.475349 5.9902 0.521013 5.97118C0.566677 5.95215 0.608123 5.92427 0.642958 5.88914L3 3.5281L5.35704 5.88914C5.39188 5.92427 5.43332 5.95215 5.47899 5.97118C5.52465 5.9902 5.57363 6 5.6231 6C5.67257 6 5.72155 5.9902 5.76721 5.97118C5.81287 5.95215 5.85432 5.92427 5.88916 5.88914C5.92428 5.8543 5.95216 5.81285 5.97118 5.76719C5.99021 5.72152 6 5.67253 6 5.62306C6 5.57358 5.99021 5.5246 5.97118 5.47893C5.95216 5.43326 5.92428 5.39181 5.88916 5.35697L3.52837 2.99968Z" fill="white"/>
</svg>
