<svg width="8" height="8" viewBox="0 0 8 8" fill="none" xmlns="http://www.w3.org/2000/svg">
<path d="M6.4 3.528C6.29391 3.528 6.19217 3.57014 6.11716 3.64516C6.04214 3.72017 6 3.82191 6 3.928V6.8C6 6.90609 5.95786 7.00783 5.88284 7.08284C5.80783 7.15786 5.70609 7.2 5.6 7.2H1.2C1.09391 7.2 0.992172 7.15786 0.917157 7.08284C0.842143 7.00783 0.8 6.90609 0.8 6.8V2.4C0.8 2.29391 0.842143 2.19217 0.917157 2.11716C0.992172 2.04214 1.09391 2 1.2 2H4.072C4.17809 2 4.27983 1.95786 4.35484 1.88284C4.42986 1.80783 4.472 1.70609 4.472 1.6C4.472 1.49391 4.42986 1.39217 4.35484 1.31716C4.27983 1.24214 4.17809 1.2 4.072 1.2H1.2C0.88174 1.2 0.576516 1.32643 0.351472 1.55147C0.126428 1.77652 0 2.08174 0 2.4V6.8C0 7.11826 0.126428 7.42348 0.351472 7.64853C0.576516 7.87357 0.88174 8 1.2 8H5.6C5.91826 8 6.22348 7.87357 6.44853 7.64853C6.67357 7.42348 6.8 7.11826 6.8 6.8V3.928C6.8 3.82191 6.75786 3.72017 6.68284 3.64516C6.60783 3.57014 6.50609 3.528 6.4 3.528ZM7.968 0.248C7.92741 0.15026 7.84974 0.0725899 7.752 0.032C7.70391 0.0115036 7.65227 0.000631995 7.6 0H5.2C5.09391 0 4.99217 0.0421427 4.91716 0.117157C4.84214 0.192172 4.8 0.293913 4.8 0.4C4.8 0.506087 4.84214 0.607828 4.91716 0.682843C4.99217 0.757857 5.09391 0.8 5.2 0.8H6.636L2.516 4.916C2.47851 4.95319 2.44875 4.99743 2.42844 5.04617C2.40814 5.09491 2.39768 5.1472 2.39768 5.2C2.39768 5.2528 2.40814 5.30509 2.42844 5.35383C2.44875 5.40257 2.47851 5.44682 2.516 5.484C2.55319 5.52149 2.59743 5.55125 2.64617 5.57156C2.69491 5.59186 2.7472 5.60232 2.8 5.60232C2.8528 5.60232 2.90509 5.59186 2.95383 5.57156C3.00257 5.55125 3.04681 5.52149 3.084 5.484L7.2 1.364V2.8C7.2 2.90609 7.24214 3.00783 7.31716 3.08284C7.39217 3.15786 7.49391 3.2 7.6 3.2C7.70609 3.2 7.80783 3.15786 7.88284 3.08284C7.95786 3.00783 8 2.90609 8 2.8V0.4C7.99937 0.347729 7.9885 0.296089 7.968 0.248Z" fill="#999999"/>
</svg>
