<svg width="18" height="17" viewBox="0 0 18 17" fill="none" xmlns="http://www.w3.org/2000/svg">
<path d="M15.3846 1H2.57691C1.6923 1 1 1.7 1 2.59445V10.1778C1 11.0722 1.6923 11.7722 2.57691 11.7722H6.69231L9 15L11.3077 11.7722H15.4231C16.3077 11.7722 17 11.0722 17 10.1778V2.59445C16.9615 1.73889 16.2692 1 15.3846 1Z" stroke="#222222" stroke-width="1.4"/>
<path d="M9.00002 7.64995C9.59478 7.64995 10.0769 7.16244 10.0769 6.56106C10.0769 5.95969 9.59478 5.47217 9.00002 5.47217C8.40525 5.47217 7.9231 5.95969 7.9231 6.56106C7.9231 7.16244 8.40525 7.64995 9.00002 7.64995Z" fill="#222222"/>
<path d="M6.61539 6.56106C6.61539 7.1444 6.11539 7.64995 5.53847 7.64995C4.96154 7.64995 4.46155 7.1444 4.46155 6.56106C4.46155 5.97773 4.96154 5.47217 5.53847 5.47217C6.11539 5.47217 6.61539 5.97773 6.61539 6.56106Z" fill="#222222"/>
<path d="M13.5385 6.56106C13.5385 7.1444 13.0385 7.64995 12.4616 7.64995C11.8846 7.64995 11.3846 7.1444 11.3846 6.56106C11.3846 5.97773 11.8846 5.47217 12.4616 5.47217C13.0769 5.47217 13.5385 5.97773 13.5385 6.56106Z" fill="#222222"/>
</svg>
