<svg width="22" height="22" viewBox="0 0 22 22" fill="none" xmlns="http://www.w3.org/2000/svg">
<path d="M17.5558 2.27051H19.1869C19.3135 2.27051 19.4363 2.28238 19.5511 2.30614C19.6698 2.32989 19.7846 2.36551 19.8915 2.41302C19.9984 2.46053 20.1053 2.51595 20.2003 2.5793C20.2953 2.64264 20.3864 2.71785 20.4695 2.80099C20.5527 2.88412 20.6279 2.97122 20.6912 3.07019C20.7585 3.1652 20.8139 3.26813 20.8575 3.37898C20.905 3.48586 20.9406 3.60068 20.9644 3.71944C20.9881 3.83821 21 3.96092 21 4.08365V5.86117V6.79941V9.41223V11.1897V12.9673V14.7448V16.5223V18.2998C21 18.4265 20.9881 18.5453 20.9644 18.664C20.9406 18.7828 20.905 18.8976 20.8575 19.0045C20.81 19.1114 20.7546 19.2183 20.6912 19.3133C20.6279 19.4083 20.5527 19.4993 20.4695 19.5825C20.3864 19.6656 20.2993 19.7408 20.2003 19.8042C20.1053 19.8675 20.0024 19.9269 19.8915 19.9704C19.7846 20.0179 19.6698 20.0536 19.5511 20.0773C19.4323 20.1011 19.3096 20.113 19.1869 20.113H17.1401H15.0934H13.0467H11H8.95329H6.90657H4.85986H2.81314C2.68646 20.113 2.5677 20.1011 2.44893 20.0773C2.33017 20.0536 2.21536 20.0179 2.10847 19.9704C2.00158 19.9229 1.89469 19.8675 1.79968 19.8042C1.70467 19.7408 1.61362 19.6656 1.53048 19.5825C1.44735 19.4993 1.37609 19.4122 1.30879 19.3133C1.24149 19.2183 1.18606 19.1153 1.14251 19.0045C1.09501 18.8976 1.05938 18.7828 1.03563 18.664C1.01188 18.5453 1 18.4225 1 18.2998V16.5223V14.7448V12.9673V11.1897V9.41223V6.79941V5.86117V4.08365C1 3.95696 1.01188 3.83821 1.03563 3.71944C1.05938 3.60068 1.09501 3.48586 1.14251 3.37898C1.19002 3.26813 1.24545 3.1652 1.30879 3.07019C1.37609 2.97518 1.44735 2.88412 1.53048 2.80099C1.61362 2.71785 1.70467 2.64264 1.79968 2.5793C1.89469 2.512 1.99762 2.45657 2.10847 2.41302C2.21931 2.36551 2.33017 2.32989 2.44893 2.30614C2.5677 2.28238 2.69041 2.27051 2.81314 2.27051H4.44417" stroke="#FBB807" stroke-width="1.8" stroke-linecap="square" stroke-linejoin="round"/>
<path d="M9.36133 2.27051H10.9924H12.6234" stroke="#FBB807" stroke-width="1.8" stroke-linecap="square" stroke-linejoin="round"/>
<path d="M6.9541 1V3.2407" stroke="#FBB807" stroke-width="1.8" stroke-linecap="square" stroke-linejoin="round"/>
<path d="M15.0303 1V3.2407" stroke="#FBB807" stroke-width="1.8" stroke-linecap="square" stroke-linejoin="round"/>
<path d="M1.16602 6.49902H20.5762" stroke="#FBB807" stroke-width="1.8" stroke-linecap="square" stroke-linejoin="round"/>
<path d="M5.26758 11.0752H6.91445" stroke="#FBB807" stroke-width="1.8" stroke-linecap="square" stroke-linejoin="round"/>
<path d="M10.168 11.0752H11.8148" stroke="#FBB807" stroke-width="1.8" stroke-linecap="square" stroke-linejoin="round"/>
<path d="M15.0703 11.0752H16.7172" stroke="#FBB807" stroke-width="1.8" stroke-linecap="square" stroke-linejoin="round"/>
<path d="M5.26758 15.3032H6.91445" stroke="#FBB807" stroke-width="1.8" stroke-linecap="square" stroke-linejoin="round"/>
<path d="M10.168 15.3032H11.8148" stroke="#FBB807" stroke-width="1.8" stroke-linecap="square" stroke-linejoin="round"/>
<path d="M15.0703 15.3032H16.7172" stroke="#FBB807" stroke-width="1.8" stroke-linecap="square" stroke-linejoin="round"/>
</svg>
