<svg width="22" height="22" viewBox="0 0 22 22" fill="none" xmlns="http://www.w3.org/2000/svg">
<path d="M1.16602 6.75391H20.5762" stroke="white" stroke-width="2" stroke-linecap="round" stroke-linejoin="round"/>
<path d="M17.5558 2.32959H19.1869C19.3135 2.32959 19.4363 2.34202 19.5511 2.36687C19.6698 2.39173 19.7846 2.429 19.8915 2.47871C19.9984 2.52842 20.1053 2.58642 20.2003 2.6527C20.2953 2.71898 20.3864 2.79769 20.4695 2.88468C20.5527 2.97168 20.6279 3.06281 20.6912 3.16637C20.7585 3.26579 20.8139 3.37349 20.8575 3.48948C20.905 3.60133 20.9406 3.72147 20.9644 3.84575C20.9881 3.97002 21 4.09843 21 4.22685V6.08684V7.06861V9.80265V11.6626V13.5226V15.3826V17.2426V19.1026C21 19.2351 20.9881 19.3594 20.9644 19.4837C20.9406 19.608 20.905 19.7281 20.8575 19.8399C20.81 19.9518 20.7546 20.0636 20.6912 20.163C20.6279 20.2625 20.5527 20.3577 20.4695 20.4447C20.3864 20.5317 20.2993 20.6104 20.2003 20.6767C20.1053 20.743 20.0024 20.8051 19.8915 20.8507C19.7846 20.9004 19.6698 20.9377 19.5511 20.9625C19.4323 20.9874 19.3096 20.9998 19.1869 20.9998H17.1401H15.0934H13.0467H11H8.95329H6.90657H4.85986H2.81314C2.68646 20.9998 2.5677 20.9874 2.44893 20.9625C2.33017 20.9377 2.21536 20.9004 2.10847 20.8507C2.00158 20.801 1.89469 20.743 1.79968 20.6767C1.70467 20.6104 1.61362 20.5317 1.53048 20.4447C1.44735 20.3577 1.37609 20.2666 1.30879 20.163C1.24149 20.0636 1.18606 19.9559 1.14251 19.8399C1.09501 19.7281 1.05938 19.608 1.03563 19.4837C1.01188 19.3594 1 19.231 1 19.1026V17.2426V15.3826V13.5226V11.6626V9.80265V7.06861V6.08684V4.22685C1 4.09429 1.01188 3.97002 1.03563 3.84575C1.05938 3.72147 1.09501 3.60133 1.14251 3.48948C1.19002 3.37349 1.24545 3.26579 1.30879 3.16637C1.37609 3.06695 1.44735 2.97168 1.53048 2.88468C1.61362 2.79769 1.70467 2.71898 1.79968 2.6527C1.89469 2.58228 1.99762 2.52428 2.10847 2.47871C2.21931 2.429 2.33017 2.39173 2.44893 2.36687C2.5677 2.34202 2.69041 2.32959 2.81314 2.32959H4.44417" stroke="white" stroke-width="2" stroke-linecap="round" stroke-linejoin="round"/>
<path d="M9.36133 2.32959H10.9924H12.6234" stroke="white" stroke-width="2" stroke-linecap="round" stroke-linejoin="round"/>
<path d="M6.9541 1V3.34466" stroke="white" stroke-width="2" stroke-linecap="round" stroke-linejoin="round"/>
<path d="M15.0303 1V3.34466" stroke="white" stroke-width="2" stroke-linecap="round" stroke-linejoin="round"/>
<path d="M5.26758 15.9668H6.91445" stroke="white" stroke-width="2" stroke-linecap="round" stroke-linejoin="round"/>
<path d="M10.1689 15.9668H11.8158" stroke="white" stroke-width="2" stroke-linecap="round" stroke-linejoin="round"/>
<path d="M15.0693 15.9668H16.7162" stroke="white" stroke-width="2" stroke-linecap="round" stroke-linejoin="round"/>
<path d="M5.26758 11.5427H6.91445" stroke="white" stroke-width="2" stroke-linecap="round" stroke-linejoin="round"/>
<path d="M10.1689 11.5427H11.8158" stroke="white" stroke-width="2" stroke-linecap="round" stroke-linejoin="round"/>
<path d="M15.0693 11.5427H16.7162" stroke="white" stroke-width="2" stroke-linecap="round" stroke-linejoin="round"/>
</svg>
