<svg width="15" height="16" viewBox="0 0 15 16" fill="none" xmlns="http://www.w3.org/2000/svg">
<path d="M7.24044 12.3913C7.31255 12.4638 7.40627 12.5 7.5 12.5C7.59373 12.5 7.68745 12.4638 7.75956 12.3913L10.8924 9.24275C10.9969 9.13768 11.0294 8.97827 10.9717 8.84058C10.914 8.7029 10.7806 8.61232 10.6328 8.61232H8.72932V6.86956C8.72932 6.66666 8.5635 6.5 8.36162 6.5H6.63838C6.4365 6.5 6.27068 6.66666 6.27068 6.86956V8.61232H4.36718C4.21938 8.61232 4.08238 8.7029 4.02831 8.84058C3.97062 8.97827 4.00308 9.13768 4.10763 9.24275L7.24044 12.3913Z" fill="white"/>
<path d="M10.2402 15H12.6084C13.3776 15 14 14.4504 14 13.7784V4.8533C14 4.75281 13.9535 4.66488 13.882 4.59893L9.90395 1.10677C9.82883 1.04082 9.72867 1 9.61419 1H2.39156C1.62244 1 1 1.54958 1 2.22163V13.7752C1 14.4504 1.62602 14.9969 2.39156 14.9969H10.1293H10.2402V15ZM10.1293 14.2808H2.39156C2.07318 14.2808 1.81562 14.0547 1.81562 13.7752V2.22163C1.81562 1.94213 2.07318 1.71602 2.39156 1.71602H9.20639V4.51727C9.20639 4.89727 9.56053 5.20816 9.99339 5.20816H13.1844V13.7752C13.1844 14.0547 12.9268 14.2808 12.6084 14.2808H10.2474H10.1293ZM10.022 4.49215V2.22476L12.6049 4.49215H10.022Z" fill="white" stroke="white" stroke-width="0.5" stroke-miterlimit="10"/>
</svg>
