<svg width="18" height="16" viewBox="0 0 18 16" fill="none" xmlns="http://www.w3.org/2000/svg">
<path fill-rule="evenodd" clip-rule="evenodd" d="M8.99757 0.125002C9.28314 0.124269 9.54435 0.285775 9.67131 0.541577L11.8189 4.86865L16.6082 5.56701C16.8904 5.60815 17.1247 5.80568 17.2131 6.07674C17.3014 6.3478 17.2285 6.64552 17.0248 6.845L13.5412 10.2567L14.3684 14.996C14.4177 15.2784 14.3017 15.5642 14.0696 15.7324C13.8374 15.9005 13.5297 15.9217 13.2768 15.7869L8.99953 13.5071L4.72325 15.7868C4.47014 15.9218 4.16224 15.9005 3.93006 15.7321C3.69788 15.5637 3.58208 15.2776 3.63175 14.9951L4.46493 10.2567L0.975721 6.84545C0.7717 6.64599 0.698525 6.34805 0.786935 6.07677C0.875345 5.80549 1.11002 5.60787 1.39239 5.56693L6.20776 4.86867L8.32598 0.545033C8.45162 0.288583 8.712 0.125736 8.99757 0.125002ZM9.00385 2.57082L7.38064 5.88407C7.27166 6.10651 7.05988 6.26079 6.81475 6.29634L3.10935 6.83364L5.79641 9.46062C5.97344 9.63369 6.05365 9.88297 6.01078 10.1268L5.37559 13.7392L8.64667 11.9954C8.86718 11.8778 9.13175 11.8778 9.35226 11.9953L12.6266 13.7405L11.9957 10.1259C11.9532 9.88254 12.0333 9.63391 12.2097 9.46108L14.8934 6.83283L11.2135 6.29625C10.97 6.26074 10.7594 6.10799 10.6499 5.88752L9.00385 2.57082Z" fill="#FCC710"/>
</svg>
