<svg width="18" height="16" viewBox="0 0 18 16" fill="none" xmlns="http://www.w3.org/2000/svg">
<path d="M9.67131 0.541577C9.54435 0.285775 9.28314 0.124269 8.99757 0.125002C8.712 0.125736 8.45162 0.288583 8.32598 0.545033L6.20776 4.86867L1.39239 5.56693C1.11002 5.60787 0.875345 5.80549 0.786935 6.07677C0.698525 6.34805 0.7717 6.64599 0.975721 6.84545L4.46493 10.2567L3.63175 14.9951C3.58208 15.2776 3.69788 15.5637 3.93006 15.7321C4.16224 15.9005 4.47014 15.9218 4.72325 15.7868L8.99953 13.5071L13.2768 15.7869C13.5297 15.9217 13.8374 15.9005 14.0696 15.7324C14.3017 15.5642 14.4177 15.2784 14.3684 14.996L13.5412 10.2567L17.0248 6.845C17.2285 6.64552 17.3014 6.3478 17.2131 6.07674C17.1247 5.80568 16.8904 5.60815 16.6082 5.56701L11.8189 4.86865L9.67131 0.541577Z" fill="#FCC710"/>
</svg>
