<svg width="10" height="9" viewBox="0 0 10 9" fill="none" xmlns="http://www.w3.org/2000/svg">
<path fill-rule="evenodd" clip-rule="evenodd" d="M0 0.947368C0 0.424151 0.407014 0 0.909091 0H3.86364C3.99854 0 4.12647 0.0624425 4.21283 0.170439L5.2129 1.42105H9.09091C9.59299 1.42105 10 1.8452 10 2.36842V8.05263C10 8.57586 9.59299 9 9.09091 9H0.909091C0.407018 9 0 8.57586 0 8.05263V0.947368ZM5 3.07895C5.25104 3.07895 5.45455 3.29102 5.45455 3.55263V5.72488L6.27575 4.8691C6.45326 4.68412 6.74106 4.68412 6.91857 4.8691C7.09608 5.05409 7.09608 5.35401 6.91857 5.539L5.32136 7.20345C5.14385 7.38844 4.85605 7.38844 4.67854 7.20345L3.0849 5.54271C2.90739 5.35773 2.90739 5.05781 3.0849 4.87282C3.26242 4.68784 3.55022 4.68784 3.72773 4.87282L4.54545 5.72498V3.55263C4.54545 3.29102 4.74896 3.07895 5 3.07895Z" fill="#EEEEEE"/>
</svg>
