<svg width="20" height="19" viewBox="0 0 20 19" fill="none" xmlns="http://www.w3.org/2000/svg">
<path d="M10.022 14C6.81318 14 4.3956 10.9094 4.3956 6.78867L4 1.63773C4 1.58867 4 1.53962 4 1.49057C4 1.24528 4.21978 1 4.43956 1H15.5604C15.7802 1 16 1.19623 16 1.49057C16 1.53962 16 1.53961 16 1.58867L15.6484 6.83773C15.6484 10.9094 13.2308 14 10.022 14ZM4.92307 1.98113L5.27472 6.73961C5.27472 10.3207 7.2967 13.0189 10.022 13.0189C12.7472 13.0189 14.7692 10.3207 14.7692 6.78867L15.0769 1.98113H4.92307Z" fill="#222222" stroke="#222222" stroke-width="0.4"/>
<path d="M7.18956 17.7701C7.14233 17.7701 7.0951 17.7701 7.04786 17.7241C6.81169 17.6321 6.66998 17.4022 6.76445 17.1264L8.03979 13.4482C8.13426 13.2183 8.37043 13.0804 8.65384 13.1724C8.89001 13.2643 9.03172 13.4942 8.93725 13.7701L7.66191 17.4482C7.56744 17.6321 7.3785 17.7701 7.18956 17.7701Z" fill="#222222" stroke="#222222" stroke-width="0.4"/>
<path d="M12.7632 17.7701C12.5743 17.7701 12.3854 17.6321 12.3381 17.4482L11.0628 13.7701C10.9683 13.5402 11.11 13.2643 11.3462 13.1724C11.5824 13.0804 11.8658 13.2183 11.9602 13.4482L13.2356 17.1264C13.3301 17.3563 13.1884 17.6321 12.9522 17.7241C12.8577 17.7701 12.8105 17.7701 12.7632 17.7701Z" fill="#222222" stroke="#222222" stroke-width="0.4"/>
<path d="M13.9914 18.0001H5.867C5.58359 18.0001 5.39465 17.8162 5.39465 17.5403C5.39465 17.2645 5.58359 17.0806 5.867 17.0806H13.9914C14.2748 17.0806 14.4637 17.2645 14.4637 17.5403C14.4637 17.8162 14.2275 18.0001 13.9914 18.0001Z" fill="#222222" stroke="#222222" stroke-width="0.4"/>
<path d="M15.9279 9.9541C15.8334 9.9541 15.7862 9.9541 15.6917 9.9541C15.55 9.90812 15.3611 9.86215 15.1722 9.77019C14.936 9.67824 14.8415 9.40238 14.936 9.1725C15.0305 8.94261 15.3139 8.85066 15.55 8.94261C15.6445 8.98859 15.739 9.03456 15.7862 9.03456C16.4003 9.12651 17.5811 8.29893 17.959 6.78169C18.1479 5.9541 18.0535 5.17248 17.6756 4.62076C17.4394 4.25294 17.1088 4.02306 16.7781 3.97708C16.6364 3.93111 16.4475 3.93111 16.3058 3.97708C16.0696 4.02306 15.7862 3.88514 15.739 3.65525C15.6917 3.42537 15.8335 3.1495 16.0696 3.10352C16.353 3.01157 16.6837 3.01157 16.9671 3.05754C17.5811 3.1495 18.1007 3.5633 18.4786 4.11502C18.9982 4.89663 19.1399 5.9541 18.8565 7.01157C18.4786 8.85065 17.0143 9.9541 15.9279 9.9541Z" fill="#222222" stroke="#222222" stroke-width="0.4"/>
<path d="M4.16652 9.9541C3.03289 9.9541 1.61585 8.80467 1.14351 7.01157C0.860097 5.9541 1.0018 4.89663 1.52138 4.11502C1.89925 3.5633 2.41884 3.19547 3.03289 3.05754C3.3163 3.01157 3.64694 3.01157 3.93035 3.10352C4.16652 3.1495 4.35546 3.42537 4.261 3.65525C4.21376 3.88514 3.93035 4.06904 3.69417 3.97708C3.55247 3.93111 3.36353 3.93111 3.22183 3.97708C2.84395 4.02306 2.56054 4.25294 2.32437 4.62076C1.94649 5.17248 1.85202 6.00008 2.04096 6.78169C2.41884 8.25295 3.59971 9.12651 4.21376 9.03456C4.30823 9.03456 4.35546 8.98859 4.44993 8.94261C4.6861 8.85066 4.96951 8.94261 5.06398 9.1725C5.15845 9.40238 5.06398 9.67824 4.8278 9.77019C4.63886 9.86215 4.49716 9.90812 4.30822 9.9541C4.30822 9.9541 4.21375 9.9541 4.16652 9.9541Z" fill="#222222" stroke="#222222" stroke-width="0.4"/>
<path d="M10.0236 4.25293L10.9683 6.09201L13.0939 6.41385L11.5351 7.83913L11.913 9.9081L10.0236 8.94259L8.13424 9.9081L8.51212 7.83913L7.00061 6.41385L9.07893 6.09201L10.0236 4.25293Z" fill="#222222"/>
</svg>
