<svg width="28" height="29" viewBox="0 0 28 29" fill="none" xmlns="http://www.w3.org/2000/svg">
<path d="M16.4111 25.5341L1.37167 25.1895C1.16167 25.1841 0.994742 25.0118 1.00013 24.8018L1.04321 23.0033C1.15091 18.2702 4.08015 14.7002 8.53328 13.8279L8.56019 12.6971C6.43863 11.814 5.22172 9.68704 5.28095 6.94086C5.35633 3.58621 8.14559 0.926178 11.5002 1.00156C14.8549 1.07695 17.5149 3.8662 17.4395 7.22085C17.3749 9.96704 16.061 12.0348 13.9018 12.8209L13.8749 13.9517C16.5564 14.5871 18.4949 15.9494 19.6365 18.001L18.9742 18.3725C17.8865 16.4179 16.0664 15.1902 13.4118 14.6248C13.2341 14.5871 13.1049 14.4255 13.1102 14.2425L13.1479 12.5355C13.1533 12.374 13.261 12.2286 13.4172 12.1801C15.4041 11.5717 16.6211 9.70858 16.6803 7.19933C16.7503 4.26468 14.4187 1.82542 11.4841 1.75541C8.54942 1.68541 6.11017 4.02236 6.04017 6.95162C5.98094 9.46088 7.11711 11.3778 9.07174 12.0778C9.2279 12.1317 9.32481 12.2825 9.32481 12.444L9.28715 14.1509C9.28176 14.334 9.14713 14.4848 8.96944 14.5171C4.72093 15.2171 1.90475 18.5556 1.80244 23.0141L1.77013 24.4357L16.4326 24.7749L16.4111 25.5341Z" fill="white" stroke="white" stroke-width="1.6" stroke-miterlimit="10"/>
<path d="M22.7766 22.6447L19.9894 22.579C19.8669 22.5747 19.7707 22.474 19.775 22.3559C19.7794 22.2334 19.88 22.1371 19.9982 22.1415L22.7854 22.2071C22.9079 22.2115 23.0041 22.3121 22.9998 22.4303C22.9954 22.5484 22.8947 22.6447 22.7766 22.6447Z" fill="white" stroke="white" stroke-miterlimit="10"/>
<path d="M21.3503 24.0054C21.2278 24.001 21.1315 23.9004 21.1359 23.7822L21.2015 20.9951C21.2059 20.8726 21.3065 20.7763 21.4247 20.7807C21.5472 20.785 21.6434 20.8857 21.639 21.0038L21.5734 23.791C21.5734 23.9091 21.4728 24.0054 21.3503 24.0054Z" fill="white" stroke="white" stroke-miterlimit="10"/>
<path d="M21.2652 27.7747C18.2932 27.7054 15.9383 25.2372 16.0012 22.2652C16.0705 19.2932 18.5388 16.9383 21.5108 17.0012C24.4764 17.0705 26.8377 19.5388 26.7684 22.5108C26.7054 25.4827 24.2309 27.844 21.2652 27.7747ZM21.4918 17.8953C19.011 17.8387 16.9457 19.8095 16.889 22.2904C16.8324 24.7712 18.8032 26.8302 21.284 26.8869C23.7649 26.9435 25.8239 24.9727 25.8806 22.4919C25.9435 20.0173 23.9727 17.952 21.4918 17.8953Z" fill="white" stroke="white" stroke-width="1.2" stroke-miterlimit="10"/>
</svg>
