<svg width="17" height="17" viewBox="0 0 17 17" fill="none" xmlns="http://www.w3.org/2000/svg">
<path d="M6.06632 10.9336C3.80716 8.67449 3.80716 4.95352 6.06632 2.69437C8.32547 0.435211 12.0464 0.435211 14.3056 2.69437C16.5648 4.95352 16.5648 8.67449 14.3056 10.9336C12.0464 13.1928 8.36977 13.1928 6.06632 10.9336Z" stroke="#222222" stroke-width="1.5" stroke-linecap="round" stroke-linejoin="round"/>
<path d="M13.6413 6.81383C13.6413 5.92789 13.2869 5.04194 12.6224 4.37749C11.958 3.71303 11.072 3.35864 10.1861 3.35864C9.83169 3.35864 9.52161 3.66872 9.52161 4.0231C9.52161 4.37748 9.83169 4.68756 10.1861 4.68756C10.7176 4.68756 11.2492 4.90906 11.6922 5.30773C12.0908 5.7064 12.3123 6.28227 12.3123 6.81383C12.3123 7.16821 12.6224 7.47829 12.9768 7.47829C13.3755 7.47829 13.6413 7.16821 13.6413 6.81383Z" fill="#222222"/>
<path d="M3.1427 16.3821C2.38965 17.1352 1.19363 17.2237 0.484873 16.515C-0.223882 15.8062 -0.135293 14.6545 0.617759 13.8572L2.47825 11.9967C3.2313 11.2436 4.42732 11.155 5.13608 11.8638C5.84483 12.5725 5.75624 13.7243 5.00319 14.5216L3.1427 16.3821Z" fill="#222222"/>
</svg>
