<svg width="24" height="27" viewBox="0 0 24 27" fill="none" xmlns="http://www.w3.org/2000/svg">
<path d="M22.0023 26H1.97792C1.71244 26 1.4978 25.7913 1.4978 25.5331V23.7038C1.4978 18.7269 4.5424 14.7827 9.11213 13.7609V13.1017C6.86963 12.2283 5.54785 10.0749 5.54785 7.26785C5.54785 3.81257 8.43996 1 11.9929 1C15.5459 1 18.4323 3.81257 18.4323 7.26785C18.4323 10.0749 17.1049 12.2283 14.8681 13.1017V13.7609C19.4378 14.7827 22.4824 18.7269 22.4824 23.7038V25.5331C22.4768 25.7913 22.2678 26 22.0023 26ZM2.45807 25.0716H21.5278V23.7038C21.5278 19.051 18.6244 15.3869 14.3032 14.5959C14.0773 14.5575 13.9135 14.3597 13.9135 14.14V12.7776C13.9135 12.5744 14.0434 12.3986 14.2411 12.3382C16.2689 11.6845 17.4777 9.79478 17.4777 7.27335C17.4777 4.32895 15.0206 1.93937 11.9929 1.93937C8.96528 1.93937 6.50812 4.33444 6.50812 7.27335C6.50812 9.79478 7.71692 11.6845 9.74477 12.3382C9.94247 12.3986 10.0724 12.5799 10.0724 12.7776V14.14C10.0724 14.3652 9.90859 14.5575 9.68264 14.5959C5.36145 15.3869 2.45807 19.051 2.45807 23.7038V25.0716Z" fill="white" stroke="white" stroke-width="1.3" stroke-miterlimit="10" stroke-linecap="round" stroke-linejoin="round"/>
</svg>
