<svg width="12" height="10" viewBox="0 0 12 10" fill="none" xmlns="http://www.w3.org/2000/svg">
<path d="M6.27577 0.0514379C6.17805 0.0074781 6.07087 -0.00873361 5.96516 0.00445716C5.85945 0.0176479 5.759 0.0597687 5.67406 0.126521L2.79792 2.49163H0.601703C0.442122 2.49163 0.289076 2.55755 0.176235 2.67489C0.0633935 2.79223 0 2.95138 0 3.11732V6.87147C0 7.03741 0.0633935 7.19656 0.176235 7.3139C0.289076 7.43124 0.442122 7.49716 0.601703 7.49716H2.79792L5.64398 9.86227C5.74984 9.95059 5.88131 9.9991 6.01703 9.99992C6.10691 10.0015 6.19577 9.97998 6.27577 9.93735C6.37816 9.88664 6.46468 9.80687 6.52537 9.70724C6.58605 9.6076 6.61842 9.49217 6.61874 9.37423V0.61456C6.61842 0.496626 6.58605 0.381187 6.52537 0.281554C6.46468 0.18192 6.37816 0.102149 6.27577 0.0514379ZM5.41533 8.07279L3.38157 6.38343C3.27571 6.29511 3.14424 6.2466 3.00852 6.24578H1.20341V3.74301H3.00852C3.14424 3.7422 3.27571 3.69368 3.38157 3.60536L5.41533 1.916V8.07279ZM7.90638 0.0451811C7.82737 0.0336777 7.74694 0.038471 7.66971 0.0592872C7.59247 0.0801034 7.51994 0.116535 7.45624 0.166501C7.39255 0.216468 7.33894 0.278991 7.29848 0.350501C7.25802 0.422012 7.2315 0.501108 7.22044 0.583275C7.20938 0.665442 7.21399 0.74907 7.23401 0.829385C7.25402 0.909699 7.28906 0.985127 7.33711 1.05136C7.43415 1.18513 7.57832 1.27333 7.73791 1.29656C8.59005 1.43312 9.36705 1.88229 9.92837 2.56283C10.4897 3.24337 10.7983 4.11034 10.7983 5.00691C10.7983 5.90348 10.4897 6.77045 9.92837 7.45099C9.36705 8.13153 8.59005 8.5807 7.73791 8.71726C7.57832 8.72887 7.42972 8.80593 7.32477 8.93149C7.21983 9.05704 7.16715 9.2208 7.17832 9.38675C7.18949 9.55269 7.2636 9.70722 7.38434 9.81635C7.50508 9.92547 7.66256 9.98025 7.82214 9.96864H7.90638C9.04531 9.78947 10.0847 9.19155 10.8358 8.28344C11.5869 7.37532 12 6.21723 12 5.01942C12 3.82162 11.5869 2.66352 10.8358 1.75541C10.0847 0.847294 9.04531 0.249374 7.90638 0.0702087V0.0451811ZM7.6296 6.16444C7.47002 6.19099 7.32712 6.28237 7.23233 6.41849C7.13754 6.5546 7.09864 6.7243 7.12417 6.89024C7.1497 7.05618 7.23758 7.20478 7.36848 7.30335C7.49937 7.40191 7.66256 7.44237 7.82214 7.41582C7.88744 7.41506 7.95229 7.40452 8.01469 7.38453C8.48343 7.2117 8.88917 6.8921 9.17612 6.46971C9.46306 6.04731 9.61713 5.54284 9.61713 5.02568C9.61713 4.50852 9.46306 4.00405 9.17612 3.58166C8.88917 3.15926 8.48343 2.83966 8.01469 2.66683C7.86309 2.61372 7.69741 2.62542 7.5541 2.69935C7.41079 2.77327 7.30159 2.90336 7.25053 3.06101C7.19946 3.21866 7.21071 3.39094 7.2818 3.53996C7.35289 3.68898 7.478 3.80254 7.6296 3.85564C7.85792 3.94569 8.0545 4.10585 8.19321 4.31484C8.33193 4.52382 8.40622 4.77175 8.40622 5.02568C8.40622 5.27961 8.33193 5.52754 8.19321 5.73652C8.0545 5.94551 7.85792 6.10567 7.6296 6.19572V6.16444Z" fill="#222222"/>
</svg>
