<svg width="12" height="10" viewBox="0 0 12 10" fill="none" xmlns="http://www.w3.org/2000/svg">
<path d="M6.25698 0.0514379C6.15955 0.0074781 6.05269 -0.00873361 5.9473 0.00445716C5.84191 0.0176479 5.74176 0.0597687 5.65708 0.126521L2.78954 2.49163H0.599902C0.440798 2.49163 0.288211 2.55755 0.175707 2.67489C0.0632037 2.79223 0 2.95138 0 3.11732V6.87147C0 7.03741 0.0632037 7.19656 0.175707 7.3139C0.288211 7.43124 0.440798 7.49716 0.599902 7.49716H2.78954L5.62708 9.86227C5.73263 9.95059 5.8637 9.9991 5.99902 9.99992C6.08863 10.0015 6.17722 9.97998 6.25698 9.93735C6.35906 9.88664 6.44533 9.80687 6.50583 9.70724C6.56633 9.6076 6.5986 9.49217 6.59892 9.37423V0.61456C6.5986 0.496626 6.56633 0.381187 6.50583 0.281554C6.44533 0.18192 6.35906 0.102149 6.25698 0.0514379ZM5.39912 8.07279L3.37145 6.38343C3.2659 6.29511 3.13483 6.2466 2.99951 6.24578H1.1998V3.74301H2.99951C3.13483 3.7422 3.2659 3.69368 3.37145 3.60536L5.39912 1.916V8.07279ZM10.5943 1.45299C10.4813 1.33517 10.3281 1.26897 10.1683 1.26897C10.0086 1.26897 9.85537 1.33517 9.74241 1.45299C9.62944 1.57081 9.56598 1.7306 9.56598 1.89723C9.56598 2.06385 9.62944 2.22365 9.74241 2.34147C10.0957 2.70933 10.3717 3.14982 10.5529 3.63493C10.7342 4.12004 10.8167 4.63917 10.7953 5.15934C10.7739 5.6795 10.6489 6.18933 10.4284 6.65643C10.2079 7.12353 9.89666 7.53768 9.51444 7.87257C9.42162 7.95536 9.35523 8.06571 9.32415 8.1889C9.29307 8.31209 9.29878 8.44224 9.34052 8.56195C9.38225 8.68167 9.45803 8.78524 9.55772 8.85883C9.65741 8.93243 9.77626 8.97253 9.89838 8.97379C10.0386 8.97408 10.1744 8.92316 10.2823 8.82988C10.7928 8.38395 11.2087 7.8321 11.5036 7.20942C11.7985 6.58675 11.966 5.90689 11.9953 5.21306C12.0247 4.51923 11.9153 3.82663 11.6741 3.17929C11.4328 2.53196 11.0651 1.94406 10.5943 1.45299ZM8.89655 3.22369C8.84061 3.16535 8.77421 3.11908 8.70113 3.0875C8.62805 3.05593 8.54972 3.03968 8.47062 3.03968C8.39151 3.03968 8.31318 3.05593 8.2401 3.0875C8.16702 3.11908 8.10062 3.16535 8.04468 3.22369C7.98875 3.28203 7.94438 3.35129 7.91411 3.42751C7.88384 3.50373 7.86826 3.58543 7.86826 3.66793C7.86826 3.75043 7.88384 3.83213 7.91411 3.90835C7.94438 3.98457 7.98875 4.05383 8.04468 4.11217C8.27 4.34577 8.39729 4.66304 8.39863 4.9944C8.39877 5.17669 8.36072 5.35681 8.28715 5.52217C8.21358 5.68753 8.10626 5.83412 7.9727 5.9517C7.91195 6.00423 7.86174 6.06874 7.82493 6.14154C7.78813 6.21433 7.76545 6.29399 7.75821 6.37594C7.75096 6.45789 7.75929 6.54053 7.78272 6.61912C7.80614 6.6977 7.8442 6.7707 7.89471 6.83393C7.94549 6.89683 8.00767 6.94867 8.07768 6.98649C8.14769 7.02431 8.22416 7.04737 8.30272 7.05434C8.38128 7.06132 8.46038 7.05207 8.53551 7.02713C8.61065 7.0022 8.68032 6.96206 8.74057 6.90901C9.00879 6.67445 9.22457 6.38152 9.37276 6.05078C9.52096 5.72003 9.59798 5.35947 9.59843 4.9944C9.59504 4.33123 9.34314 3.69574 8.89655 3.22369Z" fill="#F8A80F"/>
</svg>
