<svg width="11" height="14" viewBox="0 0 11 14" fill="none" xmlns="http://www.w3.org/2000/svg">
<path d="M11 5.80081C11 2.59714 8.53754 0 5.5 0C2.46246 0 0 2.59714 0 5.80081C0 7.36246 0.586169 8.77941 1.53817 9.82221L1.54718 9.83099C1.59014 9.87775 5.5 14 5.5 14C5.5 14 9.41056 9.87702 9.45421 9.82952L9.46183 9.82148C10.4131 8.77941 11 7.36246 11 5.80081ZM5.5 7.68546C4.51474 7.68546 3.71378 6.83996 3.71378 5.80154C3.71378 4.7624 4.51543 3.91763 5.5 3.91763C6.48526 3.91763 7.28622 4.76313 7.28622 5.80154C7.28622 6.83996 6.48526 7.68546 5.5 7.68546Z" fill="#F8A80F"/>
</svg>
