<svg width="16" height="14" viewBox="0 0 16 14" fill="none" xmlns="http://www.w3.org/2000/svg">
<path d="M6.97545 13L3.22789 9.78632C2.93221 9.53452 2.74653 9.37549 2.64339 9.26285C1.5982 8.36831 1 7.08283 1 5.74435C1 3.12701 3.20725 1 5.92336 1H10.0766C12.7927 1 15 3.12701 15 5.74435C15 8.36169 12.7927 10.4887 10.0766 10.4887H6.98229V13H6.97545ZM3.2485 8.97792C3.77109 9.4285 5.32512 10.7604 6.33592 11.6284V9.87908H10.0698C12.4283 9.87908 14.3536 8.03036 14.3536 5.75096C14.3536 3.47818 12.4352 1.62286 10.0698 1.62286H5.91648C3.55793 1.62286 1.6326 3.47155 1.6326 5.75096C1.6326 6.91717 2.14832 8.03037 3.05599 8.81888L3.2485 8.97792Z" fill="#D42363" stroke="#D42363" stroke-width="0.5" stroke-miterlimit="10"/>
<ellipse cx="5" cy="6" rx="1" ry="1" fill="#D42263"/>
<ellipse cx="8" cy="6" rx="1" ry="1" fill="#D42263"/>
<circle cx="11" cy="6" r="1" fill="#D42263"/>
</svg>
