<svg width="27" height="27" viewBox="0 0 27 27" fill="none" xmlns="http://www.w3.org/2000/svg">
<path d="M15.554 26H12.2729C12.0849 26 11.9238 25.8603 11.897 25.6722L11.5587 23.1464C10.5706 22.9046 9.6308 22.5176 8.76621 21.9856L6.73633 23.5333C6.58597 23.6462 6.37651 23.6354 6.24226 23.5011L3.9224 21.1795C3.78815 21.0451 3.77204 20.8356 3.89018 20.6851L5.43674 18.6591C4.9051 17.7885 4.51847 16.848 4.27681 15.8646L1.75286 15.5206C1.56491 15.4938 1.42529 15.3326 1.42529 15.1445V11.8609C1.42529 11.6728 1.56491 11.5116 1.75286 11.4847L4.27681 11.1408C4.51847 10.1574 4.9051 9.21691 5.43674 8.34631L3.89018 6.31493C3.77741 6.16445 3.78815 5.94949 3.9224 5.82051L6.24226 3.49892C6.37651 3.36457 6.58597 3.35382 6.73633 3.46668L8.76621 5.0144C9.63617 4.48237 10.5759 4.09544 11.5587 3.85361L11.897 1.32781C11.9238 1.13972 12.0796 1 12.2729 1H15.554C15.742 1 15.9031 1.13972 15.9299 1.32781L16.2736 3.85361C17.2617 4.09544 18.1961 4.48237 19.0661 5.0144L21.0906 3.46668C21.241 3.35382 21.4504 3.36457 21.5846 3.49892L23.9045 5.82051C24.0388 5.95486 24.0495 6.16445 23.9367 6.31493L22.3902 8.34631C22.9218 9.21691 23.3085 10.152 23.5501 11.1408L26.0741 11.4847C26.262 11.5116 26.4016 11.6675 26.4016 11.8609V15.1445C26.4016 15.3326 26.262 15.4938 26.0741 15.5206L23.5501 15.8646C23.3085 16.8534 22.9218 17.7885 22.3902 18.6591L23.9367 20.6851C24.0495 20.8356 24.0388 21.0451 23.9045 21.1795L21.5846 23.5011C21.4504 23.6354 21.241 23.6462 21.0906 23.5333L19.0607 21.9856C18.1908 22.5176 17.2564 22.9046 16.2683 23.1464L15.9246 25.6722C15.9031 25.8603 15.742 26 15.554 26ZM12.6005 25.2423H15.2211L15.554 22.7863C15.5755 22.6305 15.6936 22.5015 15.8494 22.4693C16.9288 22.2328 17.9491 21.8136 18.8781 21.2117C19.0124 21.1257 19.1842 21.1311 19.3131 21.2279L21.2839 22.7326L23.1366 20.8785L21.633 18.9063C21.5363 18.7773 21.5309 18.6053 21.6169 18.471C22.2183 17.5359 22.6426 16.5202 22.8735 15.44C22.9057 15.2842 23.0346 15.166 23.1903 15.1445L25.6444 14.8113V12.1887L23.1903 11.8556C23.0346 11.8341 22.9057 11.7158 22.8735 11.56C22.6426 10.4798 22.2183 9.45873 21.6169 8.52903C21.5309 8.39468 21.5363 8.22271 21.633 8.09373L23.1366 6.12145L21.2839 4.26741L19.3131 5.77214C19.1842 5.86888 19.0124 5.87425 18.8781 5.78827C17.9491 5.18637 16.9288 4.76183 15.8494 4.53074C15.6936 4.4985 15.5755 4.36953 15.554 4.21368L15.2211 1.75774H12.6005L12.2675 4.21368C12.246 4.36953 12.1279 4.4985 11.9722 4.53074C10.8928 4.76183 9.87246 5.18637 8.94343 5.78827C8.80918 5.87425 8.63734 5.86888 8.50846 5.77214L6.53764 4.26741L4.68495 6.12145L6.18857 8.09373C6.28523 8.22271 6.29062 8.39468 6.20469 8.52903C5.60324 9.46411 5.17899 10.4798 4.94808 11.56C4.91586 11.7158 4.78696 11.8341 4.63123 11.8556L2.17712 12.1887V14.8113L4.63123 15.1445C4.78696 15.166 4.91586 15.2842 4.94808 15.44C5.17899 16.5202 5.60324 17.5413 6.20469 18.471C6.29062 18.6053 6.28523 18.7773 6.18857 18.9063L4.68495 20.8785L6.53764 22.7326L8.51383 21.2279C8.63734 21.1311 8.81456 21.1257 8.94881 21.2117C9.87784 21.8136 10.8982 22.2328 11.9776 22.4693C12.1333 22.5015 12.2514 22.6305 12.2729 22.7863L12.6005 25.2423Z" fill="white" stroke="white" stroke-miterlimit="10"/>
<path d="M13.9161 19C10.885 19 8.42017 16.5334 8.42017 13.5C8.42017 10.4666 10.885 8 13.9161 8C16.9473 8 19.4121 10.4666 19.4121 13.5C19.4121 16.5334 16.9473 19 13.9161 19ZM13.9161 8.65034C11.2471 8.65034 9.07468 10.8243 9.07468 13.5C9.07468 16.1757 11.2471 18.3497 13.9161 18.3497C16.5852 18.3497 18.7622 16.1757 18.7622 13.5C18.7622 10.829 16.5852 8.65034 13.9161 8.65034Z" fill="white" stroke="white" stroke-miterlimit="10"/>
</svg>
