<svg width="8" height="11" viewBox="0 0 8 11" fill="none" xmlns="http://www.w3.org/2000/svg">
<path d="M2.784 6.84H4.764C4.764 6.168 5.04 5.736 5.916 5.052C6.696 4.452 7.128 3.744 7.128 2.856C7.128 1.224 5.952 0.0359995 3.876 0.0359995C1.932 0.0359995 0.564 1.332 0.564 3.06H2.652C2.652 2.448 3.084 1.884 3.888 1.884C4.644 1.884 5.076 2.256 5.076 2.856C5.076 3.432 4.692 3.792 3.984 4.332C3.108 4.992 2.784 5.652 2.784 6.84ZM3.84 10.248C4.572 10.248 5.112 9.72 5.112 8.988C5.112 8.256 4.572 7.716 3.84 7.716C3.108 7.716 2.568 8.256 2.568 8.988C2.568 9.72 3.108 10.248 3.84 10.248Z" fill="white"/>
</svg>
