<svg width="30" height="26" viewBox="0 0 30 26" fill="none" xmlns="http://www.w3.org/2000/svg">
<path d="M21.1364 7.33333C21.1364 6.59695 20.5258 6 19.7727 6C19.0196 6 18.4091 6.59695 18.4091 7.33333V8C18.4091 8.73638 19.0196 9.33333 19.7727 9.33333C20.5258 9.33333 21.1364 8.73638 21.1364 8V7.33333Z" fill="white"/>
<path d="M10.2273 6C10.9804 6 11.5909 6.59695 11.5909 7.33333V8C11.5909 8.73638 10.9804 9.33333 10.2273 9.33333C9.47416 9.33333 8.86364 8.73638 8.86364 8V7.33333C8.86364 6.59695 9.47416 6 10.2273 6Z" fill="white"/>
<path d="M9.61744 12.1411C10.2874 11.8135 11.1013 12.0758 11.4414 12.7267L11.4425 12.7285C11.4458 12.7347 11.4541 12.7493 11.4674 12.7713C11.4939 12.8154 11.54 12.888 11.6064 12.9796C11.7402 13.1643 11.95 13.4173 12.2412 13.6704C12.8121 14.1667 13.6947 14.667 15 14.667C16.3053 14.667 17.1879 14.1667 17.7588 13.6704C18.05 13.4173 18.2598 13.1643 18.3936 12.9796C18.46 12.888 18.5061 12.8154 18.5327 12.7713C18.542 12.7558 18.5488 12.744 18.5532 12.7362L18.5542 12.7351C18.5558 12.7324 18.5575 12.7285 18.5575 12.7285L18.5586 12.7267C18.8987 12.0758 19.7126 11.8135 20.3826 12.1411C21.0562 12.4704 21.3292 13.2713 20.9924 13.9299L19.7727 13.3336C20.9924 13.9299 20.9918 13.9311 20.9918 13.9311L20.9897 13.9351L20.9865 13.9412L20.9785 13.9566C20.975 13.9631 20.971 13.9705 20.9666 13.9787C20.9632 13.9849 20.9595 13.9915 20.9556 13.9986C20.9374 14.0316 20.913 14.0742 20.8823 14.1251C20.821 14.2269 20.7339 14.3626 20.6192 14.521C20.3908 14.8362 20.0466 15.2499 19.5707 15.6635C18.6076 16.5006 17.1038 17.3336 15 17.3336C12.8962 17.3336 11.3924 16.5006 10.4293 15.6635C9.95345 15.2499 9.60923 14.8362 9.38085 14.521C9.26613 14.3626 9.17901 14.2269 9.1177 14.1251C9.087 14.0742 9.06263 14.0316 9.04439 13.9986C9.03526 13.9821 9.02765 13.9681 9.02153 13.9566L9.01346 13.9412L9.01026 13.9351L9.00886 13.9324L9.00821 13.9311C9.00821 13.9311 9.0076 13.9299 10.2273 13.3336L9.0076 13.9299C8.6708 13.2713 8.94383 12.4704 9.61744 12.1411Z" fill="white"/>
<path fill-rule="evenodd" clip-rule="evenodd" d="M1.36364 0C0.610521 0 0 0.596954 0 1.33333V21.3333C0 22.0697 0.610521 22.6667 1.36364 22.6667H4.77273V24.6667C4.77273 25.1288 5.01744 25.5579 5.41946 25.8009C5.82148 26.0438 6.32349 26.0659 6.7462 25.8592L13.2765 22.6667H28.6364C29.3895 22.6667 30 22.0697 30 21.3333V1.33333C30 0.596954 29.3895 0 28.6364 0H1.36364ZM2.72727 20V2.66667H27.2727V20H12.9545C12.7428 20 12.5341 20.0482 12.3447 20.1408L7.5 22.5093V21.3333C7.5 20.597 6.88948 20 6.13636 20H2.72727Z" fill="white"/>
</svg>
