<svg width="19" height="15" viewBox="0 0 19 15" fill="none" xmlns="http://www.w3.org/2000/svg">
<path d="M5.89087 5.83524C5.89087 5.05668 6.41203 4.72886 7.09355 5.13863L9.4989 6.57281C10.1403 6.9416 10.1403 7.59723 9.4989 7.96602L7.09355 9.40021C6.45212 9.769 5.89087 9.48217 5.89087 8.70361V5.83524Z" fill="#222222"/>
<path d="M14 4.23086L17.0698 3.07706C17.5969 2.8463 18 3.15399 18 3.73089V10.2691C18 10.846 17.5659 11.1537 17.0698 10.9229L14 9.76914" stroke="#222222" stroke-width="1.4"/>
<path d="M2.72383 1H11.784C12.7461 1 13.5078 1.77857 13.5078 2.76201V11.613C13.5078 12.5964 12.7461 13.375 11.784 13.375H2.72383C1.76169 13.375 1 12.5964 1 11.613V2.76201C1 1.81954 1.80178 1 2.72383 1Z" stroke="#222222" stroke-width="1.4"/>
</svg>
