<svg width="288" height="191" viewBox="0 0 288 191" fill="none" xmlns="http://www.w3.org/2000/svg">
<path d="M121.859 188.789C116.708 159.022 113.089 142.601 111.006 139.527C106.685 133.156 101.314 152.709 101.053 150.991C98.5787 134.76 99.0965 114.29 87.5265 111.187C80.9489 109.423 87.9618 126.475 87.1457 130.868C86.3277 135.263 75.3862 119.577 68.6491 111.277C61.9101 102.979 57.7845 107.558 61.6906 117.625C65.4672 127.362 79.1497 138.768 76.0879 139.744C73.0242 140.721 55.8502 127.159 53.2612 132.157C50.0868 138.285 76.5438 149.103 73.8909 150.322C71.2362 151.543 58.6325 145.807 58.6325 150.688C58.6325 155.57 76.0485 156.789 75.5945 158.9C74.8609 162.318 63.9213 153.568 63.0676 158.31C62.1934 163.159 77.9189 163.528 77.3692 167.321C77.0541 169.502 73.0917 167.22 72.3769 170.218C71.2869 174.774 79.0033 180.243 95.5225 186.629L121.859 188.789Z" fill="#FCC710"/>
<path d="M134.191 189.944C131.047 185.848 112.471 162.94 101.226 159.283C92.9523 156.594 92.714 160.592 100.513 171.279C85.8343 155.155 75.8008 147.821 70.4145 149.274C65.4766 150.606 65.4766 156.269 70.4145 166.262C64.8537 160.729 58.7019 157.963 51.9573 157.963C42.1114 157.963 55.1392 183.592 62.9307 189.944H134.191Z" fill="#F8A80F"/>
<path d="M57.2292 173.673C57.171 174.053 56.777 175.152 57.019 176.237C57.1635 177.308 57.9421 178.365 57.9477 178.313C58.0134 178.309 56.7339 177.965 55.869 176.863C54.9422 175.852 54.43 174.083 54.6345 173.32C54.854 171.711 56.1842 170.93 56.7339 171.399C57.2986 171.857 57.3136 172.836 57.2292 173.673Z" fill="#1D3B4C"/>
<path d="M65.3227 176.585C65.2627 176.962 64.8706 178.061 65.1126 179.148C65.2552 180.219 66.0337 181.276 66.0394 181.224C66.1069 181.22 64.8255 180.874 63.9606 179.774C63.0338 178.761 62.5217 176.994 62.728 176.23C62.9457 174.622 64.2777 173.839 64.8274 174.31C65.3921 174.768 65.4071 175.747 65.3227 176.585Z" fill="#1D3B4C"/>
<path d="M73.5457 180.266C73.4857 180.643 73.0936 181.744 73.3356 182.829C73.4782 183.9 74.2568 184.957 74.2624 184.905C74.33 184.901 73.0486 184.555 72.1837 183.455C71.2569 182.443 70.7447 180.675 70.9511 179.913C71.1687 178.303 72.5007 177.522 73.0504 177.991C73.6151 178.45 73.6302 179.428 73.5457 180.266Z" fill="#1D3B4C"/>
<path d="M54.8146 181.269C54.9797 180.955 55.3024 179.926 56.0828 179.261C56.7845 178.553 57.9458 178.209 57.9196 178.252C57.9683 178.292 56.8333 177.828 55.5819 178.155C54.338 178.38 52.9779 179.396 52.7058 180.074C51.9723 181.381 52.5182 182.705 53.1861 182.666C53.8559 182.645 54.4112 181.932 54.8146 181.269Z" fill="#1D3B4C"/>
<path d="M63.2308 184.261C63.3978 183.949 63.7186 182.918 64.501 182.255C65.2008 181.545 66.3621 181.203 66.3377 181.244C66.3846 181.284 65.2495 180.822 64 181.147C62.7562 181.374 61.396 182.39 61.1221 183.066C60.3904 184.375 60.9364 185.697 61.6024 185.66C62.274 185.639 62.8293 184.925 63.2308 184.261Z" fill="#1D3B4C"/>
<path d="M49.3757 174.213C49.4076 174.438 49.3814 175.129 49.7097 175.7C49.9817 176.28 50.6102 176.739 50.6027 176.709C50.6402 176.696 49.8542 176.729 49.1694 176.26C48.4658 175.854 47.8636 174.945 47.8448 174.477C47.6816 173.527 48.297 172.847 48.691 173.014C49.0924 173.172 49.2744 173.724 49.3757 174.213Z" fill="#1D3B4C"/>
<path d="M48.0568 178.012C48.2031 177.839 48.539 177.235 49.1187 176.921C49.6515 176.57 50.4245 176.508 50.4038 176.53C50.4282 176.562 49.7772 176.121 48.948 176.16C48.1375 176.136 47.1506 176.594 46.8899 176.983C46.2576 177.708 46.4265 178.611 46.8505 178.675C47.2745 178.75 47.7172 178.376 48.0568 178.012Z" fill="#1D3B4C"/>
<path d="M66.7523 142.237C75.7483 156.351 82.4141 173.283 86.1683 189.938H87.1382C83.401 173.632 76.4256 156.56 67.4446 142.462C65.3565 139.187 63.1033 135.299 59.1953 134.022C59.1203 133.997 59.0903 134.112 59.1635 134.14C62.7318 135.49 64.7993 139.174 66.7523 142.237Z" fill="#1D3B4C"/>
<path d="M84.3447 189.938C74.2924 176.207 61.6249 162.844 47.0944 151.808C46.948 151.697 46.7529 151.951 46.8993 152.063C60.6812 162.705 73.1142 175.738 83.3747 189.938H84.3447Z" fill="#1D3B4C"/>
<path d="M65.9306 133.485C65.6998 133.827 64.8124 134.719 64.5516 135.893C64.2027 137.005 64.4785 138.397 64.5085 138.348C64.576 138.376 63.4823 137.448 63.1408 135.972C62.6999 134.556 63.0095 132.593 63.5592 131.942C64.5085 130.471 66.167 130.323 66.4878 131.036C66.8292 131.744 66.3959 132.708 65.9306 133.485Z" fill="#1D3B4C"/>
<path d="M63.7787 146.083C64.1145 145.843 64.985 144.936 66.1463 144.65C67.2476 144.276 68.6378 144.526 68.589 144.558C68.619 144.624 67.6735 143.546 66.1989 143.232C64.7805 142.815 62.8331 143.164 62.1952 143.73C60.7506 144.712 60.6343 146.382 61.351 146.69C62.062 147.02 63.0132 146.566 63.7787 146.083Z" fill="#1D3B4C"/>
<path d="M67.0262 151.603C67.3621 151.365 68.2326 150.456 69.3939 150.172C70.4952 149.798 71.8854 150.048 71.8385 150.08C71.8666 150.146 70.9211 149.068 69.4464 148.754C68.0281 148.337 66.0807 148.686 65.4428 149.252C63.9982 150.234 63.8819 151.902 64.5986 152.212C65.3096 152.54 66.2608 152.086 67.0262 151.603Z" fill="#1D3B4C"/>
<path d="M55.4412 164.41C55.777 164.17 56.6476 163.263 57.8108 162.977C58.9102 162.605 60.3004 162.855 60.2535 162.885C60.2816 162.953 59.336 161.873 57.8614 161.559C56.4431 161.144 54.4957 161.494 53.8578 162.057C52.4132 163.039 52.2987 164.709 53.0135 165.019C53.7265 165.348 54.6758 164.893 55.4412 164.41Z" fill="#1D3B4C"/>
<path d="M49.5239 159.172C49.8598 158.933 50.7303 158.024 51.8916 157.741C52.991 157.367 54.3831 157.617 54.3343 157.647C54.3624 157.715 53.4188 156.635 51.9422 156.321C50.5239 155.906 48.5765 156.255 47.9405 156.821C46.494 157.803 46.3796 159.471 47.0962 159.78C47.8073 160.109 48.7585 159.655 49.5239 159.172Z" fill="#1D3B4C"/>
<path d="M70.4745 139.733C70.1931 140.034 69.1781 140.774 68.7353 141.891C68.2157 142.933 68.2701 144.352 68.3076 144.308C68.3695 144.346 67.4352 143.257 67.3301 141.745C67.1163 140.278 67.7298 138.388 68.3751 137.832C69.5421 136.531 71.2043 136.645 71.4107 137.4C71.6358 138.155 71.058 139.038 70.4745 139.733Z" fill="#1D3B4C"/>
<path d="M75.2511 145.993C74.8496 146.207 73.4444 146.596 72.739 147.651C71.9398 148.591 71.8385 150.198 71.891 150.164C71.966 150.234 70.891 148.615 70.9361 146.883C70.8366 145.152 71.861 143.307 72.7615 142.965C74.4313 142.017 76.5682 142.864 76.7445 143.796C76.9453 144.735 76.0879 145.469 75.2511 145.993Z" fill="#1D3B4C"/>
<path d="M80.2772 155.478C79.8457 155.621 78.3974 155.767 77.5231 156.687C76.5775 157.478 76.2098 159.044 76.268 159.022C76.3299 159.103 75.54 157.324 75.8758 155.624C76.0672 153.902 77.3842 152.257 78.3317 152.073C80.1365 151.419 82.1008 152.615 82.1177 153.562C82.159 154.522 81.1909 155.102 80.2772 155.478Z" fill="#1D3B4C"/>
<path d="M65.4034 162.083C65.0882 162.28 63.9682 162.677 63.4541 163.576C62.8575 164.386 62.865 165.699 62.9063 165.669C62.9719 165.721 62.0057 164.465 61.9438 163.054C61.7656 161.651 62.4935 160.092 63.2083 159.764C64.5122 158.896 66.2983 159.461 66.4934 160.211C66.711 160.962 66.0544 161.61 65.4034 162.083Z" fill="#1D3B4C"/>
<path d="M57.6607 135.705C57.8483 135.549 58.3229 134.974 58.9983 134.754C59.6325 134.486 60.4673 134.572 60.4392 134.593C60.4598 134.63 59.8538 134.033 58.9664 133.913C58.1091 133.729 56.9721 134.022 56.6213 134.384C55.8089 135.028 55.8127 136.02 56.2498 136.172C56.6851 136.336 57.2273 136.024 57.6607 135.705Z" fill="#1D3B4C"/>
<path d="M59.4636 131.676C59.4542 131.92 59.291 132.651 59.5312 133.321C59.7056 133.99 60.2835 134.6 60.2835 134.566C60.3248 134.559 59.4842 134.441 58.8482 133.81C58.1803 133.24 57.7169 132.157 57.7864 131.655C57.7995 130.617 58.5837 130.014 58.9702 130.269C59.3661 130.515 59.4524 131.137 59.4636 131.676Z" fill="#1D3B4C"/>
<path d="M45.2614 153.836C45.449 153.68 45.9237 153.106 46.5991 152.886C47.2332 152.617 48.0681 152.704 48.0399 152.724C48.0606 152.762 47.4546 152.165 46.5672 152.044C45.7117 151.86 44.5729 152.153 44.222 152.516C43.4097 153.16 43.4134 154.152 43.8506 154.304C44.2858 154.467 44.8299 154.157 45.2614 153.836Z" fill="#1D3B4C"/>
<path d="M47.4359 149.772C47.4077 150.016 47.1863 150.73 47.3702 151.417C47.4903 152.099 48.0156 152.755 48.0174 152.721C48.0606 152.717 47.2313 152.531 46.6497 151.849C46.0306 151.226 45.6554 150.108 45.768 149.614C45.8637 148.579 46.6967 148.044 47.0606 148.33C47.434 148.61 47.4696 149.235 47.4359 149.772Z" fill="#1D3B4C"/>
<path d="M48.9573 176.459C51.5501 176.693 54.111 177.17 56.6288 177.833C61.2215 179.041 65.6398 180.825 69.9867 182.724C72.1236 183.656 74.2737 184.576 76.3711 185.598C77.3505 186.077 78.3373 186.556 79.2397 187.168C80.4573 187.994 82.356 189.649 82.5867 189.91L81.5886 189.938C80.9076 189.382 78.403 187.266 74.9284 185.59C66.6923 181.618 58.1372 177.546 48.9498 176.534C48.9029 176.528 48.9086 176.455 48.9573 176.459Z" fill="#1D3B4C"/>
<path d="M212.964 189.944C215.403 187.852 216.877 185.633 216.498 183.427C215.825 179.49 210.243 182.02 210.031 179.178C209.662 174.233 230.194 175.45 229.49 169.109C228.802 162.911 213.915 172.992 213.26 168.512C212.857 165.746 238.696 162.168 236.929 156.113C234.899 149.169 219.883 159.484 216.412 157.638C212.941 155.79 241.786 143.702 238.098 135.477C235.089 128.768 218.53 145.354 214.483 143.779C210.436 142.203 230.911 131.169 236.137 116.773C240.929 103.567 235.83 94.3774 226.363 107.384C218.07 118.778 201.073 136.942 200.401 131.197C199.729 125.45 218.963 106.976 206.566 106.976C190.368 106.976 184.552 135.025 179.604 155.681C179.081 157.867 173.743 132.115 167.273 139.878C163.944 143.871 170.117 173.275 173.965 189.944H212.964Z" fill="#FCC710"/>
<path d="M190.428 0.659236C190.42 0.655479 190.411 0.653604 190.403 0.649847C190.182 0.570965 189.957 0.49959 189.73 0.433854C189.653 0.411316 189.576 0.388783 189.497 0.368123C189.415 0.345585 189.332 0.326801 189.248 0.306141C189.165 0.285481 189.081 0.264822 188.994 0.247918C188.914 0.229137 188.833 0.21411 188.752 0.199084C188.662 0.182181 188.572 0.165276 188.48 0.15025C188.401 0.137103 188.325 0.123956 188.246 0.114565C188.148 0.0995397 188.049 0.0863999 187.949 0.075131C187.876 0.0676183 187.805 0.0582266 187.732 0.050714C187.617 0.0413232 187.503 0.0319315 187.388 0.026297C187.328 0.0206625 187.268 0.0169048 187.208 0.0131485C187.032 0.00563585 186.856 0 186.677 0H104.939C104.749 0 104.56 0.00563769 104.372 0.0150285C103.995 0.0338101 103.625 0.0713687 103.26 0.127713C103.078 0.155886 102.898 0.187818 102.717 0.225381C98.0534 1.18324 94.4625 5.10108 93.9747 9.93922C93.9353 10.3111 93.9166 10.6886 93.9166 11.0718V147.7V178.872C93.9166 183.663 96.9484 187.743 101.188 189.285C101.207 189.292 101.226 189.298 101.245 189.303C101.455 189.38 101.669 189.448 101.884 189.51C101.961 189.533 102.04 189.555 102.119 189.576C102.201 189.598 102.284 189.617 102.367 189.638C102.451 189.658 102.535 189.677 102.62 189.696C102.701 189.713 102.781 189.73 102.862 189.745C102.954 189.762 103.044 189.779 103.136 189.794C103.213 189.807 103.292 189.818 103.368 189.829C103.468 189.844 103.567 189.856 103.667 189.869C103.738 189.876 103.811 189.886 103.884 189.891C103.997 189.903 104.111 189.91 104.226 189.918C104.288 189.921 104.346 189.927 104.408 189.931C104.584 189.938 104.761 189.944 104.939 189.944H186.677C187.056 189.944 187.433 189.925 187.803 189.886C192.99 189.358 197.114 185.215 197.641 180.005C197.679 179.633 197.698 179.255 197.698 178.872V42.2436V11.0718C197.698 6.28057 194.668 2.19933 190.428 0.659236Z" fill="#1D3B4C"/>
<path d="M192.412 174.855H99V15.0891H192.412V174.855Z" fill="#F7F7F7"/>
<path d="M165.701 10.069H126.066C126.009 10.069 125.964 10.0239 125.964 9.96759V8.16831C125.964 8.11197 126.009 8.06689 126.066 8.06689H165.701C165.757 8.06689 165.802 8.11197 165.802 8.16831V9.96759C165.802 10.0239 165.757 10.069 165.701 10.069Z" fill="white"/>
<g opacity="0.2">
<path opacity="0.2" d="M192.356 174.855H99.2598V168.151H192.356V174.855Z" fill="#FF7C48"/>
</g>
<g opacity="0.2">
<path opacity="0.2" d="M192.672 23.5671H99.2598V15.0891H192.672V23.5671Z" fill="#3CB4C5"/>
</g>
<path d="M177.543 84.3518C177.543 101.809 163.406 115.961 145.966 115.961C128.527 115.961 114.389 101.809 114.389 84.3518C114.389 66.8924 128.527 52.7405 145.966 52.7405C163.406 52.7405 177.543 66.8924 177.543 84.3518Z" fill="#FCC710"/>
<path d="M129 77.8889V95H133.829V82.7778H145.902V73L139.463 77.8889H129Z" fill="white"/>
<path d="M162 77.8889H145.902V82.7778H157.171V95H162V77.8889Z" fill="#222222"/>
<path d="M140.268 95.0001V90.926H150.732V95.0001H140.268Z" fill="white"/>
<path d="M113.68 127.072V127.928H116.088C115.896 129.56 114.984 130.728 113.272 131.608L113.864 132.416C116.312 131.176 117.152 129.28 117.152 127.072H113.68ZM120.144 129.128H119.112V126.312H118.056V133.672H119.112V130H120.144V129.128ZM125.247 128.928H125.823V130.744H126.823V126.32H125.823V128.072H125.247V126.464H124.263V130.52H125.247V128.928ZM122.743 129.432H121.783V127.744H122.743V129.432ZM123.719 126.952H120.799V130.224H123.719V126.952ZM124.327 132.88C123.375 132.88 122.839 132.688 122.839 132.28C122.839 131.872 123.375 131.68 124.327 131.68C125.263 131.68 125.799 131.872 125.799 132.28C125.799 132.688 125.263 132.88 124.327 132.88ZM124.327 130.872C122.775 130.872 121.783 131.408 121.783 132.28C121.783 133.16 122.775 133.688 124.327 133.688C125.863 133.688 126.855 133.16 126.855 132.28C126.855 131.408 125.863 130.872 124.327 130.872ZM131.743 128.096V128.952H132.847V130.704H133.903V126.32H132.847V128.096H131.743ZM132.183 129.68C131.063 129.312 130.551 128.448 130.519 127.608H131.951V126.76H127.991V127.608H129.439C129.407 128.528 128.871 129.464 127.703 129.872L128.239 130.704C129.095 130.416 129.679 129.816 129.999 129.072C130.319 129.72 130.871 130.24 131.671 130.504L132.183 129.68ZM131.415 132.896C130.447 132.896 129.943 132.696 129.943 132.28C129.943 131.864 130.447 131.664 131.415 131.664C132.375 131.664 132.879 131.864 132.879 132.28C132.879 132.696 132.375 132.896 131.415 132.896ZM131.415 130.864C129.847 130.864 128.887 131.384 128.887 132.28C128.887 133.176 129.847 133.696 131.415 133.696C132.975 133.696 133.935 133.176 133.935 132.28C133.935 131.384 132.975 130.864 131.415 130.864ZM136.694 128.752H139.846V129.784H136.694V128.752ZM138.798 131.976V130.624H140.886V126.776H139.846V127.92H136.694V126.776H135.646V130.624H137.742V131.976H134.942V132.832H141.614V131.976H138.798ZM144.478 127.912H145.55V127.056H142.27V127.912H143.454V128.272C143.454 129.536 143.07 130.856 141.998 131.536L142.622 132.312C143.286 131.896 143.718 131.176 143.974 130.336C144.214 131.112 144.638 131.744 145.286 132.136L145.902 131.368C144.838 130.744 144.478 129.504 144.478 128.272V127.912ZM145.974 128.832H145.038V129.688H145.974V133.352H146.958V126.44H145.974V128.832ZM147.462 126.312V133.68H148.462V126.312H147.462ZM154.997 129.224C155.205 128.464 155.205 127.84 155.205 127.256V126.648H150.101V127.48H154.149C154.149 127.968 154.125 128.464 153.957 129.12L154.997 129.224ZM152.629 132.896C151.637 132.896 151.069 132.696 151.069 132.304C151.069 131.904 151.637 131.704 152.629 131.704C153.629 131.704 154.197 131.904 154.197 132.304C154.197 132.696 153.629 132.896 152.629 132.896ZM152.629 130.912C151.045 130.912 150.021 131.44 150.021 132.304C150.021 133.16 151.045 133.688 152.629 133.688C154.221 133.688 155.245 133.16 155.245 132.304C155.245 131.44 154.221 130.912 152.629 130.912ZM152.869 129.616V128.328H151.813V129.616H149.357V130.448H155.989V129.616H152.869ZM159.396 126.888H158.34V127.96C158.34 129.392 157.732 130.816 156.444 131.368L157.076 132.24C157.956 131.824 158.556 131.032 158.884 130.048C159.212 130.952 159.78 131.68 160.628 132.064L161.228 131.208C159.98 130.672 159.396 129.328 159.396 127.96V126.888ZM161.588 126.312V133.704H162.644V126.312H161.588ZM170.18 129.784C168.516 129.504 167.604 128.36 167.604 127.28V126.752H166.476V127.28C166.476 128.336 165.556 129.504 163.9 129.784L164.348 130.672C165.628 130.424 166.564 129.704 167.036 128.768C167.508 129.704 168.452 130.416 169.732 130.672L170.18 129.784ZM163.74 131.936V132.792H170.412V131.936H163.74ZM174.771 130.664H175.755V126.432H174.771V128.088H174.051V128.936H174.771V130.664ZM174.259 129.44C173.595 129.56 173.019 129.6 172.243 129.608V128.976H173.739V128.176H172.243V127.592H173.995V126.76H171.227V130.44H171.731C172.819 130.44 173.515 130.424 174.347 130.272L174.259 129.44ZM173.267 131.832H176.187V132.776H173.267V131.832ZM172.227 133.6H177.219V131.008H172.227V133.6ZM176.219 126.328V130.72H177.219V126.328H176.219Z" fill="black"/>
<path d="M117.552 142.16H115.768V139.664H117.552V142.16ZM115.112 142.16H114.016V142.696H119.304V142.16H118.208V139.664H119.32V139.136H114V139.664H115.112V142.16ZM113.424 144.128V144.672H119.928V144.128H113.424ZM132.207 141.104H133.167V143.76H133.799V138.424H133.167V140.568H132.207V138.552H131.583V143.552H132.207V141.104ZM131.175 141.952C130.335 142.12 129.639 142.16 128.703 142.16V141.08H130.751V139.04H128.055V139.568H130.119V140.584H128.071V142.696H128.543C129.575 142.696 130.327 142.656 131.239 142.48L131.175 141.952ZM129.775 144.896V143.28H129.119V145.432H134.007V144.896H129.775ZM144.463 140.184H146.055V139.656H144.463V138.544H143.807V139.656H142.191V140.184H143.815V140.744C143.815 141.984 143.047 143.2 141.999 143.712L142.367 144.208C143.183 143.808 143.839 142.976 144.143 141.992C144.447 142.912 145.055 143.696 145.839 144.08L146.207 143.568C145.175 143.072 144.463 141.896 144.463 140.744V140.184ZM148.767 141.368H147.583V138.416H146.927V145.592H147.583V141.912H148.767V141.368ZM161.598 138.416V145.608H162.254V138.416H161.598ZM158.47 138.968C157.406 138.968 156.646 139.944 156.646 141.472C156.646 143 157.406 143.976 158.47 143.976C159.534 143.976 160.294 143 160.294 141.472C160.294 139.944 159.534 138.968 158.47 138.968ZM158.47 139.56C159.166 139.56 159.662 140.312 159.662 141.472C159.662 142.64 159.166 143.392 158.47 143.392C157.766 143.392 157.27 142.64 157.27 141.472C157.27 140.312 157.766 139.56 158.47 139.56ZM171.294 142.848C172.374 142.632 173.502 141.912 173.958 140.92C174.414 141.904 175.558 142.608 176.646 142.832L176.91 142.304C175.662 142.096 174.294 141.112 174.294 139.976V139.664H176.67V139.128H171.238V139.664H173.614V139.976C173.614 141.112 172.254 142.112 171.014 142.328L171.294 142.848ZM170.702 144.096V144.64H177.214V144.096H170.702Z" fill="black"/>
<path d="M161.509 42.2548H160.241C156.479 42.2548 153.429 39.2009 153.429 35.4352V31.1812H168.321V35.4352C168.321 39.2009 165.271 42.2548 161.509 42.2548Z" fill="#4BBCBF"/>
<path d="M146.617 42.2548H145.35C141.587 42.2548 138.538 39.2009 138.538 35.4352V31.1812H153.429V35.4352C153.429 39.2009 150.38 42.2548 146.617 42.2548Z" fill="#F8A80F"/>
<path d="M131.724 42.2548H130.458C126.696 42.2548 123.646 39.2009 123.646 35.4352V31.1812H138.538V35.4352C138.538 39.2009 135.488 42.2548 131.724 42.2548Z" fill="#4BBCBF"/>
<path d="M116.833 42.2548H115.565C111.803 42.2548 108.753 39.2009 108.753 35.4352V31.1812H123.646V35.4352C123.646 39.2009 120.595 42.2548 116.833 42.2548Z" fill="#F8A80F"/>
<path d="M101.941 42.2548H100.672C96.9109 42.2548 93.8603 39.2009 93.8603 35.4352V31.1812H108.753V35.4352C108.753 39.2009 105.702 42.2548 101.941 42.2548Z" fill="#4BBCBF"/>
<path d="M206.151 42.2548H204.883C201.122 42.2548 198.071 39.2009 198.071 35.4352V31.1812H212.964V35.4352C212.964 39.2009 209.913 42.2548 206.151 42.2548Z" fill="#F8A80F"/>
<path d="M191.259 42.2548H189.992C186.229 42.2548 183.178 39.2009 183.178 35.4352V31.1812H198.071V35.4352C198.071 39.2009 195.022 42.2548 191.259 42.2548Z" fill="#4BBCBF"/>
<path d="M176.402 42.2548H175.134C171.372 42.2548 168.321 39.2009 168.321 35.4352V31.1812H183.214V35.4352C183.214 39.2009 180.164 42.2548 176.402 42.2548Z" fill="#F8A80F"/>
<path d="M87.0481 42.2548H85.7818C82.0183 42.2548 78.9696 39.2009 78.9696 35.4352V31.1812H93.8603V35.4352C93.8603 39.2009 90.8116 42.2548 87.0481 42.2548Z" fill="#F8A80F"/>
<path d="M151.277 15.0891H140.69L138.538 31.1812H153.429L151.277 15.0891Z" fill="#FCC710"/>
<path d="M140.69 15.0891H130.101L123.646 31.1812H138.538L140.69 15.0891Z" fill="#56CED7"/>
<path d="M130.101 15.0891H119.512L108.753 31.1812H123.646L130.101 15.0891Z" fill="#FCC710"/>
<path d="M119.512 15.0891H108.926L93.8603 31.1812H108.753L119.512 15.0891Z" fill="#56CED7"/>
<path d="M108.926 15.0891H98.3367L78.9696 31.1812H93.8603L108.926 15.0891Z" fill="#FCC710"/>
<path d="M193.559 15.0891H182.972L198.071 31.1812H212.964L193.559 15.0891Z" fill="#FCC710"/>
<path d="M183.025 15.0891H172.436L183.178 31.1812H198.071L183.025 15.0891Z" fill="#56CED7"/>
<path d="M172.436 15.0891H161.849L168.321 31.1812H183.214L172.436 15.0891Z" fill="#FCC710"/>
<path d="M161.849 15.0891H151.26L153.429 31.1812H168.321L161.849 15.0891Z" fill="#56CED7"/>
<path d="M8.69025 174.857C8.20246 178.256 7.54019 180.506 6.70345 181.603C6.28132 182.155 5.51023 182.854 5.00555 183.851C4.21758 185.407 4.65283 187.72 5.23255 188.994C5.53086 189.647 5.21192 189.646 5.89107 189.858C7.90039 190.481 10.0392 189.43 10.8947 187.493C11.3731 186.409 11.7915 184.965 11.8759 183.147C12.0185 180.059 12.5682 177.731 13.5212 176.16L8.69025 174.857Z" fill="#F7A491"/>
<path d="M30.6708 177.189C30.971 181.023 30.9991 183.564 30.7552 184.809C30.5601 185.81 29.4682 187.871 29.9692 188.812C30.3031 189.441 30.6596 189.833 31.0423 189.989L44.0175 190.199C44.7248 190.211 44.2577 189.754 43.6873 189.332C42.7549 188.641 42.0026 188.184 39.0214 186.734C38.8282 186.638 38.1209 186.186 37.8657 186.028C37.2185 185.632 36.5675 185.004 36.0084 184.379C35.3874 183.682 35.0497 181.646 34.9953 178.269L30.6708 177.189Z" fill="#F7A491"/>
<path d="M40.8131 100.745C41.9012 106.969 42.0889 112.123 41.3741 116.204C40.6574 120.285 38.5843 141.24 35.151 179.068L29.4288 179.393C28.6296 163.592 28.3013 154.592 28.4439 152.394C28.5865 150.197 29.2243 147.259 30.3575 143.582L29.7872 124.443L37.0083 99.3042L40.8131 100.745Z" fill="#F8A80F"/>
<path d="M23.9937 98.7799C20.9901 103.333 19.1309 107.493 18.4161 111.258C17.3429 116.91 19.2022 134.275 17.1384 141.681C16.0221 145.689 11.7877 151.879 11.1442 157.059C10.7146 160.511 9.65834 166.762 7.97546 175.807L13.6957 176.949L26.988 143.063L37.4155 112.436L40.0871 96.6614L23.9937 98.7799Z" fill="#FCC710"/>
<path d="M11.2849 186.473C8.16681 187.044 6.09184 185.209 5.01307 183.834C4.22135 185.391 3.83486 187.715 4.41834 188.994C4.93052 190.121 6.43141 190.089 7.61149 190.132C8.86098 190.179 9.82718 189.48 10.4463 188.385C10.7352 187.874 11.0335 187.238 11.2849 186.473Z" fill="#56CED7"/>
<path d="M37.8638 186.028C34.4324 186.915 31.894 186.312 30.4757 185.735C30.1099 186.779 29.6239 188.09 29.8828 188.845C30.198 189.769 30.6464 189.98 31.0423 189.989C34.1754 190.072 42.5241 190.184 44.9143 190.216C45.2464 190.22 45.4321 189.828 45.2163 189.57C44.6235 188.858 38.119 186.186 37.8638 186.028Z" fill="#56CED7"/>
<path d="M61.3509 84.6149C61.5892 84.106 59.0677 83.4129 58.987 82.8664C58.9063 82.3179 62.2852 82.626 62.4541 82.1696C62.7674 81.3282 58.775 81.6042 58.8932 81.208C59.0133 80.8117 63.1164 80.3252 62.7543 79.5852C62.3922 78.8471 58.5518 80.5356 58.4917 80.0529C58.4298 79.5702 62.2027 78.8058 62.2458 77.7672C62.2665 77.2112 55.9608 79.8932 55.3004 79.5233C54.6401 79.1514 56.3455 76.7079 55.8333 76.2665C55.323 75.8252 53.111 80.9337 52.7114 81.0821C52.3118 81.2305 43.6592 83.8505 40.7174 84.2844C40.4698 83.2871 38.2559 77.7991 38.0439 76.8581C36.316 77.8367 34.1154 76.6591 32.3481 77.5305C33.2373 80.6727 35.2354 91.0213 36.0346 91.4871C38.4661 92.907 51.2593 86.1419 53.3737 84.9436C55.49 83.7453 56.5706 84.3182 57.9495 84.0121C59.3285 83.7078 61.1108 85.1239 61.3509 84.6149Z" fill="#F7A491"/>
<path d="M38.5862 54.1305C39.2297 51.2006 39.8601 48.2537 38.164 45.0365C36.7907 42.4333 34.4174 40.9364 31.6708 40.6096C23.8868 39.6856 25.5509 46.9578 14.6732 48.5336C11.2943 49.0219 8.1537 49.4933 5.33202 51.1761C0.23649 54.2131 -1.68841 59.0888 1.69235 67.0297C9.96602 86.4743 29.7665 69.5765 32.7871 66.1376C35.7832 62.7249 38.1715 56.0143 38.5862 54.1305Z" fill="#1D3B4C"/>
<path d="M26.337 63.373C23.7161 63.6698 21.6242 64.6727 20.0558 66.38C17.705 68.938 23.8568 89.5151 24.2826 92.7719C24.5678 94.9449 23.2058 99.0356 20.1965 105.048C30.4269 107.082 36.8714 107.221 39.5317 105.463C39.7644 88.6756 39.7381 79.5065 39.4548 77.9551C39.027 75.6281 35.4643 66.1659 34.6107 65.2343C34.0403 64.6145 31.2824 63.9928 26.337 63.373Z" fill="#56CED7"/>
<path d="M28.3144 55.4415C28.2938 55.5579 28.2656 55.7157 28.2281 55.9129C27.9636 57.3403 26.943 62.0751 26.2544 63.3767C25.4215 64.9487 29.1061 69.9653 32.652 69.353C33.7064 69.1708 31.759 64.744 31.8528 64.2744C32.0329 63.3767 32.2749 62.1521 32.5244 60.8975C32.6633 60.1894 32.8058 59.4701 32.939 58.7958C33.1923 57.5168 33.4212 56.3542 33.6276 55.3081L28.3144 55.4415Z" fill="#F7A491"/>
<path opacity="0.502" d="M28.2281 55.9129C28.2657 55.7157 28.2938 55.5579 28.3144 55.4415L33.6276 55.3081C33.4212 56.3542 33.1923 57.5168 32.9391 58.7958C32.8077 59.4664 32.6651 60.1801 32.5263 60.8862C31.7064 60.7642 30.8491 60.366 29.9898 59.6147C29.0518 58.7959 28.4383 57.8098 28.0668 56.7599C28.1325 56.4237 28.1869 56.1345 28.2281 55.9129Z" fill="#F47458"/>
<path d="M31.5113 42.7995C30.0667 42.9986 28.821 43.7762 27.7741 45.1285C26.2038 47.1569 24.5115 53.4299 28.412 56.8407C32.3124 60.2514 36.1641 56.3899 36.7363 52.2974C37.3066 48.203 37.1922 42.6512 31.5113 42.7995Z" fill="#F7A491"/>
<path d="M37.8732 51.2869C37.6274 52.2729 36.9821 52.9397 36.4305 52.7763C35.8808 52.611 35.6331 51.6776 35.8789 50.6915C36.1247 49.7036 36.7701 49.0369 37.3216 49.2022C37.8713 49.3656 38.119 50.299 37.8732 51.2869Z" fill="#F7A491"/>
<path d="M33.9184 42.8166C30.5226 46.7194 28.0274 48.761 26.4308 48.945C24.8361 49.1291 23.9337 50.2766 23.7236 52.3896C24.2939 47.5214 25.3689 44.6177 26.9486 43.6787C28.5283 42.7396 30.8509 42.4522 33.9184 42.8166Z" fill="#1D3B4C"/>
<path d="M27.215 50.3668C27.4082 51.4261 27.018 52.3971 26.3407 52.5361C25.6616 52.6751 24.9543 51.9295 24.761 50.8702C24.5659 49.8109 24.958 48.8399 25.6353 48.7009C26.3126 48.56 27.0199 49.3075 27.215 50.3668Z" fill="#F7A491"/>
<path d="M27.1419 80.0716L43.5973 82.4813C44.0926 82.5527 44.434 83.0129 44.3609 83.5087L41.1508 105.485C41.0777 105.981 40.618 106.325 40.1227 106.251L23.6673 103.842C23.1739 103.768 22.8306 103.308 22.9037 102.814L26.1156 80.8361C26.1869 80.3402 26.6466 79.9984 27.1419 80.0716Z" fill="#1D3B4C"/>
<path d="M39.4154 81.1401C39.4304 81.0387 39.361 80.9467 39.2597 80.9317L32.3969 79.9268C32.2956 79.9118 32.2036 79.9813 32.1886 80.0808L32.0836 80.7964L39.3104 81.8538L39.4154 81.1401Z" fill="#F7F7F7"/>
<path fill-rule="evenodd" clip-rule="evenodd" d="M36.8789 80.8024C36.7926 81.4015 36.2372 81.8166 35.6388 81.7283C35.0403 81.64 34.6275 81.0841 34.7138 80.4869C34.802 79.8877 35.3573 79.4726 35.9558 79.5609C36.5524 79.6492 36.967 80.2051 36.8789 80.8024ZM36.4905 80.746C36.5468 80.3629 36.2823 80.006 35.8977 79.9497C35.5149 79.8934 35.1585 80.1582 35.1022 80.5432C35.0459 80.9263 35.3123 81.2832 35.695 81.3395C36.0796 81.3959 36.4342 81.1292 36.4905 80.746Z" fill="#F7F7F7"/>
<path d="M39.3291 80.9563C39.3891 80.9938 39.4267 81.0652 39.4154 81.1403L39.3103 81.854L32.0835 80.7966C32.0122 81.2906 32.3537 81.7507 32.8471 81.8221L38.286 82.6184C38.7794 82.6917 39.239 82.348 39.3103 81.854L39.4154 81.1403C39.4267 81.0652 39.3891 80.9938 39.3291 80.9563Z" fill="#DFF7F6"/>
<path d="M34.2974 54.324L30.5939 54.3052C30.6464 55.2443 31.2149 55.7326 32.3012 55.7701C33.6238 55.8152 34.2898 55.3325 34.2974 54.324Z" fill="white"/>
<path d="M15.5962 85.6912L21.5585 86.3016C21.4948 89.6785 21.4966 91.5604 21.5642 91.9492C28.3613 93.8349 33.1811 95.035 36.0215 95.5459C37.316 94.8115 38.2241 94.3288 38.7475 94.0959C39.5317 93.7447 41.6424 93.3634 42.1076 93.3015C42.5748 93.2414 42.4153 93.7522 42.0157 93.9306C41.6142 94.1109 40.5767 94.5993 40.2841 95.1984C40.845 95.2585 41.2728 95.2247 41.5711 95.0914C42.0157 94.8923 42.6292 94.4716 42.6386 94.2537C42.648 94.0358 42.7493 93.5099 42.8956 93.5381C42.9331 93.5456 42.9838 93.7184 43.0326 93.8987C43.0813 94.0715 43.1301 94.2462 43.1733 94.419C43.2464 94.7307 43.3327 95.1834 43.3665 95.3881C43.4434 95.8539 43.1583 97.1367 43.1189 97.5931C43.0457 98.4251 42.8093 98.7932 42.3703 99.0054C41.663 99.2534 40.9144 99.4092 39.8075 99.5238C37.7794 99.7342 35.9146 99.1501 35.1022 99.058C34.56 98.9979 29.9617 98.5378 21.3053 97.6776C17.8645 97.1818 16.0296 96.639 15.8026 96.0455C15.5737 95.452 15.5062 92.0018 15.5962 85.6912Z" fill="#F7A491"/>
<path d="M20.7762 65.6363C19.5229 66.2317 18.3429 67.815 17.2397 70.3862C16.1928 72.8315 15.5137 80.1526 15.206 92.3512L21.4441 91.3108L24.6128 82.7783C26.8717 77.6734 26.2882 71.7272 22.9975 67.2177C22.1195 66.0157 21.3109 65.2889 20.7762 65.6363Z" fill="#4BBCBF"/>
<path d="M280.62 190.316L282.012 190.051L275.997 158.117L274.607 158.382L280.62 190.316Z" fill="#1D3B4C"/>
<path d="M216.164 190.307H214.489L220.729 157.963L222.121 158.228L216.164 190.307Z" fill="#1D3B4C"/>
<path d="M265.041 190.307H263.365L269.605 157.963L270.998 158.228L265.041 190.307Z" fill="#1D3B4C"/>
<path d="M231.419 190.307L232.777 190.323L226.796 158.107L225.404 158.372L231.419 190.307Z" fill="#1D3B4C"/>
<path d="M255.51 87.8681C262.941 88.6644 272.558 89.5039 282.213 105.906C292.764 123.833 287.211 150.61 278.881 158.051C270.553 165.492 243.353 174.68 220.487 160.925C211.283 155.367 209.041 147.979 213.765 138.755C224.669 117.468 223.128 113.028 228.004 104.685C232.88 96.3423 239.736 86.1758 255.51 87.8681Z" fill="#F7F7F7"/>
<path d="M282.213 105.906C275.622 94.7121 269.05 90.7679 263.18 89.1377C265.45 91.4892 267.754 94.5167 270.058 98.4327C280.609 116.358 275.056 143.135 266.726 150.576C259.341 157.176 237.113 165.145 216.228 157.272C217.66 158.859 219.08 160.076 220.487 160.925C243.353 174.68 270.553 165.492 278.881 158.051C287.209 150.61 292.764 123.833 282.213 105.906Z" fill="#DFF7F6"/>
<path d="M231.65 115.114L229.74 120.85L235.561 118.559L231.65 115.114Z" fill="#F79C8D"/>
<path d="M237.651 98.044C237.263 98.059 236.199 98.414 234.646 101.348C233.321 103.844 231.691 108.862 229.757 116.403L238.421 119.62L239.533 117.259L241.366 99.0845C238.961 98.3877 237.723 98.0402 237.651 98.044Z" fill="#F8A80F"/>
<path d="M249.103 96.4136C246.627 96.4174 240.498 97.1367 237.651 98.0439C236.257 109.993 236.886 120.507 239.533 129.586C240.126 131.618 239.88 135.831 238.798 142.222L264.469 141.884C262.442 126.43 261.81 117.455 262.574 114.959C263.337 112.462 263.728 106.866 263.746 98.1659C263.63 98.1472 261.707 97.8166 257.979 97.1743C255.371 96.7235 251.749 96.4099 249.103 96.4136Z" fill="#FCC710"/>
<path d="M252.833 176.104C252.454 180.463 251.917 183.247 251.221 184.454C250.176 186.265 251.276 189.345 251.332 189.768C251.386 190.19 253.529 190.793 256.936 190.431C260.345 190.068 260.289 189.283 260.015 188.017C259.739 186.749 257.927 185.119 257.816 183.912C257.743 183.106 258.092 181.256 258.861 178.358L252.833 176.104Z" fill="#F7A491"/>
<path d="M241.694 136.824C229.881 136.171 222.654 136.64 220.016 138.235C217.378 139.827 217.616 142.261 220.733 145.535C230.35 149.706 243.21 152.257 259.311 153.183C265.031 153.513 265.523 138.306 264.454 137.048C263.741 136.208 256.154 136.133 241.694 136.824Z" fill="#1A3141"/>
<path d="M257.362 190.938C260.87 190.566 260.437 188.845 260.154 187.54C259.977 186.723 258.97 185.76 258.369 184.849C258.056 185.097 257.546 185.538 256.022 185.987C254.441 186.453 252.272 185.53 250.889 184.952C250.396 186.781 250.373 189.114 250.42 189.467C250.477 189.903 253.854 191.311 257.362 190.938Z" fill="#F7F7F7"/>
<path d="M254.687 149.473C254.216 153.036 252.81 163.687 250.473 181.427L258.608 182.433C265.275 159.279 268.438 145.931 268.097 142.391C267.756 138.849 266.335 136.929 263.84 136.631C258.987 135.759 255.936 140.039 254.687 149.473Z" fill="#1D3B4C"/>
<path d="M264.026 100.157C261.626 99.2591 260.452 120.835 260.127 129.717C255.878 130.125 248.469 129.719 246.625 129.582C245.756 129.516 243.756 128.786 242.893 128.673C242.01 128.556 241.209 128.496 240.773 128.572C240.614 128.6 236.182 130.408 235.803 130.805C235.334 131.295 234.064 132.536 234.278 133.072C234.421 133.43 235.235 132.931 236.721 131.578L237.811 130.968C236.454 132.29 233.867 134.031 234.241 134.664C234.605 135.284 236.937 133.517 238.601 132.313C237.175 133.597 235.402 135.898 235.811 136.257C236.177 136.58 238.194 133.917 240.347 133.149C241.147 132.865 241.942 133.652 242.571 133.748C243.032 133.817 243.745 133.966 244.197 133.838L246.529 133.177C247.325 133.248 247.343 133.718 248.146 133.889C249.079 134.086 250.606 134.294 251.794 134.583C258.625 136.249 260.904 137.023 262.996 137.021C269.331 137.018 269.699 102.281 264.026 100.157Z" fill="#F7A491"/>
<path d="M268.581 120.415C269.031 111.317 268.966 100.104 263.853 98.1923C261.836 97.4373 258.281 101.975 258.921 120.599C261.649 120.824 265.656 121.004 268.581 120.415Z" fill="#F8A80F"/>
<path d="M228.31 181.081C228.783 182.595 228.597 183.851 227.749 184.852C226.479 186.353 221.198 187.827 220.506 188.641C220.042 189.182 219.828 189.683 219.864 190.145L234.685 189.739L234.524 185.273L233.841 182.063L228.31 181.081Z" fill="#F7A491"/>
<path d="M226.828 185.602C229.367 186.625 231.248 186.834 232.475 186.227C234.316 185.318 234.259 185.066 234.792 185.405C235.147 185.632 235.387 187.266 235.514 190.307L218.849 190.419C217.69 190.393 217.102 189.54 218.044 188.812C218.691 188.312 219.438 187.976 219.862 187.733C220.731 187.236 223.053 186.526 226.828 185.602Z" fill="#F7F7F7"/>
<path d="M228.873 141.016C227.727 138.61 225.121 135.479 220.537 137.365C216.166 139.164 214.992 143.585 216.371 148.112C217.751 152.638 226.832 179.25 227.149 182.908L234.4 182.957C233.52 168.909 232.974 160.188 232.758 156.793C232.447 151.891 230.854 145.178 228.873 141.016Z" fill="#1D3B4C"/>
<path d="M217.102 116.504H241.338C241.98 116.504 242.557 116.893 242.801 117.487L250.265 135.709H263.626C264 135.709 264.304 136.011 264.304 136.385C264.304 136.758 264 137.063 263.626 137.063H225.595C224.55 137.063 223.603 136.449 223.173 135.493L215.66 118.736C215.191 117.688 215.956 116.504 217.102 116.504Z" fill="#E5683C"/>
<path d="M230.151 127.116C230.314 127.935 231.027 128.481 231.744 128.339C232.46 128.194 232.907 127.415 232.743 126.598C232.58 125.779 231.867 125.23 231.151 125.375C230.434 125.518 229.987 126.297 230.151 127.116Z" fill="white"/>
<path d="M252.049 88.7301L253.234 96.5545C250.347 102.767 248.043 105.603 246.319 105.064C244.873 104.612 244.595 101.639 245.484 96.1432C246.272 93.1907 246.548 90.9764 246.312 89.5001C246.075 88.0239 247.989 87.7666 252.049 88.7301Z" fill="#F7A491"/>
<path opacity="0.2" d="M246.312 89.5001C246.075 88.0239 247.989 87.7666 252.049 88.7301L252.148 89.3799C251.97 89.8138 251.752 90.1857 251.488 90.4693C250.126 91.9361 248 92.817 246.16 92.8827C246.345 91.6882 246.458 90.4092 246.312 89.5001Z" fill="#F47458"/>
<path d="M253.049 77.6603C253.221 77.5983 254.43 86.5721 252.137 89.0419C249.844 91.5117 245.379 92.3193 243.777 90.3754C242.004 88.223 242.094 78.5787 245.657 76.0375C248.034 74.3434 250.497 74.8862 253.049 77.6603Z" fill="#F7A491"/>
<path d="M247.013 71.2368C249.769 71.7984 251.553 73.485 252.208 74.2024C253.46 74.3508 255.159 75.042 256.915 77.9531C259.073 81.531 257.48 85.4939 254.966 87.4397C253.291 88.7356 252.465 90.133 252.49 91.6299L252.092 90.4692C251.799 89.5883 251.679 88.6549 251.777 87.7308C251.835 87.1768 251.955 86.5776 252.184 86.0855C252.788 84.7877 250.886 83.9238 250.351 82.8438C249.94 82.0118 249.921 80.1074 249.274 78.7325L248.501 77.6827C247.312 76.7567 246.137 76.4243 244.974 76.6854C243.229 77.0779 243.48 70.5156 247.013 71.2368Z" fill="#1D3B4C"/>
<path d="M250.469 84.4403C250.45 85.5353 250.947 86.4312 251.58 86.4424C252.21 86.4537 252.737 85.5747 252.756 84.4798C252.775 83.3848 252.278 82.4889 251.645 82.4776C251.013 82.4664 250.488 83.3453 250.469 84.4403Z" fill="#F7A491"/>
<path d="M247.373 87.4755L243.919 87.2971C243.927 88.1761 244.437 88.655 245.449 88.7377C246.681 88.8372 247.323 88.4165 247.373 87.4755Z" fill="white"/>
</svg>
