<svg width="337" height="171" viewBox="0 0 337 171" fill="none" xmlns="http://www.w3.org/2000/svg">
<path d="M272.914 122.064V85.9982C272.914 84.815 271.954 83.855 270.771 83.855H250.522H244.693C243.509 83.855 242.549 84.815 242.549 85.9982V122.064C242.549 123.247 243.509 124.207 244.693 124.207H250.522H270.771C271.956 124.207 272.914 123.249 272.914 122.064Z" fill="#F0F2F5"/>
<path d="M270.846 86.4927H244.617V94.3027H270.846V86.4927Z" fill="white"/>
<path d="M249.614 90.3967C249.614 90.9277 249.183 91.3589 248.652 91.3589C248.121 91.3589 247.689 90.9277 247.689 90.3967C247.689 89.8658 248.121 89.4346 248.652 89.4346C249.183 89.4346 249.614 89.8658 249.614 90.3967Z" fill="#7B7F99"/>
<path d="M253.952 90.3967C253.952 90.9277 253.52 91.3589 252.989 91.3589C252.459 91.3589 252.027 90.9277 252.027 90.3967C252.027 89.8658 252.459 89.4346 252.989 89.4346C253.52 89.4346 253.952 89.8658 253.952 90.3967Z" fill="#7B7F99"/>
<path d="M258.292 90.3967C258.292 90.9277 257.861 91.3589 257.33 91.3589C256.799 91.3589 256.368 90.9277 256.368 90.3967C256.368 89.8658 256.799 89.4346 257.33 89.4346C257.861 89.4346 258.292 89.8658 258.292 90.3967Z" fill="#7B7F99"/>
<path d="M242.552 96.582V122.064C242.552 123.247 243.512 124.207 244.695 124.207H250.524H270.773C271.956 124.207 272.916 123.247 272.916 122.064V96.582H242.552Z" fill="#5B5E78"/>
<path d="M250.291 105.219C250.291 105.443 250.109 105.625 249.886 105.625H246.353C246.13 105.625 245.948 105.443 245.948 105.219V101.265C245.948 101.041 246.13 100.859 246.353 100.859H249.886C250.109 100.859 250.291 101.041 250.291 101.265V105.219Z" fill="white"/>
<path d="M256.699 105.219C256.699 105.443 256.517 105.625 256.294 105.625H252.762C252.538 105.625 252.356 105.443 252.356 105.219V101.265C252.356 101.041 252.538 100.859 252.762 100.859H256.294C256.517 100.859 256.699 101.041 256.699 101.265V105.219Z" fill="white"/>
<path d="M263.107 105.219C263.107 105.443 262.925 105.625 262.702 105.625H259.169C258.946 105.625 258.764 105.443 258.764 105.219V101.265C258.764 101.041 258.946 100.859 259.169 100.859H262.702C262.925 100.859 263.107 101.041 263.107 101.265V105.219Z" fill="white"/>
<path d="M269.515 105.219C269.515 105.443 269.333 105.625 269.109 105.625H265.577C265.354 105.625 265.172 105.443 265.172 105.219V101.265C265.172 101.041 265.354 100.859 265.577 100.859H269.109C269.333 100.859 269.515 101.041 269.515 101.265V105.219Z" fill="white"/>
<path d="M250.291 112.113C250.291 112.336 250.109 112.518 249.886 112.518H246.353C246.13 112.518 245.948 112.336 245.948 112.113V108.158C245.948 107.935 246.13 107.753 246.353 107.753H249.886C250.109 107.753 250.291 107.935 250.291 108.158V112.113Z" fill="white"/>
<path d="M256.699 112.113C256.699 112.336 256.517 112.518 256.294 112.518H252.762C252.538 112.518 252.356 112.336 252.356 112.113V108.158C252.356 107.935 252.538 107.753 252.762 107.753H256.294C256.517 107.753 256.699 107.935 256.699 108.158V112.113Z" fill="white"/>
<path d="M263.107 112.113C263.107 112.336 262.925 112.518 262.702 112.518H259.169C258.946 112.518 258.764 112.336 258.764 112.113V108.158C258.764 107.935 258.946 107.753 259.169 107.753H262.702C262.925 107.753 263.107 107.935 263.107 108.158V112.113Z" fill="white"/>
<path d="M250.291 119.006C250.291 119.229 250.109 119.411 249.886 119.411H246.353C246.13 119.411 245.948 119.229 245.948 119.006V115.051C245.948 114.828 246.13 114.646 246.353 114.646H249.886C250.109 114.646 250.291 114.828 250.291 115.051V119.006Z" fill="white"/>
<path d="M256.699 119.006C256.699 119.229 256.517 119.411 256.294 119.411H252.762C252.538 119.411 252.356 119.229 252.356 119.006V115.051C252.356 114.828 252.538 114.646 252.762 114.646H256.294C256.517 114.646 256.699 114.828 256.699 115.051V119.006Z" fill="white"/>
<path d="M263.107 119.006C263.107 119.229 262.925 119.411 262.702 119.411H259.17C258.947 119.411 258.765 119.229 258.765 119.006V115.051C258.765 114.828 258.947 114.646 259.17 114.646H262.702C262.925 114.646 263.107 114.828 263.107 115.051V119.006Z" fill="white"/>
<path d="M269.11 107.755H265.578C265.354 107.755 265.172 107.937 265.172 108.16V119.008C265.172 119.231 265.354 119.414 265.578 119.414H269.11C269.333 119.414 269.515 119.231 269.515 119.008V108.16C269.515 107.937 269.333 107.755 269.11 107.755Z" fill="#FFE58F"/>
<path d="M229.29 113.041H107.032V127.049H229.29V113.041Z" fill="#A4DBB3"/>
<path d="M108.003 113.04H228.321V124.471H233.425V110.038C233.425 108.641 232.291 107.507 230.893 107.507H105.431C104.033 107.507 102.9 108.641 102.9 110.038V124.471H108.003V113.04Z" fill="#91786A"/>
<path d="M210.614 120.16H125.71V124.505H210.614V120.16Z" fill="#5B5E78"/>
<path d="M170.641 78.8486V95.3549C170.641 96.7245 169.531 97.834 168.161 97.834C166.792 97.834 165.682 96.7245 165.682 95.3549V78.8486H160.529L158.666 106.513H177.655L175.792 78.8486H170.641Z" fill="#4B4E63"/>
<path d="M200.964 107.446H135.359L136.603 101.911H199.72L200.964 107.446Z" fill="#5B5E78"/>
<path d="M108.334 79.979V86.6621C108.334 88.0187 109.435 89.1195 110.792 89.1195H225.532C226.888 89.1195 227.989 88.0187 227.989 86.6621V79.979H108.334Z" fill="#F0F2F5"/>
<path d="M171.263 82.917H165.061C164.159 82.917 163.427 83.6473 163.427 84.5509C163.427 85.4524 164.159 86.1849 165.061 86.1849H171.263C172.164 86.1849 172.897 85.4546 172.897 84.5509C172.897 83.6473 172.164 82.917 171.263 82.917Z" fill="#B7E8C4"/>
<path d="M227.989 14.8593C227.989 13.5027 226.888 12.4019 225.532 12.4019H110.792C109.435 12.4019 108.334 13.5027 108.334 14.8593V79.9785H227.989V14.8593Z" fill="#4B4E63"/>
<path d="M221.883 18.5078H114.441V79.9778H221.883V18.5078Z" fill="#54B374"/>
<path d="M157.685 26.8867H157.121V71.6337H157.685V26.8867Z" fill="#4B4E63"/>
<path d="M167.055 63.6719H163.239V71.1243H167.055V63.6719Z" fill="white"/>
<path d="M175.326 54.1323H171.51V71.124H175.326V54.1323Z" fill="white"/>
<path d="M183.6 59.8643H179.784V71.1242H183.6V59.8643Z" fill="white"/>
<path d="M191.871 47.1328H188.055V71.124H191.871V47.1328Z" fill="white"/>
<path d="M200.143 42.4346H196.329V71.1239H200.143V42.4346Z" fill="white"/>
<path d="M211.004 7.78831L206.507 0L202.011 7.78831H204.6V71.1241H208.414V7.78831H211.004Z" fill="url(#paint0_linear_1218_284)"/>
<path d="M211.004 31.5718H200.143V34.3954H211.004V31.5718Z" fill="#54B374"/>
<path d="M211.004 26.5117H200.143V29.3354H211.004V26.5117Z" fill="#54B374"/>
<path d="M166.129 58.4663C166.129 59.0102 165.689 59.4501 165.145 59.4501C164.601 59.4501 164.161 59.0102 164.161 58.4663C164.161 57.9223 164.601 57.4824 165.145 57.4824C165.689 57.4824 166.129 57.9223 166.129 58.4663Z" fill="#4B4E63"/>
<path d="M174.403 61.1142C174.403 61.6581 173.963 62.098 173.419 62.098C172.875 62.098 172.435 61.6581 172.435 61.1142C172.435 60.5703 172.875 60.1304 173.419 60.1304C173.961 60.1282 174.403 60.5703 174.403 61.1142Z" fill="#4B4E63"/>
<path d="M182.674 52.4506C182.674 52.9946 182.234 53.4345 181.69 53.4345C181.146 53.4345 180.706 52.9946 180.706 52.4506C180.706 51.9067 181.146 51.4668 181.69 51.4668C182.234 51.4668 182.674 51.9067 182.674 52.4506Z" fill="#4B4E63"/>
<path d="M190.945 62.2216C190.945 62.7655 190.505 63.2054 189.961 63.2054C189.417 63.2054 188.978 62.7655 188.978 62.2216C188.978 61.6777 189.417 61.2378 189.961 61.2378C190.505 61.2378 190.945 61.6777 190.945 62.2216Z" fill="#4B4E63"/>
<path d="M199.219 46.1899C199.219 46.7338 198.779 47.1737 198.235 47.1737C197.691 47.1737 197.251 46.7338 197.251 46.1899C197.251 45.646 197.691 45.2061 198.235 45.2061C198.777 45.2061 199.219 45.646 199.219 46.1899Z" fill="#4B4E63"/>
<path d="M207.491 40.4301C207.491 40.974 207.051 41.414 206.507 41.414C205.963 41.414 205.523 40.974 205.523 40.4301C205.523 39.8862 205.963 39.4463 206.507 39.4463C207.051 39.4463 207.491 39.8884 207.491 40.4301Z" fill="#4B4E63"/>
<path d="M190.019 62.7049L181.678 52.8536L173.497 61.422L165.063 58.7241L165.228 58.2083L173.339 60.8044L181.704 52.0453L189.908 61.7363L198.026 46.0058L206.354 40.209L206.663 40.6532L198.446 46.3742L190.019 62.7049Z" fill="#4B4E63"/>
<path d="M214.996 71.0698H157.121V71.6332H214.996V71.0698Z" fill="#4B4E63"/>
<path d="M167.054 72.9985H163.238V73.8653H167.054V72.9985Z" fill="#4B4E63"/>
<path d="M151.849 60.356H144.832V61.2899H151.849V60.356Z" fill="white"/>
<path d="M151.849 62.3711H144.832V63.3051H151.849V62.3711Z" fill="white"/>
<path d="M151.849 64.3887H144.832V65.3227H151.849V64.3887Z" fill="white"/>
<path d="M175.326 72.9985H171.51V73.8653H175.326V72.9985Z" fill="#4B4E63"/>
<path d="M183.599 72.9985H179.783V73.8653H183.599V72.9985Z" fill="#4B4E63"/>
<path d="M191.871 72.9985H188.055V73.8653H191.871V72.9985Z" fill="#4B4E63"/>
<path d="M200.143 72.9985H196.327V73.8653H200.143V72.9985Z" fill="#4B4E63"/>
<path d="M208.414 72.9985H204.598V73.8653H208.414V72.9985Z" fill="#4B4E63"/>
<path d="M151.846 44.4414H121.984V45.3082H151.846V44.4414Z" fill="#4B4E63"/>
<path d="M142.185 46.894H121.984V47.7609H142.185V46.894Z" fill="#4B4E63"/>
<path d="M174.639 26.8862H160.514V28.9579H174.639V26.8862Z" fill="#FFB5BE"/>
<path d="M174.639 30.8589H160.514V34.4757H174.639V30.8589Z" fill="#EBECF5"/>
<path d="M138.997 54.5229C137.266 52.7893 134.871 51.7188 132.227 51.7188C126.94 51.7188 122.653 56.0051 122.653 61.2927C122.653 61.3079 122.653 61.323 122.655 61.3382H132.184L138.997 54.5229Z" fill="white"/>
<path d="M132.182 61.3383H141.799C141.799 61.3231 141.802 61.3079 141.802 61.2928C141.802 58.649 140.729 56.2566 138.997 54.5229L132.182 61.3383Z" fill="#FFE387"/>
<path d="M122.653 61.3384C122.666 63.9648 123.735 66.3399 125.457 68.0627L132.182 61.3384H122.653Z" fill="#4B4E63"/>
<path d="M132.182 61.3381L125.458 68.0624C127.189 69.796 129.584 70.8665 132.227 70.8665V61.3359H132.182V61.3381Z" fill="#91786A"/>
<path d="M132.226 61.3384V70.869C137.498 70.869 141.774 66.6064 141.8 61.3384H132.226Z" fill="#FF7B29"/>
<path d="M151.846 26.8862H121.984V40.4302H151.846V26.8862Z" fill="#6BD18C"/>
<path d="M129.528 34.5332H127.077V38.2193H129.528V34.5332Z" fill="#EBECF5"/>
<path d="M133.834 30.5674H131.383V38.2192H133.834V30.5674Z" fill="#EBECF5"/>
<path d="M138.142 32.8281H135.691V38.2197H138.142V32.8281Z" fill="#EBECF5"/>
<path d="M142.45 29.7744H139.999V38.2215H142.45V29.7744Z" fill="#FFE58F"/>
<path d="M146.759 35.0645H144.308V38.2218H146.759V35.0645Z" fill="#EBECF5"/>
<path d="M227.207 116.614H225.586C221.246 116.614 217.729 120.131 217.729 124.472H235.065C235.065 120.131 231.546 116.614 227.207 116.614Z" fill="#F0F2F5"/>
<path d="M293.031 67.6821H292.015V101.787H293.031V67.6821Z" fill="#54B374"/>
<path d="M292.524 76.5712C292.524 76.5712 300.46 81.9801 306.597 71.9251C295.679 67.5022 292.524 76.5712 292.524 76.5712Z" fill="#54B374"/>
<path d="M278.451 71.9274C284.588 81.9802 292.524 76.5735 292.524 76.5735C292.524 76.5735 289.367 67.5023 278.451 71.9274Z" fill="#54B374"/>
<path d="M292.524 86.3574C292.524 86.3574 301.534 92.4987 308.504 81.0828C296.108 76.0575 292.524 86.3574 292.524 86.3574Z" fill="#54B374"/>
<path d="M276.542 81.0828C283.512 92.4987 292.522 86.3574 292.522 86.3574C292.522 86.3574 288.94 76.0575 276.542 81.0828Z" fill="#54B374"/>
<path d="M292.524 67.6821C292.524 67.6821 298.44 71.7149 303.015 64.2192C294.876 60.921 292.524 67.6821 292.524 67.6821Z" fill="#62BF80"/>
<path d="M282.032 64.2192C286.609 71.7149 292.522 67.6821 292.522 67.6821C292.522 67.6821 290.171 60.921 282.032 64.2192Z" fill="#62BF80"/>
<path d="M292.523 98.0076C288.746 98.0076 285.472 97.5114 283.851 100.651H301.196C299.572 97.5114 296.3 98.0076 292.523 98.0076Z" fill="#91786A"/>
<path d="M303.747 100.651H281.301V124.209H303.747V100.651Z" fill="#BD9781"/>
<path d="M303.747 120.788H281.301V124.209H303.747V120.788Z" fill="#91786A"/>
<path d="M316.772 139.857H88.146V170.845H316.772V139.857Z" fill="#C3C4CF"/>
<path d="M330.501 132.056H5.82324V139.857H330.501V132.056Z" fill="#F0F2F5"/>
<path d="M88.1461 139.701H8.15234V170.69H88.1461V139.701Z" fill="#F0F2F5"/>
<path d="M83.3936 146.441H11.5132V171H83.3936V146.441Z" fill="white"/>
<path d="M33.8515 169.973C33.8515 165.411 37.5485 161.714 42.1101 161.714C46.6717 161.714 50.3686 165.411 50.3686 169.973C50.3686 170.254 50.3534 170.534 50.3274 170.807H54.3169C54.3365 170.532 54.3495 170.252 54.3495 169.973C54.3495 163.214 48.8712 157.735 42.1122 157.735C35.3533 157.735 29.875 163.214 29.875 169.973C29.875 170.254 29.888 170.532 29.9075 170.807H33.897C33.8645 170.534 33.8515 170.254 33.8515 169.973Z" fill="#5B5E78"/>
<path d="M42.1101 161.714C37.5485 161.714 33.8516 165.411 33.8516 169.972C33.8516 170.254 33.8667 170.534 33.8927 170.807H37.711C37.659 170.536 37.6309 170.258 37.6309 169.972C37.6309 167.498 39.6354 165.493 42.1101 165.493C44.5849 165.493 46.5894 167.498 46.5894 169.972C46.5894 170.258 46.559 170.536 46.5092 170.807H50.3275C50.3557 170.532 50.3687 170.254 50.3687 169.972C50.3687 165.413 46.6717 161.714 42.1101 161.714Z" fill="#EBECF5"/>
<path d="M46.5889 169.972C46.5889 167.498 44.5844 165.493 42.1096 165.493C39.6349 165.493 37.6304 167.498 37.6304 169.972C37.6304 170.258 37.6607 170.536 37.7106 170.807H46.5087C46.5585 170.538 46.5889 170.258 46.5889 169.972Z" fill="white"/>
<path d="M76.9377 158.208C76.9377 157.053 76.0016 156.117 74.8466 156.117C73.6915 156.117 72.7554 157.053 72.7554 158.208V170.809H76.9377V158.208Z" fill="#C3C4CF"/>
<path d="M328.171 139.857H316.772V170.845H328.171V139.857Z" fill="#F0F2F5"/>
<path d="M330.501 132.056H5.82324V134.982H330.501V132.056Z" fill="#D1D3E0"/>
<path d="M88.1461 139.857H8.15234V142.782H88.1461V139.857Z" fill="#D1D3E0"/>
<path d="M328.171 139.857H316.772V142.782H328.171V139.857Z" fill="#D1D3E0"/>
<path d="M336.323 124.207H0V132.054H336.323V124.207Z" fill="#F0F2F5"/>
<path d="M239.382 46.301L236.625 49.0576L249.029 61.4616L251.786 58.705L239.382 46.301Z" fill="#5B5E78"/>
<path opacity="0.8" d="M237.348 47.0173C232.49 51.8758 224.613 51.8758 219.754 47.0173C214.896 42.1588 214.896 34.2816 219.754 29.4232C224.613 24.5647 232.49 24.5647 237.348 29.4232C242.207 34.2816 242.207 42.1588 237.348 47.0173Z" fill="white"/>
<path d="M216.998 26.6668C210.616 33.0487 210.616 43.3941 216.998 49.776C223.38 56.1579 233.725 56.1579 240.107 49.776C246.489 43.3941 246.489 33.0487 240.107 26.6668C233.725 20.2849 223.38 20.2849 216.998 26.6668ZM237.348 47.0174C232.49 51.8759 224.613 51.8759 219.754 47.0174C214.896 42.1589 214.896 34.2817 219.754 29.4233C224.613 24.5648 232.49 24.5648 237.348 29.4233C242.207 34.2817 242.207 42.1589 237.348 47.0174Z" fill="#FF7B29"/>
<path d="M247.978 53.5079L243.832 57.6543L256.685 70.5073L260.831 66.3609L247.978 53.5079Z" fill="#5B5E78"/>
<path d="M226.682 35.5956C226.146 36.042 225.397 35.4981 224.946 35.0669C224.569 34.7071 224.766 34.2824 225.011 33.8576C225.746 32.5683 226.872 31.734 228.521 31.6689C230.498 31.5866 232.262 32.8131 232.359 34.6248C232.416 35.6519 232.006 36.5036 231.276 37.2057C230.871 37.5936 230.446 37.9728 230.129 38.4387C229.759 38.987 229.746 39.4963 229.629 40.1204C229.538 40.6166 229.035 41.2082 228.456 41.1085C227.923 41.0175 227.505 40.3436 227.427 39.8517C227.379 39.5569 227.379 39.3121 227.379 39.052C227.379 38.1852 227.902 37.4679 228.701 36.781C229.338 36.2262 230.041 35.7365 229.991 34.887C229.941 34.1524 229.295 33.693 228.521 33.81C227.585 33.9487 227.358 34.7353 226.831 35.4352C226.786 35.4981 226.736 35.5523 226.682 35.5956Z" fill="#4B4E63"/>
<path d="M229.904 43.4232C229.904 44.1709 229.297 44.7776 228.55 44.7776C227.802 44.7776 227.195 44.1709 227.195 43.4232C227.195 42.6756 227.802 42.0688 228.55 42.0688C229.297 42.0688 229.904 42.6756 229.904 43.4232Z" fill="#4B4E63"/>
<path d="M60.053 112.87H54.4902L54.085 104.596H60.4604L60.053 112.87Z" fill="#FFA3AE"/>
<path d="M79.8139 112.87H74.249L73.8438 104.596H80.2192L79.8139 112.87Z" fill="#FFA3AE"/>
<path d="M91.6552 97.8176C91.6552 98.2661 91.2933 98.628 90.8447 98.628H87.3124C86.8638 98.628 86.502 98.2661 86.502 97.8176V91.5722C86.502 91.1236 86.866 90.7617 87.3124 90.7617H90.8447C91.2933 90.7617 91.6552 91.1236 91.6552 91.5722V97.8176Z" fill="#FFA3AE"/>
<path d="M47.3525 95.5572C47.3525 94.9201 46.8368 94.4043 46.1997 94.4043H39.1612C38.524 94.4043 38.0083 94.9201 38.0083 95.5572C38.0083 96.1943 38.524 96.71 39.1612 96.71H46.1997C46.8346 96.71 47.3525 96.1943 47.3525 95.5572Z" fill="#FFA3AE"/>
<path d="M43.5665 91.1126C43.1136 90.6641 42.3833 90.6662 41.9369 91.1191L38.3418 94.7446C37.8932 95.1975 37.8976 95.9278 38.3483 96.3742C38.8012 96.8228 39.5294 96.8184 39.9779 96.3677L43.573 92.7423C44.0216 92.2915 44.0194 91.5612 43.5665 91.1126Z" fill="#FFA3AE"/>
<path d="M43.9088 91.9317C43.9088 91.2946 43.393 90.7788 42.7559 90.7788H37.6504C37.0133 90.7788 36.4976 91.2946 36.4976 91.9317C36.4976 92.5688 37.0133 93.0845 37.6504 93.0845H42.7559C43.393 93.0845 43.9088 92.5688 43.9088 91.9317Z" fill="#FFA3AE"/>
<path d="M89.1608 95.2368C89.1608 103.927 79.3073 110.972 67.1524 110.972C54.9975 110.972 45.144 103.927 45.144 95.2368C45.144 86.547 54.9975 79.502 67.1524 79.502C79.3073 79.502 89.1608 86.547 89.1608 95.2368Z" fill="#FFB5BE"/>
<path d="M71.4692 81.1963H62.6299V82.2235H71.4692V81.1963Z" fill="#FF8C9A"/>
<path d="M67.4086 88.4257C66.0694 88.4257 65.8006 87.7084 66.8148 86.8308L79.648 75.7182C80.6621 74.8406 81.49 75.2198 81.49 76.559V85.99C81.49 87.3292 80.3934 88.4257 79.0542 88.4257H67.4086Z" fill="#FFB5BE"/>
<path d="M83.8908 90.7619C83.8908 91.5941 83.4357 92.268 82.8745 92.268C82.3132 92.268 81.856 91.5941 81.856 90.7619C81.856 89.9298 82.311 89.2559 82.8745 89.2559C83.4336 89.2559 83.8908 89.9298 83.8908 90.7619Z" fill="#4B4E63"/>
<path d="M64.8065 60.8711C64.2626 61.8679 62.2407 61.8159 60.2904 60.7541C58.3401 59.6922 57.1981 58.0214 57.742 57.0246C58.2859 56.0278 60.3078 56.0798 62.2581 57.1438C64.2084 58.2035 65.3504 59.8743 64.8065 60.8711Z" fill="#FFCD36"/>
<path d="M58.4693 55.6933L57.7427 57.0273L64.8069 60.8748L65.5335 59.5407L58.4693 55.6933Z" fill="#FFCD36"/>
<path d="M62.9842 55.8068C61.0338 54.7449 59.012 54.6908 58.4681 55.6898C57.9241 56.6866 59.0662 58.3574 61.0165 59.4192C62.9668 60.4811 64.9887 60.5352 65.5326 59.5362C66.0765 58.5394 64.9345 56.8686 62.9842 55.8068Z" fill="#FFE58F"/>
<path d="M62.9842 55.8068C61.0338 54.7449 59.012 54.6908 58.4681 55.6898C57.9241 56.6866 59.0662 58.3574 61.0165 59.4192C62.9668 60.4811 64.9887 60.5352 65.5326 59.5362C66.0765 58.5394 64.9345 56.8686 62.9842 55.8068Z" fill="#FFE58F"/>
<path d="M64.678 59.0029C64.3356 59.6313 62.8729 59.4969 61.4101 58.6995C59.9474 57.902 59.0394 56.747 59.3818 56.1185C59.7242 55.4901 61.1869 55.6266 62.6518 56.4219C64.1124 57.2194 65.0204 58.3744 64.678 59.0029Z" fill="#FFE58F"/>
<path d="M73.7057 65.9155C74.2302 67.0164 72.9083 68.7392 70.7542 69.762C68.6002 70.7848 66.431 70.7242 65.9066 69.6233C65.3843 68.5224 66.7041 66.7997 68.8581 65.7747C71.0121 64.7518 73.1835 64.8147 73.7057 65.9155Z" fill="#FFCD36"/>
<path d="M73.0005 64.4476L65.2017 68.1558L65.9014 69.6275L73.7002 65.9193L73.0005 64.4476Z" fill="#FFCD36"/>
<path d="M68.1576 64.3035C66.0036 65.3285 64.6817 67.0491 65.2061 68.1521C65.7305 69.253 67.8997 69.3158 70.0538 68.2908C72.2078 67.2658 73.5297 65.543 73.0053 64.4422C72.483 63.3413 70.3116 63.2807 68.1576 64.3035Z" fill="#FFE58F"/>
<path d="M68.1576 64.3035C66.0036 65.3285 64.6817 67.0491 65.2061 68.1521C65.7305 69.253 67.8997 69.3158 70.0538 68.2908C72.2078 67.2658 73.5297 65.543 73.0053 64.4422C72.483 63.3413 70.3116 63.2807 68.1576 64.3035Z" fill="#FFE58F"/>
<path d="M72.0025 64.8495C72.3319 65.5429 71.2917 66.7283 69.6751 67.4976C68.0606 68.2647 66.483 68.3254 66.1536 67.6319C65.8243 66.9385 66.8644 65.7509 68.4789 64.9838C70.0955 64.2145 71.6731 64.156 72.0025 64.8495Z" fill="#FFE58F"/>
<path d="M72.126 47.1158C73.0058 47.7031 72.7869 49.5754 71.6363 51.296C70.4877 53.0167 68.8408 53.9355 67.9631 53.3482C67.0833 52.761 67.3022 50.8886 68.4507 49.168C69.6014 47.4474 71.2462 46.5286 72.126 47.1158Z" fill="#FFCD36"/>
<path d="M70.9495 46.3211L66.7876 52.5527L67.9644 53.3387L72.1263 47.107L70.9495 46.3211Z" fill="#FFCD36"/>
<path d="M67.2764 48.3814C66.1279 50.102 65.909 51.9743 66.7888 52.5616C67.6686 53.1489 69.3134 52.23 70.4641 50.5094C71.6126 48.7888 71.8315 46.9165 70.9517 46.3292C70.0697 45.7419 68.4249 46.6608 67.2764 48.3814Z" fill="#FFE58F"/>
<path d="M67.2764 48.3814C66.1279 50.102 65.909 51.9743 66.7888 52.5616C67.6686 53.1489 69.3134 52.23 70.4641 50.5094C71.6126 48.7888 71.8315 46.9165 70.9517 46.3292C70.0697 45.7419 68.4249 46.6608 67.2764 48.3814Z" fill="#FFE58F"/>
<path d="M67.0485 76.7773C64.6084 76.7773 62.6299 78.7558 62.6299 81.1959H71.467C71.467 78.7558 69.4885 76.7773 67.0485 76.7773Z" fill="#FFE58F"/>
<path d="M95.1623 120.426H41.1924V124.209H95.1623V120.426Z" fill="#62BF80"/>
<path d="M95.1623 123.007H41.1924V124.21H95.1623V123.007Z" fill="#54B374"/>
<path d="M88.2238 116.65H34.2539V120.432H88.2238V116.65Z" fill="#62BF80"/>
<path d="M88.2238 119.231H34.2539V120.434H88.2238V119.231Z" fill="#54B374"/>
<path d="M92.0226 112.869H38.0527V116.651H92.0226V112.869Z" fill="#FFE58F"/>
<path d="M92.0226 115.45H38.0527V116.653H92.0226V115.45Z" fill="#FFCD36"/>
<path d="M270.562 31.1377H259.508V46.1227H270.562V31.1377Z" fill="#FFDBE9"/>
<path d="M284.676 38.6313H273.622V53.6164H284.676V38.6313Z" fill="#FFE58F"/>
<defs>
<linearGradient id="paint0_linear_1218_284" x1="206.508" y1="28.2548" x2="206.508" y2="-9.74317" gradientUnits="userSpaceOnUse">
<stop stop-color="#96D1FF"/>
<stop offset="1" stop-color="#00AEFF"/>
</linearGradient>
</defs>
</svg>
