<svg width="124" height="14" viewBox="0 0 124 14" fill="none" xmlns="http://www.w3.org/2000/svg">
<path d="M38.2445 9.57568L37.8472 9.9587V10.7914L38.2445 11.1689H42.6789L43.0762 10.7914V9.9587L42.6789 9.57568H38.2445Z" fill="#0052A1"/>
<path d="M43.0876 3.95801H41.6709V5.0627H43.0876V3.95801Z" fill="#0052A1"/>
<path d="M62.1267 7L54.8647 0H34.7893V0.494044H30.3319L29.8194 0H2.03864V8.56543L0 11.069V13.5115H5.38454V14H31.6047V13.5115H36.1369L36.6494 14H44.2684L44.781 13.5115H51.0351V14H54.859L62.1267 7ZM10.7691 12.5289H9.27178V7.18874H8.4425V12.5289H6.91064V12.0404H5.43062L4.33067 10.6915L3.23072 12.0404H1.5261V11.7962L3.56474 9.29263V1.47659H5.0966V9.29263L6.91064 11.5186V1.47659H8.4425V5.77874H9.27178V1.47659H10.7691V12.5289ZM20.5188 12.4068H12.2318V10.9968H15.6065V8.84853H12.4852V4.51863H18.7278V3.01427H12.4852V1.59872H20.2597V5.92863H14.0171V7.43299H20.2597V8.84299H17.1384V10.9913H20.5188V12.4068ZM30.0786 12.4679H22.0507V8.96511H23.5826V11.0523H30.0786V12.4679ZM30.1419 8.10467H27.0206V9.94766H25.4887V8.10467H21.8549V6.68914H30.1419V8.10467ZM30.1419 4.6019L28.8692 5.82316H23.1334L21.8607 4.6019V2.63124L23.1334 1.40998H28.8692L30.1419 2.63124V4.6019ZM36.3212 6.01189H39.2985L40.1566 5.18478V3.00872H36.3212V1.59318H41.6712V2.57573H43.0878V1.47105H44.6024V7.4885H43.0878V6.44488H40.9686L39.9493 7.42743H36.3154V6.01189H36.3212ZM44.6024 11.3577L43.3297 12.5789H37.5939L36.3212 11.3577V9.38699L37.5939 8.16575H43.3297L44.6024 9.38699V11.3577ZM51.1675 10.0143L49.0713 12.0349H46.0709V10.6249H48.4206L49.6414 9.44806V3.00316H46.0709V1.58762H51.1675V10.0143ZM54.0988 12.5289H52.5669V1.47105H54.0988V12.5289Z" fill="#0052A1"/>
<path d="M23.7841 2.82568L23.3867 3.20316V4.03583L23.7841 4.41331H28.2184L28.61 4.03583V3.20316L28.2184 2.82568H23.7841Z" fill="#0052A1"/>
<path d="M81.8334 9.57568L81.436 9.9587V10.7914L81.8334 11.1689H86.2677L86.6593 10.7914V9.9587L86.2677 9.57568H81.8334Z" fill="#AE841F"/>
<path d="M72.0781 9.57568L71.6865 9.9587V10.7914L72.0781 11.1689H76.5182L76.9098 10.7914V9.9587L76.5182 9.57568H72.0781Z" fill="#AE841F"/>
<path d="M106.09 9.29273L107.904 11.5187V6.94458H106.09V9.29273Z" fill="#AE841F"/>
<path d="M93.3399 6.87235L93.7372 6.49487V5.54007L93.3399 5.1626H91.5834L91.186 5.54007V6.49487L91.5834 6.87235H93.3399Z" fill="#AE841F"/>
<path d="M115.091 9.57568L114.694 9.9587V10.7914L115.091 11.1689H119.399L119.796 10.7914V9.9587L119.399 9.57568H115.091Z" fill="#AE841F"/>
<path d="M124 2.33148H122.854V0H103.032V0.488488H99.2197V0H69.3888L62.1211 7L69.3888 14H78.1019L79.1673 12.9786L80.2327 14H99.3407V13.5115H106.372V14H120.988L122.848 12.2125V6.68914H123.994V2.33148H124ZM78.4417 11.3577L77.169 12.5789H71.4332L70.1605 11.3577V9.38699L71.4332 8.16575H77.169L78.4417 9.38699V11.3577ZM78.4417 7.29977H70.1605V5.88977H72.6426V4.04678H74.1744V5.88977H76.3916L76.7198 4.60745V2.94211H70.2181V1.53211H78.2459V4.6019L77.9119 5.88977H78.436V7.29977H78.4417ZM89.66 1.83743H91.6986V1.09912H93.2247V1.83743H95.2634V3.24741H89.6542V1.83743H89.66ZM79.5244 7.24425L81.9431 4.27438V3.00872H79.9045V1.59872H85.5136V3.00872H83.475V4.27438L85.8995 7.24425V7.4885H84.1948L82.7148 5.66773L81.2348 7.4885H79.5302V7.24425H79.5244ZM88.1915 11.3577L86.9188 12.5789H81.1829L79.9102 11.3577V9.38699L81.1829 8.16575H86.9188L88.1915 9.38699V11.3577ZM88.1915 7.4885H86.6654V5.27914H85.0068V3.86914H86.6654V1.47659H88.1915V7.4885ZM89.6542 4.96827L90.927 3.74703H93.9849L95.2576 4.96827V7.06105L93.9849 8.28232H90.927L89.6542 7.06105V4.96827ZM97.8203 12.5289H89.7925V8.96511H91.3243V11.119H97.8203V12.5289ZM98.8396 5.58446H97.6936V9.57574H96.1618V1.47105H97.6936V4.17446H98.8396V5.58446ZM109.436 12.5289H107.904V12.0404H106.424L105.324 10.6915L104.224 12.0404H102.52V11.7962L104.558 9.29263V1.47659H106.09V5.53449H107.904V1.47659H109.436V12.5289ZM111.763 12.5289H110.265V1.47105H111.763V12.5289ZM112.909 7.24425L115.333 4.27438V1.47659H116.865V4.27438L119.284 7.24425V7.4885H117.579L116.099 5.66773L114.619 7.4885H112.914V7.24425H112.909ZM121.322 11.3577L120.05 12.5789H114.44L113.168 11.3577V9.38699L114.44 8.16575H120.05L121.322 9.38699V11.3577ZM122.468 5.21808H121.322V7.4885H119.796V1.47105H121.322V3.80253H122.468V5.21808Z" fill="#AE841F"/>
</svg>
